<?xml version="1.0" encoding="utf-8"?>
<!-- Generator: Adobe Illustrator 23.0.3, SVG Export Plug-In . SVG Version: 6.00 Build 0)  -->
<svg version="1.1" id="Слой_1" xmlns="http://www.w3.org/2000/svg" xmlns:xlink="http://www.w3.org/1999/xlink" x="0px" y="0px"
	 viewBox="0 0 1000 1000" enable-background="new 0 0 1000 1000" xml:space="preserve" fill='current'>
<g>
	<g>
		<g>
			<g>
				<path d="M963.6,568.3c-3.9-0.5-6.6-3.9-6.3-7.7c0.3-3.8,3.7-6.7,7.6-6.3c3.9,0.3,6.9,3.8,6.5,7.7
					C971.1,565.9,967.5,568.7,963.6,568.3z"/>
			</g>
		</g>
		<g>
			<g>
				<path d="M954,623.9c-3.8-0.9-6.2-4.7-5.4-8.4c0.9-3.7,4.7-6.1,8.5-5.4c3.9,0.8,6.4,4.5,5.4,8.4
					C961.7,622.4,957.8,624.8,954,623.9z"/>
			</g>
		</g>
		<g>
			<g>
				<path d="M938.2,678.1c-3.7-1.3-5.7-5.4-4.5-9c1.2-3.6,5.3-5.6,9-4.4c3.7,1.2,5.7,5.2,4.5,9C945.9,677.4,941.9,679.4,938.2,678.1
					z"/>
			</g>
		</g>
		<g>
			<g>
				<path d="M916.2,730.1c-3.6-1.8-4.8-5.9-3.3-9.4c1.6-3.5,5.8-5,9.3-3.4c3.6,1.6,5.2,5.9,3.5,9.5
					C924.2,730.4,919.7,731.8,916.2,730.1z"/>
			</g>
		</g>
		<g>
			<g>
				<path d="M570.7,27.3c-0.8,3.9-4.5,6.4-8.3,5.8c-3.8-0.7-6.3-4.4-5.6-8.2c0.7-3.9,4.4-6.5,8.3-5.8
					C569,19.8,571.5,23.5,570.7,27.3z"/>
			</g>
		</g>
		<g>
			<g>
				<path d="M625.3,41.7c-1.2,3.8-5.1,5.7-8.8,4.6c-3.7-1-5.8-5-4.7-8.7c1.1-3.8,5.1-6,8.9-4.9C624.5,33.9,626.5,38,625.3,41.7z"/>
			</g>
		</g>
		<g>
			<g>
				<path d="M677.9,62.2c-1.6,3.6-5.8,5.2-9.3,3.6c-3.5-1.6-5.1-5.8-3.6-9.4c1.5-3.6,5.7-5.2,9.3-3.6
					C677.9,54.4,679.5,58.6,677.9,62.2z"/>
			</g>
		</g>
		<g>
			<g>
				<path d="M727.8,88.5c-2,3.4-6.4,4.5-9.7,2.6c-3.3-1.9-4.5-6.2-2.5-9.7c1.9-3.4,6.3-4.6,9.7-2.6
					C728.7,80.8,729.9,85.1,727.8,88.5z"/>
			</g>
		</g>
		<g>
			<g>
				<path d="M774.3,120.5c-2.4,3.1-6.8,3.7-9.8,1.3c-3.1-2.3-3.8-6.6-1.5-9.8c2.3-3.2,6.8-3.9,10-1.6
					C776.2,112.9,776.7,117.4,774.3,120.5z"/>
			</g>
		</g>
		<g>
			<g>
				<path d="M817,157.5c-2.7,2.8-7.2,2.9-10,0.3c-2.8-2.6-2.9-7.1-0.2-10c2.7-2.9,7.1-3,10-0.3C819.6,150.1,819.7,154.6,817,157.5z"
					/>
			</g>
		</g>
		<g>
			<g>
				<path d="M855.2,199c-1.5,1.2-3.4,1.8-5.2,1.6c-1.8-0.1-3.6-0.9-4.8-2.4c-2.5-2.9-2.1-7.3,0.8-9.9c3-2.6,7.5-2.2,10.1,0.7
					c1.3,1.5,1.9,3.4,1.7,5.2C857.6,196,856.7,197.7,855.2,199z"/>
			</g>
		</g>
		<g>
			<g>
				<path d="M888.3,244.7c-3.3,2.1-7.7,1.2-9.7-2c-2-3.3-1.3-7.6,2-9.8c3.2-2.2,7.8-1.5,9.9,1.9
					C892.6,238.1,891.7,242.6,888.3,244.7z"/>
			</g>
		</g>
		<g>
			<g>
				<path d="M916.2,293.8c-3.5,1.7-7.8,0.4-9.6-3c-1.7-3.4-0.3-7.7,3.1-9.5c3.5-1.8,7.8-0.5,9.6,3
					C921.1,287.8,919.7,292,916.2,293.8z"/>
			</g>
		</g>
		<g>
			<g>
				<path d="M938.2,345.8c-3.8,1.3-7.6-0.6-9.1-4.1c-1.4-3.6,0.4-7.6,4.1-9.1c3.7-1.4,7.8,0.4,9.3,4.1
					C944,340.3,941.8,344.5,938.2,345.8z"/>
			</g>
		</g>
		<g>
			<g>
				<path d="M954,399.9c-3.8,0.9-7.6-1.4-8.5-5.2c-0.4-1.9,0-3.8,0.9-5.3c0.9-1.5,2.4-2.7,4.3-3.2c1.9-0.5,3.8-0.2,5.4,0.7
					c1.6,0.9,2.7,2.5,3.2,4.4C960.2,395.2,957.8,399.1,954,399.9z"/>
			</g>
		</g>
		<g>
			<g>
				<path d="M963.6,455.6c-3.9,0.4-7.5-2.3-8-6.1c-0.5-3.8,2.3-7.3,6.2-7.9c3.9-0.6,7.5,2.2,8,6.1
					C970.3,451.6,967.5,455.1,963.6,455.6z"/>
			</g>
		</g>
		<g>
			<g>
				<path d="M966.9,511.9c-3.9,0-7.2-3.1-7.3-7s3-7,6.9-7.2c3.9-0.1,7.2,3,7.3,7C973.9,508.7,970.8,511.9,966.9,511.9z"/>
			</g>
		</g>
	</g>
	<g>
		<path d="M714.9,180.6c-3,0-6.2,2.9-6.1,5.8c0,3.1,3,6.2,5.9,6.1c3-0.1,5.9-3,5.9-6.1C720.9,183.5,717.6,180.6,714.9,180.6z"/>
	</g>
	<g>
		<path d="M524.6,155.2c-5-0.1-10.3,4.9-10.3,9.7c0,5.1,5.1,10.3,9.8,10.2c5-0.1,9.8-5.1,9.9-10.2
			C534.6,160.1,529.1,155.3,524.6,155.2z"/>
	</g>
	<g>
		<path d="M507.5,762.3c-9.1,0-9.1,14.1,0,14.1C516.6,776.4,516.6,762.3,507.5,762.3z"/>
	</g>
	<g>
		<g>
			<g>
				<path d="M374,339.3c0.4,1.5,1,2.8,1.8,4.7c1,2.4,1.5,4.4,1.8,6.9c0.2,1.9,0.6,3.6,0.9,5.4c-0.1,2.1-0.1,4.4-0.1,6.5
					c-0.1,0.3-0.3,1.5,0.2,4.3c0.2,1.1,0.1,2.7-0.1,3.8c-0.1,0.5,0.1,1.1,0.2,1.6c0.2,0.5,0.4,1.3,0.7,2.1c0.1,1,1.1,2.3,2.1,2.8
					l1.6-3.2c-0.2-0.2-0.2-0.2-0.3-0.4c0,0.1-0.1-0.6-0.1-0.6c-0.1-5.2-0.1-10.3-0.3-15.6c0-1.5-0.1-3.2-0.4-4.8
					c0-0.5-0.1-1.1-0.3-1.6c-0.3-1.6-0.6-3.3-0.9-4.9c-0.1-0.5-0.6-2.1-0.8-2.6c-1.3-3.6-2.5-5.5-3.5-8.9c-0.4-1.3-0.8-2.7-1.5-4
					l-3.2,1.6C372.7,334.6,373.4,337,374,339.3z"/>
			</g>
		</g>
		<g>
			<g>
				<path d="M340.8,319.6c1.8,0.1,3-0.2,5-0.3c2.6-0.1,4.6,0,7,0.6c1.9,0.5,3.6,0.6,5.4,1c1.9,0.8,3.7,1.7,5.4,2.9
					c0.2,0.3,1,0.9,3.1,2.3c0.9,0.6,1.8,1.7,2.2,2.6c0.4,0.7,1.6,1.4,2.2,2.1c0.3,0.6,0.5,1.1,0.8,1.7l3.2-1.6
					c-0.3-0.6-0.5-1.1-0.8-1.6l-0.6-1c-3-4.8-7.5-8.5-12.8-10.6c-1.5-0.6-3.1-1-4.7-1.3c-0.5-0.1-1-0.2-1.6-0.3
					c-1.6-0.3-3.3-0.5-4.9-0.8c-0.5-0.1-2.2-0.2-2.8-0.2c-3.8-0.1-6.3,1.1-9.1,0.2c-0.3-0.1-0.5-0.2-0.8-0.3l-0.2-0.1l0,0
					c0.2,0.1,0,0,0.1,0c0,0-0.1,0,0,0c0.2,0.1,0.2,0.1,0.2,0.2c0.1,0.1,0.1,0.1,0,0l-0.1-0.4l0-0.1l0-0.1c0,0,0.1,0.3,0.1,0.2l0,0
					l0,0l0,0l0,0c0,0,0,0,0,0c0,0.1,0,0.3,0,0.4c0,0.4-0.1,0.4-0.1,0.4c0,0,0,0.1-0.1,0.1c0,0-0.1,0.1-0.2,0.2l0.1,0l0.5-0.3
					l-1.9-3.1l-0.4,0.2c0.1-0.1-0.9,0.5-1,0.9c-0.1,0.2-0.3,0.4-0.4,0.7c-0.1,0.2-0.1,0.3-0.2,0.7c-0.1,0.5,0.2,1.2,0.1,1l0.1,0.5
					c0.1,0.2,0.1,0.4,0.3,0.8c0.1,0.2,0.2,0.3,0.4,0.6c0.1,0.1,0.2,0.2,0.4,0.4c0.1,0.1,0.3,0.2,0.3,0.2l0,0l0.7,0.3l0.6,0.2
					C337.9,319.4,339.4,319.5,340.8,319.6z"/>
			</g>
		</g>
		<g>
			<g>
				<path d="M368.1,296.9c-1,1.1-1.8,2.1-3.1,3.7c-1.7,1.9-3.3,3.1-5.4,4.3c-1.7,0.8-3.1,1.9-4.7,2.8c-2,0.7-4,1.2-6.1,1.6
					c-0.3,0-1.5,0-4,0.8c-1,0.3-2.6,0.3-3.7,0.3c-0.8,0-1.9,0.5-2.9,1c-0.2,0.1-0.4,0.2-0.6,0.3c-0.9,0.3-1.7,0.7-2.2,1l1.9,3.1
					c0.5-0.3,1-0.5,1.3-0.6c0,0,0.3-0.1,0.4-0.1c0.1,0,0.3-0.1,0.3,0c2.5-0.4,5.1-0.5,7.8-1c2.7-0.4,5.3-1.1,7.9-2
					c0.8-0.3,1.5-0.6,2.2-0.9l2.2-1.1c0.5-0.2,0.9-0.5,1.4-0.8c0.7-0.4,1.4-0.9,2.1-1.4c0.7-0.5,1.4-0.9,2.1-1.4
					c0.5-0.3,1.8-1.4,2.1-1.8c2.7-2.8,3.9-4.9,6.1-7.6c0.8-1.1,1.7-2.3,2.3-3.6l-3.2-1.6C371.1,293.4,369.6,295.2,368.1,296.9z"/>
			</g>
		</g>
		<g>
			<g>
				<path d="M377.8,254.7c-0.2,1.6-0.2,3-0.1,5.2c0.1,2.7,0.1,4.9-0.2,7.4c-0.2,1.9,0,3.9,0.1,5.7c-0.3,2.1-0.7,4.1-1.3,6.1
					c-0.2,0.2-0.6,1.3-1,4c-0.2,1.1-0.8,2.5-1.3,3.4c-0.4,0.8-0.4,2.2-0.6,3.2c-0.3,0.6-0.7,1.1-1,1.6l3.2,1.6l0.9-1.6
					c0,0,0.4-1,0.4-1c2.2-5.1,3.8-10,4.5-15.6c0.2-1.6,0.1-3.3,0.2-4.8c0-0.5,0-1,0-1.5c0-1.6,0.1-3.2,0.2-4.8
					c0.1-0.5,0.1-2.1,0.1-2.7c0-3.7-0.5-6,0.4-9.2l0.2-1c0-0.1,0.1-0.4,0.1-0.4c0,0.1,0,0.2-0.2,0.4c-0.2,0.2-0.5,0.3-0.6,0.2
					c-0.1,0-0.2,0-0.1,0c0.1,0.1,0.2,0.2,0.3,0.3l2.8-2.3c-0.4-0.5-0.8-0.8-1.2-1.1c-0.4-0.2-1.2-0.8-2.7-0.4
					c-0.7,0.2-1.3,0.8-1.5,1.3c-0.1,0.2-0.2,0.5-0.3,0.8l0,0.1l0,0.2l-0.2,0.9C378.3,252.2,378,253.5,377.8,254.7z"/>
			</g>
		</g>
		<g>
			<g>
				<path d="M390.2,287.4c-0.4-1.5-0.8-2.7-1.3-4.6c-0.2-0.6-0.3-1.2-0.4-1.8c-0.1-0.6-0.2-1.2-0.3-1.8c-0.2-1.2-0.3-2.4-0.3-3.7
					c-0.1-2-0.7-3.8-1.1-5.7l-0.4-6.5c0.1-0.3,0.2-1.5-0.4-4.2c-0.2-1.1-0.2-2.6,0-3.7c0.1-0.9-0.5-2.2-0.7-3.3c0-0.3,0-0.9-0.1-1.4
					c-0.1-0.5-0.3-1.1-0.7-1.7l-2.8,2.2c0,0,0.1,0.3,0.1,0.7c0,0,0,1,0,1c-0.1,5.4,0.3,10.6,0.9,15.9c0.2,1.5,0.5,3.1,0.7,4.6
					c0.1,0.5,0.1,1,0.3,1.5c0.3,1.6,0.5,3.2,0.5,4.7c0,0.5,0.2,2.1,0.3,2.7c0.8,3.8,1.9,5.9,3,9.3c0.4,1.3,1,2.6,1.7,3.9l3.1-1.8
					C391.5,291.8,390.7,289.6,390.2,287.4z"/>
			</g>
		</g>
		<g>
			<g>
				<path d="M423.3,307.8c-1.6-0.2-3-0.1-5.2,0c-2.7,0.1-4.7,0-7.1-0.5c-1.8-0.4-3.6-0.6-5.3-1c-1.9-0.8-3.6-1.8-5.2-3.1
					c-0.1-0.3-1-1-2.9-2.5c-0.8-0.6-1.6-1.8-2-2.8c-0.4-0.8-1.6-1.6-2.3-2.3c-0.3-0.6-0.6-1.1-0.8-1.7l-3.1,1.8
					c0.3,0.5,0.6,1.1,0.9,1.6c0,0,0.5,0.9,0.6,0.9c1.4,2.3,3,4.6,5.1,6.5c2.1,1.9,4.5,3.5,7.1,4.6c1.5,0.7,3.1,1.1,4.7,1.4
					c0.5,0.1,1.1,0.2,1.6,0.3c1.7,0.2,3.3,0.5,5,0.7c0.5,0.1,2.2,0.1,2.7,0.1c3.7,0,6-0.5,9.4,0c0.6,0.1,1.2,0.2,1.7,0.4
					c0.3,0.1,0.6,0.2,0.8,0.3l0.1,0l0,0l0,0c-0.1,0,0.2,0.1-0.2-0.1l0,0l0,0l0,0l0,0l0,0c0,0-0.1-0.1-0.2-0.1
					c-0.4-0.3-0.3-0.3-0.3-0.3c0,0,0,0,0,0.2l3.5-1c0-0.2-0.1-0.5-0.3-0.8c-0.1-0.2-0.2-0.4-0.4-0.7c-0.1-0.1-0.1-0.1-0.3-0.3
					c-0.1-0.1-0.4-0.3-0.4-0.3l0,0l0,0l0,0l-0.2-0.1l-0.1,0c-0.3-0.1-0.7-0.3-1-0.4c-0.7-0.2-1.4-0.4-2.2-0.5
					C425.8,308.1,424.6,307.9,423.3,307.8z"/>
			</g>
		</g>
		<g>
			<g>
				<path d="M398.6,328.8c1.1-1.1,2-2.1,3.3-3.7c1.7-2,3.1-3.2,5.3-4.1c1.6-0.7,3.1-1.4,5-2.1l6.4-1.3c0.3,0.1,1.5-0.1,4.1-0.9
					c1.1-0.4,2.6-0.5,3.7-0.4c0.5,0,1-0.2,1.5-0.4c0.7-0.2,1.5-0.7,1.9-0.9l0.5-0.1c0.1,0,0.1,0,0.5-0.2c0.3-0.2,0.4-0.3,0.6-0.4
					c0.2-0.2,0.3-0.3,0.5-0.6c0-0.1,0.1-0.2,0.2-0.3l0.1-0.2c0-0.1,0.1-0.4,0.1-0.6l0-0.2l0-0.3l0-0.1l-0.1-0.6l-3.4,1l0.1,0.4
					l0,0.1l0,0l0,0l0,0v0v0l0-0.2v0l0,0c0,0.2,0-0.3,0-0.5c0.1-0.4,0.2-0.4,0.2-0.4c0.1-0.1,0,0,0.3-0.2c0.1,0-0.2,0.1-0.3,0.1
					c0,0-0.9,0.3-0.9,0.2c-0.3,0.1-0.4,0.1-0.8,0.1l-1,0.1l-2,0.3c-1.3,0.2-2.6,0.4-3.9,0.7c-2.6,0.5-5.2,1.1-7.8,1.8
					c-1.5,0.4-2.9,0.8-4.5,1.4c-0.5,0.2-1.1,0.4-1.5,0.7c-1.6,0.8-3.1,1.7-4.5,2.6c-0.5,0.3-1.8,1.5-2.1,1.9
					c-2.6,2.8-3.8,4.8-6.2,7.3c-1,1-1.8,2.1-2.7,3.2l3,2C395.2,332.2,396.8,330.4,398.6,328.8z"/>
			</g>
		</g>
		<g>
			<g>
				<path d="M387.3,369.9c0.3-1.7,0.3-3.1,0.1-5.3c-0.1-1.4-0.2-2.7-0.2-3.9c-0.1-1.2-0.1-2.5-0.1-3.6c0.1-1.9-0.1-3.7-0.1-5.5
					c0.4-2.1,0.9-4.1,1.6-6c0.2-0.2,0.7-1.3,1.3-3.8c0.3-1,1-2.3,1.7-3.2c0.5-0.7,0.7-2.1,1-3.1l1.2-1.5l-3-2l-1,1.5
					c0,0-0.6,0.9-0.6,0.9c-2.9,4.7-5,9.7-5.9,15.3c-0.2,1.6-0.3,3.2-0.3,4.9c0,0.5,0,1.1,0,1.6l0.1,2.5c0,0.8,0.1,1.6,0,2.4
					c0,0.5,0,2.1,0.1,2.6c0.2,3.6,0.4,5.9-0.3,9.2l-0.2,1l-0.1,0.5c0,0.2-0.1,0.4-0.1,0.3c0-0.2,0.3-0.3,0.2-0.3l-1,3.4
					c0.6,0.2,1.4,0.3,2.2,0c0.8-0.2,1.5-0.8,1.9-1.6c0.2-0.3,0.4-0.9,0.4-1.1l0.1-0.5l0.2-0.9C386.8,372.4,387.1,371.1,387.3,369.9z
					"/>
			</g>
		</g>
	</g>
	<g>
		<g>
			<g>
				<path d="M687.2,723.4c0.3,1.2,0.8,2.2,1.4,3.7c0.8,1.9,1.2,3.5,1.4,5.4c0.1,1.5,0.5,2.8,0.7,4.3c-0.1,1.7-0.1,3.4-0.1,5.1
					c-0.1,0.2-0.2,1.2,0.1,3.4c0.1,0.9,0.1,2.1,0,3c-0.1,0.4,0.1,0.8,0.2,1.3c0.1,0.4,0.3,1,0.5,1.6c0.1,0.8,0.8,1.8,1.6,2.2
					l1.3-2.5c-0.2-0.1-0.2-0.2-0.2-0.3c0,0-0.1-0.4-0.1-0.5c-0.1-4.1-0.1-8.1-0.2-12.3c0-1.2-0.1-2.6-0.3-3.8c0-0.4-0.1-0.8-0.2-1.2
					c-0.2-1.3-0.5-2.6-0.7-3.9c-0.1-0.4-0.4-1.7-0.6-2.1c-1-2.8-2-4.4-2.7-7c-0.3-1-0.7-2.1-1.2-3.1l-2.5,1.3
					C686.2,719.7,686.7,721.6,687.2,723.4z"/>
			</g>
		</g>
		<g>
			<g>
				<path d="M661,707.9c1.4,0,2.3-0.1,4-0.2c2-0.1,3.6,0,5.5,0.5c1.5,0.4,2.9,0.5,4.3,0.8c1.5,0.6,2.9,1.4,4.2,2.3
					c0.1,0.2,0.8,0.7,2.4,1.8c0.7,0.5,1.4,1.4,1.7,2.1c0.3,0.6,1.3,1.1,1.8,1.7c0.2,0.4,0.4,0.9,0.6,1.3l2.5-1.3
					c-0.2-0.4-0.4-0.9-0.7-1.3l-0.4-0.8c-2.4-3.8-5.9-6.7-10.1-8.3c-1.2-0.5-2.5-0.8-3.7-1c-0.4-0.1-0.8-0.2-1.2-0.2
					c-1.3-0.2-2.6-0.4-3.9-0.6c-0.4-0.1-1.7-0.1-2.2-0.1c-3,0-5,0.9-7.2,0.2c-0.2-0.1-0.4-0.2-0.6-0.3l-0.1-0.1l0,0
					c0.2,0.1,0,0,0.1,0c0,0-0.1,0,0,0c0.1,0.1,0.2,0.1,0.2,0.1c0.1,0.1,0.1,0.1,0,0l-0.1-0.3l0-0.1l0-0.1c0,0,0.1,0.2,0,0.1l0,0l0,0
					l0,0l0,0c0,0,0,0,0,0c0,0.1,0,0.2,0,0.3c0,0.3-0.1,0.3-0.1,0.4c0,0,0,0.1-0.1,0.1c0,0-0.1,0.1-0.2,0.1l0.1,0l0.4-0.2l-1.5-2.4
					l-0.3,0.1c0.1-0.1-0.7,0.4-0.8,0.7c-0.1,0.1-0.2,0.3-0.3,0.5c0,0.1-0.1,0.3-0.1,0.5c-0.1,0.4,0.1,1,0.1,0.8l0.1,0.4
					c0.1,0.2,0.1,0.3,0.3,0.6c0.1,0.1,0.2,0.3,0.3,0.4c0.1,0.1,0.1,0.2,0.3,0.3c0.1,0.1,0.2,0.1,0.3,0.2l0,0l0.6,0.3l0.4,0.2
					C658.7,707.7,659.9,707.8,661,707.9z"/>
			</g>
		</g>
		<g>
			<g>
				<path d="M682.5,690c-0.8,0.9-1.4,1.7-2.5,2.9c-1.3,1.5-2.6,2.5-4.3,3.4c-1.3,0.7-2.4,1.5-3.7,2.2c-1.6,0.5-3.2,0.9-4.8,1.2
					c-0.2,0-1.2,0-3.1,0.7c-0.8,0.2-2,0.3-2.9,0.2c-0.7,0-1.5,0.4-2.3,0.8c-0.2,0.1-0.3,0.1-0.5,0.2c-0.7,0.2-1.3,0.5-1.8,0.8
					l1.5,2.4c0.4-0.2,0.8-0.4,1-0.5c0,0,0.2-0.1,0.4-0.1c0.1,0,0.2,0,0.2,0c1.9-0.3,4.1-0.4,6.2-0.8c2.1-0.3,4.2-0.9,6.3-1.6
					c0.6-0.2,1.2-0.5,1.8-0.7l1.7-0.9c0.4-0.2,0.7-0.4,1.1-0.7c0.6-0.3,1.1-0.7,1.7-1.1c0.6-0.4,1.1-0.7,1.7-1.1
					c0.4-0.2,1.4-1.1,1.7-1.4c2.1-2.2,3-3.8,4.8-6c0.6-0.9,1.3-1.8,1.8-2.8l-2.5-1.3C684.9,687.2,683.7,688.6,682.5,690z"/>
			</g>
		</g>
		<g>
			<g>
				<path d="M690.2,656.7c-0.2,1.3-0.1,2.4-0.1,4.1c0.1,2.2,0.1,3.8-0.2,5.9c-0.2,1.5,0,3.1,0.1,4.5c-0.2,1.6-0.6,3.2-1,4.8
					c-0.2,0.2-0.5,1.1-0.8,3.1c-0.1,0.9-0.6,2-1.1,2.7c-0.3,0.6-0.3,1.7-0.5,2.5c-0.2,0.4-0.5,0.9-0.8,1.3l2.5,1.3l0.7-1.3
					c0,0,0.3-0.8,0.4-0.8c1.7-4,3-7.9,3.5-12.3c0.2-1.3,0.1-2.6,0.1-3.8c0-0.4,0-0.8,0-1.2c0-1.3,0-2.5,0.2-3.8
					c0-0.4,0.1-1.7,0.1-2.1c0-2.9-0.4-4.7,0.3-7.3l0.2-0.8c0-0.1,0.1-0.3,0.1-0.3c0,0.1,0,0.2-0.2,0.3c-0.2,0.1-0.4,0.2-0.5,0.2
					c-0.1,0-0.2,0-0.1,0c0.1,0,0.2,0.2,0.2,0.2l2.2-1.8c-0.3-0.4-0.6-0.7-1-0.9c-0.3-0.2-1-0.7-2.1-0.3c-0.6,0.2-1,0.6-1.2,1
					c-0.1,0.2-0.2,0.4-0.2,0.6l0,0.1l0,0.2l-0.2,0.7C690.6,654.7,690.4,655.7,690.2,656.7z"/>
			</g>
		</g>
		<g>
			<g>
				<path d="M699.9,682.5c-0.3-1.2-0.6-2.1-1-3.6c-0.1-0.5-0.2-0.9-0.3-1.4c-0.1-0.5-0.1-1-0.2-1.4c-0.1-0.9-0.2-1.9-0.3-2.9
					c-0.1-1.6-0.5-3-0.9-4.5l-0.3-5.1c0.1-0.2,0.1-1.2-0.3-3.3c-0.2-0.9-0.1-2.1,0-2.9c0.1-0.7-0.4-1.8-0.5-2.6c0-0.2,0-0.7,0-1.1
					c-0.1-0.4-0.2-0.9-0.6-1.4l-2.2,1.8c0,0,0.1,0.3,0.1,0.5c0,0,0,0.8,0,0.8c0,4.3,0.2,8.3,0.7,12.6c0.1,1.2,0.4,2.4,0.6,3.6
					c0,0.4,0.1,0.8,0.2,1.2c0.2,1.2,0.4,2.5,0.4,3.7c0,0.4,0.2,1.6,0.3,2.1c0.6,3,1.5,4.7,2.4,7.3c0.4,1.1,0.8,2.1,1.3,3.1l2.5-1.4
					C701,685.9,700.4,684.2,699.9,682.5z"/>
			</g>
		</g>
		<g>
			<g>
				<path d="M726.1,698.6c-1.3-0.1-2.4-0.1-4.1,0c-2.1,0.1-3.7,0-5.6-0.4c-1.4-0.3-2.8-0.5-4.2-0.8c-1.5-0.7-2.9-1.4-4.1-2.4
					c-0.1-0.2-0.8-0.8-2.3-2c-0.7-0.5-1.3-1.4-1.6-2.2c-0.3-0.7-1.3-1.2-1.8-1.8c-0.2-0.5-0.5-0.9-0.7-1.4l-2.5,1.4
					c0.2,0.4,0.4,0.8,0.7,1.2c0,0,0.4,0.7,0.4,0.7c1.1,1.8,2.4,3.7,4,5.2c1.6,1.5,3.5,2.7,5.6,3.7c1.2,0.5,2.5,0.9,3.7,1.1
					c0.4,0.1,0.8,0.2,1.3,0.2c1.3,0.2,2.6,0.4,3.9,0.5c0.4,0.1,1.7,0.1,2.1,0.1c2.9,0,4.7-0.4,7.4,0c0.5,0.1,0.9,0.2,1.4,0.3
					c0.2,0.1,0.4,0.1,0.7,0.2l0.1,0l0,0l0,0c-0.1,0,0.1,0.1-0.1-0.1l0,0l0,0l0,0l0,0l0,0c0,0-0.1,0-0.1-0.1
					c-0.3-0.2-0.2-0.2-0.3-0.3c0,0,0,0,0,0.1l2.7-0.8c0-0.2-0.1-0.4-0.2-0.6c-0.1-0.1-0.1-0.3-0.3-0.5c-0.1-0.1-0.1-0.1-0.2-0.2
					c-0.1-0.1-0.3-0.2-0.3-0.2l0,0l0,0l0,0l-0.2-0.1l-0.1,0c-0.3-0.1-0.5-0.2-0.8-0.3c-0.6-0.2-1.1-0.3-1.7-0.4
					C728,698.8,727.1,698.7,726.1,698.6z"/>
			</g>
		</g>
		<g>
			<g>
				<path d="M706.6,715.1c0.9-0.9,1.5-1.7,2.6-2.9c1.3-1.6,2.5-2.5,4.2-3.2c1.3-0.5,2.4-1.1,3.9-1.6l5-1c0.2,0,1.2,0,3.2-0.7
					c0.8-0.3,2-0.4,2.9-0.4c0.4,0,0.8-0.1,1.2-0.3c0.6-0.2,1.2-0.5,1.5-0.7l0.4-0.1c0.1,0,0,0,0.4-0.2c0.2-0.1,0.3-0.2,0.5-0.3
					c0.1-0.1,0.2-0.2,0.4-0.5c0-0.1,0.1-0.1,0.1-0.2l0.1-0.2c0,0,0.1-0.3,0.1-0.5l0-0.1l0-0.2l0,0l-0.1-0.5l-2.7,0.8l0.1,0.3l0,0.1
					l0,0l0,0l0,0v0v0l0-0.2v0l0,0c0,0.1,0-0.2,0-0.4c0.1-0.3,0.1-0.3,0.2-0.3c0.1-0.1,0,0,0.2-0.2c0,0-0.2,0.1-0.2,0.1
					c0,0-0.7,0.2-0.7,0.2c-0.2,0.1-0.3,0.1-0.6,0.1l-0.8,0.1l-1.6,0.2c-1,0.2-2.1,0.3-3.1,0.5c-2.1,0.4-4.1,0.9-6.1,1.4
					c-1.2,0.3-2.3,0.6-3.6,1.1c-0.4,0.1-0.8,0.3-1.2,0.5c-1.3,0.6-2.4,1.3-3.6,2.1c-0.4,0.2-1.4,1.2-1.7,1.5c-2,2.2-3,3.7-4.9,5.7
					c-0.8,0.8-1.5,1.7-2.1,2.6l2.4,1.6C703.9,717.8,705.2,716.4,706.6,715.1z"/>
			</g>
		</g>
		<g>
			<g>
				<path d="M697.6,747.5c0.2-1.3,0.2-2.5,0.1-4.2c-0.1-1.1-0.1-2.1-0.2-3.1c-0.1-1-0.1-1.9-0.1-2.9c0-1.5-0.1-2.9-0.1-4.3
					c0.3-1.6,0.7-3.2,1.2-4.7c0.2-0.2,0.5-1,1-3c0.2-0.8,0.8-1.9,1.3-2.5c0.4-0.6,0.5-1.7,0.8-2.4l0.9-1.2l-2.3-1.6l-0.8,1.2
					c0,0-0.5,0.7-0.5,0.7c-2.3,3.7-3.9,7.6-4.6,12c-0.2,1.3-0.3,2.6-0.2,3.8c0,0.4,0,0.8,0,1.3l0.1,2c0,0.6,0.1,1.2,0,1.9
					c0,0.4,0,1.6,0.1,2.1c0.1,2.8,0.3,4.6-0.2,7.2l-0.2,0.8l-0.1,0.4c0,0.1-0.1,0.3-0.1,0.2c0-0.2,0.2-0.2,0.2-0.2l-0.8,2.7
					c0.5,0.2,1.1,0.2,1.7,0c0.6-0.2,1.2-0.6,1.5-1.2c0.2-0.3,0.3-0.7,0.3-0.9l0.1-0.4l0.2-0.7C697.3,749.5,697.5,748.5,697.6,747.5z
					"/>
			</g>
		</g>
	</g>
	<g>
		<path d="M787.1,386.2c0.9,0.5,1.8,1,2.8,1.4c9.3,3.5,15.9,9.2,17.9,20c1.1,6.3,2.2,11.3,1.5,21.2c-0.2,2.9,4.3,2.2,4.4-0.7
			c0.1-2.6,0-5.2,0.4-7.7c2-14.7,7.3-29.5,19.9-35.3c1.1-0.5,2.7-0.9,2.7-2.5c0.1-2.4-2-1.8-3.2-2.3c-11.5-4.8-18.5-16.1-20.4-30.3
			c-0.3-2.3,0.5-12.2-1.8-13.1c-3.4-1.3-2.2,9.5-2.2,11.4c-0.1,7.1-1.1,13.8-4.8,19.6c-4.1,6.6-9,12.2-15.7,15.2
			c-0.6,0.2-1.1,0.6-1.6,1C786.3,384.4,786.3,385.8,787.1,386.2z"/>
	</g>
	<g>
		<path d="M794.9,568.1c-6.6-4.5-12.7,0.5-14.3,6.9c-0.7,2.9-0.5,6.1,1.1,8.7C790.9,598.7,806.7,576.3,794.9,568.1z"/>
	</g>
	<g>
		<path d="M361.3,581.6c-13-13-26.2,11.5-9.1,14.3C361.8,597.4,368.6,588.9,361.3,581.6z"/>
	</g>
	<g>
		<g>
			<path d="M877.8,781c-3.4,2.6-6.7,5.3-10,8.1c-9.6,8.2-18.9,16.9-29.2,24.3c-20.1,14.5-42,26.4-64.9,35.8
				c-45.5,18.7-94.6,28.1-143.7,30.2c-93.1,3.8-186.8-23.3-263.7-75.7c-138.8-94.6-210.2-276.3-178.8-440.2
				c19.1-99.4,77.7-189.1,155.4-252.9C374.1,85.2,408,63.4,444.6,47c17.5-7.8,36.2-15.8,55-19.7c9.2-1.9,18.9-4.2,28.3-6
				c3.4-0.7,18.4-6.3,7.4-7.7c-83.9-11-171.8,4.6-249,38.4c-76.2,33.3-136.8,89.5-180,160.1C19.5,353.8,1.1,537.7,61.5,692.7
				c61.1,156.6,199.2,263.5,364,290.7c78.1,12.9,158.8,6.9,234.5-15.8c69.4-20.8,135.1-56.1,181.5-112.8c19.5-23.8,36-50,52.3-76.1
				C898.9,770.2,879.8,779.4,877.8,781z M571.8,896.1c1.9,2.4,2.6,5.2-0.9,7.1c-5.3,2.8-12.5-2.2-13.5-7.6c-0.1-0.5-0.1-0.9-0.2-1.6
				c0-0.4,0-1.2,0.1-2c0.1-0.6,0.4-1.1,0.7-1.4c2.6-3.2,6.3-0.9,8.9,0.9C568.2,892.5,570.3,894.2,571.8,896.1z M472.8,890.4
				c-0.7-0.5-1.3-1-1.7-1.6c-0.7-0.8-0.9-1.4-1.2-2.2l-0.1-0.3l0-0.1c-0.1-0.3-0.2-0.7-0.3-1.2c-0.1-0.3-0.2-1-0.2-1.7
				c0-0.6,0.1-1.1,0.2-1.3c0.2-0.4,0.5-0.6,0.7-0.8c0.4-0.2,0.7-0.3,1.3-0.3c0.6,0,1.4,0.2,2.2,0.5c0.8,0.3,1.4,0.5,2,0.7l0,0
				l1.7,0.7l0.9,0.4l0,0l0.1,0c0.2,0.1,0.5,0.2,0.8,0.3c0.4,0.2,0.8,0.3,1.3,0.5c0.8,0.4,1.4,0.8,1.6,1c0.5,0.4,0.9,1,1.5,1.6
				c0.5,0.7,0.8,1.1,1,1.7c0.2,0.6,0.3,1.3,0.3,1.9c0,0.3-0.1,0.5-0.1,0.7c-0.3-0.2-0.6-0.4-1.1-0.6c-1.6-0.5-3.1,0-3.4,1.2
				c-0.2,0.5-0.1,1,0.1,1.7c-0.3,0-0.7,0-1.1-0.1c-1-0.1-1.6-0.3-2-0.4c-0.5-0.2-0.9-0.4-1.3-0.7l-1.2-0.7
				C474,891.2,473.4,890.9,472.8,890.4z M456,930.7L456,930.7l-1.9,0.1l-1,0.1l0,0l-0.4,0c-0.6,0-1.6,0.2-2.5,0.3
				c-1.3,0.2-2.7,0.3-3.8,0.4c-0.4,0-0.9,0-1.3,0c-0.5,0-1,0-1.6,0l-1.2,0c-1.1,0-2.2,0.1-3.4,0.1c-1.1,0.1-2.2,0.1-3.4,0.1
				c-1.5,0-2.5-0.1-3.6-0.2l0,0l-1.2-0.1l-1.7-0.2l0,0.1l-0.5,0c-0.7,0-1.6,0-2.6-0.1c-1.3,0-2.7,0-3.7-0.1c-0.6,0-1.2-0.2-1.8-0.3
				c-0.5-0.1-0.9-0.2-1.3-0.2l-0.4-0.1c-1.5-0.3-3-0.4-4.4-0.4c-1.1-0.1-2.2-0.1-3.3-0.3c-1.4-0.2-2.3-0.4-3.3-0.7
				c-0.1,0-0.2,0-0.2-0.1l0,0l-1.2-0.3c0,0,0,0,0,0l-1.6-0.4l0,0c-0.2,0-0.4-0.1-0.6-0.1c-0.6-0.1-1.6-0.2-2.5-0.3l-0.5-0.1
				c-1.1-0.1-2.2-0.3-2.7-0.4l-3.5-0.9c-1.2-0.3-2.4-0.5-3.8-0.7c-1.2-0.1-2.3-0.3-3.5-0.6c-1.3-0.3-2.3-0.6-3.2-0.9l-0.1,0l0,0
				l-1.2-0.4c-0.1,0-0.3-0.1-0.4-0.1l-1.1-0.3l0,0c-0.2-0.1-0.4-0.1-0.7-0.2c-2-0.4-4.7-1-5.9-1.3l-8.2-2.5
				c-0.9-0.2-1.8-0.5-2.6-0.8c-1.6-0.5-2.7-1-3.8-1.5l-0.6-0.2l0,0c-0.6-0.3-1.3-0.6-2.1-0.9c-0.5-0.2-1.3-0.5-2.1-0.7
				c-1.4-0.5-2.9-1-3.8-1.4c-0.5-0.2-0.9-0.4-1.4-0.6l-1.8-1c-1.3-0.7-2.7-1.3-4-1.8c-1-0.4-2.1-0.9-3.1-1.4c-1.2-0.6-2-1.1-2.8-1.7
				l0,0L337,907c0,0-0.1,0-0.1-0.1l-1.1-0.6l0,0c-0.3-0.2-0.5-0.3-0.8-0.5l-2.9-1.5c-0.9-0.4-1.6-1-2.2-1.4l-3.2-2.4
				c-1.1-0.8-2.2-1.5-3.3-2.2c-1.1-0.7-2.1-1.5-3.1-2.2c-1-0.8-1.7-1.4-2.4-2l0,0l-1.2-1.1c-0.1,0-0.1-0.1-0.2-0.1l-0.8-0.7l0,0
				c-0.2-0.2-0.5-0.4-0.8-0.7c-1.3-1-3.8-3.1-4.8-4l-2.6-2.7c-0.9-0.9-1.8-1.7-2.7-2.6c-1-0.9-2-1.8-2.9-2.8
				c-0.9-0.9-1.5-1.6-2.1-2.3l0,0l-1.1-1.3c0,0-0.1-0.1-0.1-0.1l-0.7-0.8l0,0c-0.2-0.2-0.4-0.5-0.7-0.7c-0.4-0.4-1-1-1.6-1.7
				c-1-1.1-2.1-2.2-2.7-2.9l-7.5-8.7c-0.7-0.9-1.3-1.6-1.8-2.2c-0.4-0.5-0.7-0.9-1.1-1.4l-1.4-1.8c-0.5-0.6-1.3-1.6-2.2-2.5
				c-0.5-0.5-0.9-1-1.3-1.5c0.3,0.1,0.6,0.3,0.9,0.4c0.9,0.4,1.7,0.8,2.6,1.3c1.2,0.7,2.4,1.2,3.6,1.6l0,0l1.2,0.4c0,0,0,0,0,0
				c0,0,0,0,0,0l1.5,0.5v0c0.4,0.1,0.7,0.2,1.1,0.4l5.7,1.8c0.5,0.1,1,0.3,1.4,0.4c0.8,0.2,1.6,0.5,2.4,0.7l1.8,0.4
				c0.8,0.2,1.6,0.3,2.3,0.4c1,0.2,2,0.4,3.1,0.6c1.3,0.3,2.4,0.5,3.6,0.6l0,0l1.4,0.2l1.4,0.2l0,0l2.1,0.3c1.5,0.2,3,0.4,4.6,0.6
				c0.5,0.1,1.1,0.2,1.6,0.3c0.7,0.1,1.4,0.3,2.2,0.4l1.8,0.2c0.8,0.1,1.6,0.2,2.3,0.2c1,0.1,2,0.2,3,0.3c1.7,0.3,3.3,0.5,4.8,0.7
				l0,0l3.6,0.5c1.5,0.2,3,0.4,4.5,0.7c0.6,0.1,1.2,0.3,1.8,0.4c0.6,0.2,1.2,0.3,1.8,0.4l1.8,0.3c0.7,0.2,1.4,0.3,2.2,0.4
				c1,0.2,2.1,0.4,3.1,0.6c1,0.3,1.9,0.5,2.8,0.8c0.2,0.1,0.4,0.1,0.6,0.2l0,0l1.8,0.5l1,0.3l0,0l3.3,0.9c1.1,0.3,2.3,0.7,3.4,1
				c0.5,0.2,1,0.4,1.5,0.6c0.7,0.3,1.4,0.6,2.1,0.8l1.8,0.6c0.6,0.2,1.1,0.4,1.7,0.5c1.2,0.4,2.4,0.7,3.6,1.3l3.3,1.4l0,0l1.3,0.5
				l1.4,0.6l0,0c0.8,0.3,1.5,0.6,2.3,1l0.9,0.4c1.2,0.5,2.3,1,3.5,1.5c0.5,0.3,1,0.5,1.6,0.8c0.7,0.4,1.3,0.7,2,1l3,1.3
				c1.4,0.6,2.6,1.2,4,1.9l0.8,0.5c0.8,0.5,1.6,0.9,2.3,1.3l0,0l1.3,0.7c0,0,0.1,0,0.1,0.1l0,0l3.5,1.9c1.4,0.8,2.9,1.6,4.2,2.5
				c0.5,0.3,1,0.7,1.6,1.1c0.6,0.4,1.2,0.8,1.8,1.2l1.7,1c0.5,0.3,1.1,0.7,1.6,1c1,0.6,2,1.2,3,1.9c0.9,0.7,1.8,1.3,2.7,1.9l0,0
				l8.3,5.5c0.4,0.3,0.8,0.6,1.2,1c0.6,0.5,1.2,0.9,1.8,1.4l1.6,1c0.6,0.4,1.1,0.7,1.7,1c1,0.6,1.9,1.2,2.9,1.9
				c0.9,0.7,1.8,1.3,2.7,1.9l0,0l1.1,0.7l1.3,0.8l0,0l6.1,3.9c0.4,0.3,0.9,0.6,1.3,0.9c0.6,0.5,1.2,0.9,1.9,1.3l0.8,0.5
				c-1.4-0.3-2.8-0.5-4.2-0.7c-0.4-0.1-0.8-0.1-1.1-0.2l-0.1-0.2c-0.2-0.8-1-1.3-3.6-2.5c-1.1-0.4-3.2-1.1-5.2-1.1
				c-0.6,0-1.8,0.4-2.1,1.4c-0.4-0.1-0.7-0.1-1.1-0.2c0-0.9-0.3-1.9-1.8-2.8l-0.3-0.2c-2.5-1.5-5-3-8.1-4c-0.4-0.1-0.7-0.3-1.1-0.5
				c-1.6-0.7-3.5-1-4.3,0.1c-0.4,0.6-0.6,1.2-0.4,1.8c0.3,1.1,1.3,1.6,2.3,2c-1.1-0.3-2-0.6-2.9-0.9l0,0l0,0l-1.3-0.4
				c-0.1,0-0.3-0.1-0.4-0.1l-1.1-0.4l0,0c-0.2-0.1-0.4-0.1-0.7-0.2c-0.5-0.2-1.3-0.4-2.1-0.6c-1.4-0.4-3-0.8-3.8-1.1l-3.5-1.3
				c-1.5-0.5-3.1-0.9-4.5-1.3c-0.9-0.3-1.9-0.5-2.8-0.8c-1.4-0.4-2.3-0.8-3.3-1.1l0,0l-1.3-0.4c-0.1,0-0.2-0.1-0.2-0.1l-1.2-0.4l0,0
				c-0.2-0.1-0.4-0.1-0.7-0.2c-0.7-0.2-1.7-0.4-2.7-0.7c-1.2-0.3-2.5-0.7-3.3-0.9l-3.5-1.2c-1.5-0.5-3.1-0.9-4.5-1.3
				c-1-0.2-1.9-0.5-2.8-0.8c-1.3-0.4-2.3-0.7-3.3-1.1l0,0l0,0l-1.3-0.4c-0.1,0-0.3-0.1-0.4-0.1l-1-0.3l0,0c-0.2-0.1-0.5-0.1-0.7-0.2
				c-0.6-0.2-1.4-0.4-2.3-0.6c-1.3-0.4-2.8-0.7-3.6-1l-3.5-1.2c-1.4-0.5-2.9-0.9-4.4-1.3c-1-0.3-2-0.5-2.9-0.8
				c-1.4-0.4-2.3-0.8-3.3-1.1l0,0l-1.4-0.5l-1.2-0.5l0,0l-0.7-0.2c-0.6-0.2-1.5-0.5-2.5-0.8c-1.3-0.4-2.7-0.8-3.5-1.1l-3.4-1.3
				c-1.2-0.5-2.5-0.9-3.7-1.3l-3.6-1.2c-1.3-0.5-2.3-0.8-3.2-1.2l0,0l-1.6-0.6l-1.1-0.4l0,0l-0.8-0.3c0,0-1.9-0.7-2.9-0.7l-0.4,0
				c-0.5,0.1-1.2,0.2-1.6,0.9l-0.4,0.7l0.2,0.6c0.1,0.3,0.2,0.6,1.5,1.6c0.4,0.3,1.1,0.6,2,1c0.4,0.1,0.8,0.3,1.2,0.5l2.4,1.1l0,0
				c0.3,0.1,0.6,0.3,0.9,0.4l5.7,2.2c0.5,0.2,1,0.4,1.5,0.6c0.7,0.3,1.4,0.6,2.1,0.9l1.8,0.6c0.7,0.2,1.3,0.4,2,0.6
				c1.1,0.3,2.2,0.7,3.3,1.1c1.2,0.5,2.3,0.9,3.3,1.2l0,0l2.1,0.7l0.6,0.2l0,0l6.7,2.2c0.5,0.2,0.9,0.3,1.4,0.5
				c0.8,0.3,1.5,0.6,2.3,0.8l1.8,0.5c0.7,0.2,1.3,0.4,2,0.6c1.1,0.3,2.2,0.6,3.3,1c1.2,0.4,2.3,0.8,3.4,1.1l0,0l9.4,2.8
				c0.5,0.2,1,0.4,1.5,0.5c0.7,0.3,1.4,0.5,2.1,0.7l1.8,0.5c0.7,0.2,1.3,0.4,1.9,0.5c1.1,0.3,2.2,0.6,3.3,1c1.2,0.4,2.3,0.8,3.3,1.1
				l0,0l9.4,2.8c0.5,0.2,1,0.4,1.5,0.6c0.7,0.3,1.4,0.5,2.1,0.8l1.8,0.5c0.7,0.2,1.3,0.4,2,0.5c1.1,0.3,2.2,0.6,3.3,1
				c1.2,0.4,2.3,0.8,3.4,1.1l0,0l1.1,0.3c0.1,0,0.2,0.1,0.3,0.1l1.4,0.4l0,0l6.8,1.9c0.5,0.1,1,0.3,1.5,0.5c0.7,0.2,1.4,0.5,2.2,0.7
				l1.9,0.4c0.7,0.2,1.3,0.3,2,0.4c1.1,0.2,2.2,0.4,3.3,0.8c1.2,0.4,2.3,0.6,3.4,0.9l0,0l0.8,0.2l0.3,0.1c-1.2-0.1-2.4,0-3.6,0.1
				c-0.3,0-0.6,0-0.9,0.1c-1,0-3.4,0.1-3.4,2.3c0,0.7,0.3,2.3,2.8,2.3l1.1,0c0.1,0,0.2,0,0.3,0c1.9,0.3,3.4,0.4,4.8,0.4h0
				c1.8,0,3.4-0.2,4.9-0.7l1.4-0.4l-0.5-1.4c-0.2-0.6-0.6-1.1-1-1.4l1.2,0.2c-0.1,0.3-0.1,0.7,0,1.1c0.2,0.4,0.6,1.4,1.5,1.7
				c0.8,0.3,1.7,0.4,2.7,0.4c1.6,0,3.5-0.4,4.6-1.5c0.1,0,0.2,0,0.3,0c1.1,0.1,2.2,0.3,3.4,0.5c0.4,0.1,0.7,0.1,1.1,0.2
				c-0.6,0.1-1.1,0.2-1.7,0.3c-1.2,0.2-2.4,0.5-3.6,0.6c-1.4,0.2-2.4,0.2-3.4,0.3L456,930.7z M220.1,733.3L220.1,733.3l1-1.6
				c0.4-0.5,0.9-1.3,1.4-2.1c0.5-0.7,1.1-1.3,1.3-1.6c0.2-0.2,0.4-0.4,0.5-0.5c0,0.1,0.1,0.1,0.1,0.3c0.1,0.2,0.1,0.4,0.2,0.6
				c0.1,0.3,0.1,0.5,0.2,0.8c0.1,0.3,0.2,0.7,0.4,1.1l0.1,0.3l0.5,1.7c0.2,0.5,0.4,1.4,0.6,2.2c0.1,0.6,0.3,1.2,0.4,1.8
				c0.1,0.3,0.2,0.6,0.2,0.8c0.2,0.8,0.2,1.7,0.3,2.6l0,0.5c0,0.4,0,0.8,0,1.1l-0.3,1.3c-0.4,1.2-0.9,2.3-1.4,3.2
				c-0.4,0.7-0.6,1-0.9,1.3l-0.2-0.1c-0.6-0.3-1.2-0.3-1.8-0.3l-0.7-0.3l-0.6-0.2c-0.2-0.1-0.4-0.2-0.7-0.3l-0.5-0.2
				c-0.8-0.3-1.1-0.6-1.4-0.8c-0.2-0.2-0.4-0.4-0.5-0.5l-0.4-0.6c-0.1-0.3-0.2-0.5-0.3-0.7l-0.1-0.3c0-0.1-0.1-0.3-0.1-0.4l0-0.9
				l0-0.7c0-0.3,0-0.5,0.1-0.8l0-0.3c0-0.4,0.1-0.7,0.2-1.2l0.1-0.3c0.1-0.3,0.2-0.7,0.3-1C218.8,735.4,219.4,734.5,220.1,733.3z
				 M193,678.9c0.4-0.9,0.8-1.5,1.4-2.2l0.3-0.3l0.1-0.1c0.3-0.3,0.5-0.6,1-0.9c0.2-0.2,0.8-0.8,1.6-1.2c0.6-0.4,1.2-0.6,1.6-0.7
				c0.4-0.1,0.8,0,1.3,0.1c0.4,0.2,0.7,0.4,1,0.8c0.3,0.4,0.5,1,0.7,1.8c0.2,0.8,0.3,1.4,0.4,2l0,0l0.2,1.2l0.2,1.6l0,0l0,0.2
				c0.1,0.5,0.2,1.1,0.2,1.7c0,0.8,0,1.4-0.1,1.7c-0.1,0.6-0.4,1.3-0.8,2c-0.3,0.6-0.7,1.2-1.2,1.7c-0.5,0.6-1.2,1-1.8,1.4
				c-0.3,0.2-0.6,0.3-0.8,0.4c0-0.3,0-0.6,0-0.9c-0.3-1.4-1.2-2.2-2.3-2.2l-0.6,0.1c-0.5,0.1-1,0.5-1.5,1l-0.2,0.2
				c-0.2-0.3-0.3-0.5-0.5-0.9c-0.4-0.8-0.5-1.3-0.6-1.7c-0.1-0.4-0.1-0.8-0.1-1.3l0.1-1.3c0-0.7,0.1-1.4,0.2-2.2
				C192.5,680.3,192.7,679.6,193,678.9z M144.2,690.7c0-0.1-0.1-0.1-0.2-0.2l-0.8-1l0,0c-0.1-0.1-0.2-0.2-0.4-0.4
				c-0.4-0.4-0.9-0.9-1.4-1.4c-0.9-0.9-2-1.9-2.5-2.6c-0.3-0.4-0.6-0.7-0.8-1.1c-0.3-0.4-0.6-0.8-0.9-1.2l-0.2-0.3
				c-0.9-1.2-1.8-2.2-2.7-3.2c-0.6-0.7-1.2-1.4-1.8-2c-0.8-1-1.3-1.7-1.7-2.4l0,0l-0.7-1.1l-0.8-1.3l-0.1,0.1
				c-0.1-0.2-0.2-0.3-0.3-0.4c-0.4-0.5-0.9-1.2-1.5-1.9c-0.8-0.9-1.6-1.9-2-2.5c-0.3-0.4-0.5-0.9-0.8-1.3c-0.2-0.4-0.4-0.8-0.6-1.1
				l-0.2-0.3c-0.7-1.3-1.6-2.4-2.4-3.5c-0.5-0.7-1.1-1.4-1.6-2.2c-0.6-1-1-1.7-1.4-2.5l0,0l-0.6-1.2l0,0c0,0,0,0,0,0l-0.7-1.3l0,0
				c-0.1-0.2-0.2-0.3-0.3-0.5c-0.3-0.5-0.8-1.3-1.4-2.1l-0.2-0.3c-0.6-0.8-1.1-1.7-1.4-2.2c-0.2-0.4-0.4-0.8-0.6-1.3
				c-0.2-0.5-0.4-0.9-0.6-1.3l-0.2-0.4c-0.5-1.1-1.1-2.2-1.7-3.1c-0.5-0.8-1.1-1.7-1.6-2.8c-0.5-1-0.8-1.8-1.1-2.6l0,0l-0.5-1.3
				c0-0.1-0.1-0.2-0.1-0.3l-0.4-1.1l0,0c-0.1-0.2-0.1-0.3-0.2-0.5c-0.4-0.8-1.8-3.5-2.3-4.9c-0.2-0.4-0.3-0.9-0.4-1.3
				c-0.1-0.5-0.3-1-0.5-1.4l-1.7-4.4c-0.3-0.8-0.7-1.6-1-2.4c-0.5-1.5-0.8-2.5-1-3.8l-0.1-0.3c-0.1-0.6-0.3-1.2-0.5-2
				c-0.2-0.6-0.4-1.4-0.7-2.3c-0.4-1.1-0.8-2.3-0.9-3.1c-0.1-0.4-0.2-0.9-0.2-1.3c0-0.5-0.1-1-0.2-1.5l0-0.4
				c-0.2-1.4-0.5-2.8-0.8-4.1c-0.2-0.9-0.4-1.8-0.6-2.7c-0.2-1.1-0.2-2-0.2-2.9l0,0l-0.1-1.3c0,0,0,0,0,0l-0.1-1.5l0,0
				c0-0.2,0-0.4,0-0.6c-0.1-0.6-0.2-1.5-0.3-2.4l-0.1-0.5c-0.1-0.8-0.2-1.6-0.2-2.2l0-0.3c0-0.5,0-1,0.1-1.5c0-0.5,0.1-0.9,0.1-1.4
				l0-0.4c0.1-1.2,0-2.3-0.1-3.6c-0.1-1.1,0-2.2,0-3.3c0-1.2,0.2-2,0.3-2.9l0,0l0.2-1.4c0-0.1,0-0.2,0-0.3l0.2-1.1l0,0
				c0-0.2,0-0.4,0.1-0.6c0-0.4,0.1-1,0.1-1.6c0.1-1.4,0.2-3.1,0.4-4.1l0.7-3.1c0.3-1.3,0.4-2.7,0.6-4.1c0.1-1,0.2-1.9,0.3-2.9
				c0.2-1.2,0.4-2,0.6-2.9l0.1,0l0.3-1.6l0.3-1.2l0,0l0.1-0.6c0.1-0.7,0.2-1.7,0.4-2.7c0.1-1.1,0.3-2.3,0.4-3l0.8-3.3
				c0.3-1.2,0.4-2.4,0.6-3.6l0.4-3.4c0.2-1,0.3-1.8,0.5-2.6c0-0.1,0-0.3,0.1-0.4l0,0l0.2-1.4c0,0,0,0,0,0l0,0l0.2-1.4l0,0
				c0-0.2,0.1-0.4,0.1-0.6c0.1-0.6,0.1-1.6,0.2-2.5c0.1-1,0.1-2.1,0.2-2.9c0.3,0.6,0.5,1.1,0.8,1.7c0.4,0.7,0.7,1.5,1.1,2.3
				c0.6,1.4,1.2,2.5,1.8,3.7l0.9,1.8l0,0c0.3,0.5,0.6,1,0.9,1.6l2.5,4.2c0.2,0.4,0.5,0.8,0.7,1.2c0.3,0.7,0.7,1.3,1.1,2l1,1.4
				c0.4,0.6,0.9,1.2,1.3,1.8c0.6,0.8,1.2,1.6,1.7,2.4c0.6,0.9,1.2,1.8,1.8,2.6l0,0l1,1.4l0.7,0.9l0,0l3.9,5.2
				c0.3,0.4,0.5,0.8,0.8,1.3c0.4,0.6,0.7,1.2,1.2,1.8l1.1,1.3c0.4,0.6,0.8,1.1,1.3,1.6c0.6,0.8,1.2,1.5,1.8,2.4
				c0.9,1.4,1.7,2.6,2.5,3.8l0,0l2,2.9c0.8,1.1,1.5,2.3,2.2,3.5c0.3,0.5,0.5,1,0.7,1.5c0.3,0.5,0.5,1.1,0.8,1.6l0.9,1.4
				c0.3,0.5,0.5,1,0.8,1.4c0.6,1,1.1,1.9,1.5,2.9c0.3,0.9,0.7,1.7,1.1,2.5c0.1,0.3,0.3,0.6,0.4,0.9l0.7,1.7l0.1,0.3l0,0l1.2,2.8
				c0.4,1,0.8,2,1.1,2.9c0.1,0.4,0.2,0.9,0.4,1.3c0.2,0.7,0.3,1.4,0.6,2.1l0.6,1.6c0.2,0.5,0.4,1,0.5,1.5c0.4,1.1,0.7,2.1,1,3.2
				l0.7,2.9l0,0l0.4,1.4c0,0,0,0.1,0,0.1l0.3,1.2l0,0c0.2,0.7,0.3,1.3,0.5,2l0.2,0.9c0.2,1.1,0.5,2.1,0.7,3.2c0.1,0.5,0.1,1,0.2,1.5
				c0.1,0.7,0.1,1.4,0.3,2.1l0.6,2.9c0.3,1.3,0.5,2.5,0.6,3.9l0.1,0.8c0.1,0.8,0.2,1.6,0.2,2.3l0,0l0.5,5c0.1,1.4,0.2,2.8,0.3,4.3
				c0,0.5,0,1.1,0,1.6c0,0.7-0.1,1.3,0,2l0.1,1.7c0,0.6,0.1,1.2,0.1,1.8c0.1,1.1,0.2,2.2,0.1,3.3c-0.1,1.1-0.1,2.2-0.1,3.2h0l0,1.2
				l0,1.6h0l0,2.1l-0.1,4.3c0,0.5-0.1,1-0.1,1.4c-0.1,0.7-0.2,1.4-0.2,2.2l0,1.7c0,0.7,0,1.3,0,1.9c0,1,0,2-0.1,3.1
				c-0.1,1.1-0.2,2.2-0.2,3.2l0,0l-0.1,1.6l0,1.2l0,0l-0.1,3c0,1.1-0.1,2.3-0.2,3.4c0,0.5-0.1,1-0.2,1.5c-0.1,0.7-0.2,1.4-0.2,2.2
				l0,1.8c0,0,0,0.1,0,0.1l-0.2-0.5c-0.5-1.2-1.1-2.4-1.7-3.6c-0.2-0.3-0.3-0.7-0.5-1l0.1-0.1c0.6-0.6,0.7-1.7,0.3-4.2
				c-0.2-0.8-0.8-2.9-2-4.5c-0.4-0.5-1.2-0.9-1.8-0.9l-0.4,0l-0.3,0.1c0,0,0,0,0,0c0,0,0,0,0-0.1c-0.1-0.2-0.2-0.4-0.3-0.6
				c0.8-0.5,1.6-1.3,1.5-3c0-2.6-0.1-5.5-1-8.6c-0.1-0.3-0.2-0.6-0.2-1c-0.2-1.1-0.6-3.2-2.8-3.2c0,0,0,0,0,0
				c-0.9,0.1-1.5,0.5-1.8,0.9c-0.7,0.9-0.5,2.1-0.3,3c0.1,0.3,0.1,0.6,0.1,0.9c0,0.1,0,0.2,0,0.2c-0.1-0.3-0.3-0.6-0.4-0.9
				c-0.4-1.1-0.7-1.9-1-2.7l0,0l-0.4-1.3c0-0.1-0.1-0.3-0.1-0.4l-0.3-1l0,0c-0.1-0.2-0.1-0.3-0.2-0.5c-0.2-0.5-0.5-1.3-0.9-2.1
				c-0.5-1.1-1-2.3-1.3-3l-1-3.1c-0.4-1.4-1-2.7-1.6-4c-0.4-0.8-0.7-1.6-1-2.4c-0.4-1.1-0.7-1.9-0.9-2.8l0,0L133,637
				c0-0.1-0.1-0.3-0.1-0.4l-0.3-1l0,0c-0.1-0.2-0.1-0.3-0.2-0.5c-0.2-0.6-0.6-1.4-1-2.3c-0.5-1.1-1-2.2-1.2-2.9l-1-3.2
				c-0.5-1.4-1-2.7-1.6-4c-0.4-0.8-0.7-1.6-1-2.4c-0.4-1.1-0.7-1.9-0.9-2.7l0,0l-0.4-1.3c0,0,0-0.1,0-0.1l-0.4-1.3l0,0
				c-0.1-0.2-0.1-0.3-0.2-0.5c-0.2-0.6-0.5-1.3-0.9-2.2c-0.5-1.1-1-2.3-1.2-3l-1-3.2c-0.4-1.3-0.9-2.6-1.5-3.8
				c-0.4-0.9-0.7-1.7-1-2.6c-0.4-1.2-0.7-2.1-1-3l0,0l0,0l-0.4-1.3l-0.4-1.2l0,0l-0.2-0.5c-0.2-0.6-0.5-1.4-0.9-2.2
				c-0.4-1.1-0.9-2.3-1.2-3l-0.9-3.2c-0.3-1.1-0.8-2.2-1.2-3.3l-1.2-3.2c-0.4-1.1-0.7-1.9-0.9-2.7l0,0l-0.6-1.8l-0.3-0.9l0,0
				c-0.1-0.3-0.2-0.5-0.2-0.7c-0.2-0.6-0.9-2.2-1.7-2.8c-0.4-0.3-0.8-0.6-1.4-0.6l-0.9,0.1l-0.4,0.5c-0.2,0.2-0.5,0.5-0.6,2.1
				c0,0.2,0,0.8,0.5,2.1c0.1,0.3,0.2,0.6,0.3,0.9l0.1,0.4l0.6,2.1l0,0l1.8,6c0.1,0.5,0.3,0.9,0.4,1.4c0.2,0.7,0.3,1.3,0.6,2l0.6,1.6
				c0.2,0.6,0.4,1.3,0.7,1.9c0.3,0.9,0.7,1.8,1,2.8c0.3,1,0.6,2,0.9,2.9l0,0l0.6,1.6l0.4,1.1l0,0l2.1,5.8c0.2,0.5,0.3,0.9,0.4,1.4
				c0.2,0.7,0.4,1.3,0.6,2l0.6,1.6c0.2,0.6,0.5,1.2,0.7,1.8c0.4,0.9,0.7,1.8,1,2.8c0.3,1,0.6,1.9,1,2.9l0,0l0.7,1.9l0.3,0.7l0,0
				l2.2,5.8c0.2,0.4,0.3,0.9,0.4,1.3c0.2,0.7,0.4,1.3,0.6,2l0.7,1.6c0.2,0.6,0.5,1.1,0.7,1.7c0.4,0.9,0.8,1.8,1.1,2.9
				c0.3,1,0.7,1.9,1,2.8l0,0l0.5,1.3c0,0,0,0,0,0.1l0.5,1.3l0,0l1,2.6c0.4,1,0.8,2.1,1.2,3.1c0.2,0.4,0.3,0.9,0.4,1.4
				c0.2,0.7,0.4,1.3,0.6,2l0.7,1.6c0.2,0.6,0.5,1.1,0.7,1.7c0.4,0.9,0.8,1.8,1.1,2.8c0.3,1.1,0.7,2.1,1.1,3l0,0l0.7,1.6l0.3,0.8l0,0
				l2.3,5.7c0.2,0.4,0.3,0.9,0.4,1.3c0.2,0.7,0.4,1.3,0.7,2l0.7,1.5c0.3,0.6,0.5,1.2,0.8,1.7c0.4,0.9,0.8,1.8,1.2,2.8
				c0.4,1,0.7,1.9,1.1,2.8l0,0l1.4,3.3c-1.1-1.9-2.2-3.5-3.5-4.8c-0.2-0.2-0.3-0.3-0.5-0.5c-0.6-0.7-1.4-1.6-2.6-1.6
				c-0.4,0-0.8,0.1-1.2,0.4c-0.8,0.5-1,1.2-1.1,1.6c-0.1,1.1,0.5,1.8,1,2.4c0.1,0.2,0.4,0.4,0.4,0.5c1.5,3.1,3.4,5.4,5.8,7l1,0.7
				l0.8-0.9c0.5-0.6,1-1.4,0.8-2.6l0.7,1.5c-0.3,0.1-0.7,0.2-1,0.6c-0.4,0.5-1,1.4-0.7,2.2c0.5,2.2,2.8,4.7,5.1,4.9
				c0.1,0.1,0.1,0.2,0.2,0.4c0.4,0.8,0.8,1.6,1.2,2.5c0.2,0.5,0.4,1,0.6,1.5c-0.7-0.7-1.4-1.3-2.2-1.9c-0.8-0.6-1.5-1.3-2.2-2
				c-0.8-0.8-1.4-1.5-1.9-2.2l0,0L144.2,690.7z M167.2,382.6c0.4,0,0.8-0.1,1.2-0.1l0.5,0c0.5,0,1.3,0.1,2,0.3
				c5.1,1.6,0,12.9-2.2,15.3c-1.2,1.3-11.1,7.1-10.8,3.3c0-0.7-0.2-1.4-0.5-2.1c0-0.1,0-0.2-0.1-0.2l-0.1-0.7l-0.1-0.9
				c0-0.4,0-0.8,0-1.3l0-0.7c0-0.7,0-1.7,0.2-2.8c0.1-0.4,0.1-0.9,0.2-1.4l0.3-1.1c0.2-0.4,0.4-0.8,0.5-1.1l1.9-2.8
				c0.2-0.3,0.4-0.5,0.6-0.7l0.4-0.4c0.3-0.3,0.6-0.5,0.9-0.8l0.6-0.5c0.3-0.2,0.5-0.4,0.8-0.5C165,382.8,165.9,382.7,167.2,382.6z
				 M185.4,298.5l0.4-0.1l0.1,0c0.4-0.1,0.7-0.2,1.3-0.2c0.4-0.1,1.1-0.1,1.8,0c0.7,0.1,1.2,0.3,1.4,0.4c0.3,0.2,0.6,0.4,0.8,0.9
				c0.2,0.5,0.3,0.9,0.2,1.4c-0.1,0.6-0.3,1.3-0.6,2.2c-0.4,0.8-0.7,1.4-1,2l0,0l-0.4,0.7c0,0,0,0.1-0.1,0.1l-1,1.7l0,0l-1.2,2.1
				c-0.5,0.7-0.9,1.3-1.2,1.5c-0.4,0.4-1,0.8-1.8,1.3c-0.6,0.4-1.2,0.6-1.9,0.8c-0.7,0.2-1.5,0.2-2.1,0.1c-0.3-0.1-0.6-0.1-0.8-0.2
				c0.3-0.3,0.5-0.6,0.7-1.1c0.4-0.9,0.5-1.7,0.2-2.4c-0.2-0.5-0.6-0.9-1.1-1.2c-0.5-0.2-1-0.3-1.9-0.1l-0.1,0
				c0-0.4,0.1-0.7,0.2-1.2c0.2-1,0.4-1.6,0.6-1.9c0.2-0.4,0.5-0.8,0.8-1.2l0.9-1.2c0.5-0.6,0.9-1.2,1.5-1.7c0.6-0.7,1.2-1.2,1.8-1.6
				C184,298.8,184.6,298.7,185.4,298.5z M140.5,279.8l0.1-1.2c0,0,0-0.1,0-0.1l0.1-1.6l-0.1,0c0-0.2,0-0.3,0-0.5
				c0-0.6,0-1.6-0.1-2.6c-0.1-1.3-0.1-2.7-0.1-3.5c0-0.5,0.1-1.1,0.1-1.6c0.1-0.5,0.1-1.1,0.1-1.6l0-0.4c0.2-1.6,0.2-3.1,0.2-4.6
				c0-1,0-2,0.1-3c0.1-1.5,0.2-2.5,0.4-3.5l0,0l0.2-1.2l0.3-1.6l-0.1,0l0.1-0.5c0.1-0.7,0.2-1.6,0.3-2.6c0.1-1.3,0.2-2.7,0.4-3.6
				c0.1-0.6,0.2-1.2,0.4-1.8c0.1-0.5,0.2-0.9,0.3-1.3l0.1-0.4c0.3-1.4,0.5-2.7,0.7-4.1c0.2-1.2,0.3-2.3,0.6-3.5
				c0.3-1.3,0.6-2.3,0.9-3.3c0-0.1,0-0.1,0.1-0.2l0,0l0.4-1.2c0,0,0,0,0,0l0.5-1.6l0,0c0.1-0.2,0.1-0.4,0.2-0.7l0.6-3.1
				c0.2-1.2,0.6-2.3,0.8-2.9l1.4-3.5c0.5-1.2,0.8-2.4,1.2-3.9c0.3-1.1,0.6-2.4,1.1-3.6c0.5-1.3,1-2.3,1.5-3.2l0-0.1l0,0l0.5-1.2
				c0.1-0.1,0.1-0.3,0.2-0.4l0.5-1.1l0,0c0.1-0.2,0.2-0.5,0.3-0.8c0.6-1.5,1.7-4.5,2.3-5.8l1.7-2.9l2.4-4.7c0.4-0.9,0.9-1.8,1.4-2.7
				c0.8-1.5,1.4-2.4,2.2-3.5l0.4-0.6l0,0c0.4-0.6,0.8-1.2,1.3-1.9c0.4-0.6,0.9-1.4,1.4-2.4c0.7-1.2,1.4-2.4,1.9-3.1
				c0.3-0.4,0.6-0.8,0.9-1.2l1.4-1.6c1.1-1.2,2-2.6,2.9-3.9c0.6-0.8,1.2-1.6,1.8-2.4c0.8-1,1.5-1.7,2.3-2.4c0,0,0,0,0,0l0,0l0.4-0.5
				c0.2-0.2,0.4-0.4,0.6-0.6l1-1l-0.1-0.1l2.8-3.1c0.6-0.7,1.2-1.3,1.8-1.8l3.1-2.6c0.7-0.6,1.4-1.3,2.1-1.9l0.8-0.8
				c0.9-0.9,1.8-1.7,2.8-2.5c1-0.8,1.8-1.3,2.5-1.9l0,0l1.3-0.9c0.1,0,0.1-0.1,0.2-0.1l0.9-0.6l0,0c0.2-0.2,0.5-0.4,0.8-0.6l0.7-0.5
				c1.3-1,3.2-2.5,4.1-3.2l3.1-1.9c1.4-0.8,2.6-1.8,3.9-2.7c0.8-0.6,1.6-1.1,2.3-1.7c1.1-0.7,1.9-1.2,2.7-1.6l0,0l1.3-0.7
				c0,0,0,0,0,0l1.1-0.6l0,0c0.3-0.2,0.5-0.3,0.8-0.5c0.6-0.4,1.5-1,2.4-1.7c1-0.7,2-1.4,2.7-1.8l3.1-1.8c1.1-0.6,2.2-1.4,3.3-2.1
				l3-2.2l2.8-1.8l0,0l1.3-0.9l1.1-0.7l0,0l0.7-0.5c0.7-0.5,1.7-1.3,2.6-2c0.6-0.5,1.2-1,1.8-1.4c-0.2,0.4-0.4,0.8-0.6,1.2
				c-0.4,0.9-0.8,1.7-1.4,2.7c-0.8,1.5-1.4,2.8-2,4.1l-0.2,0.5l0,0c0,0,0,0,0,0l-0.7,1.4l0,0c-0.1,0.3-0.3,0.7-0.4,1l-2.3,5.7
				c-0.2,0.5-0.4,0.9-0.6,1.4c-0.4,0.7-0.7,1.5-1,2.3l-0.6,1.8c-0.3,0.8-0.5,1.5-0.7,2.2c-0.3,1-0.6,2-1,3.1
				c-0.5,1.2-0.9,2.4-1.3,3.5l0,0l-0.4,1.2c0,0,0,0,0,0l-0.5,1.5l0,0l-2.1,6.6c-0.2,0.5-0.4,1-0.6,1.5c-0.3,0.7-0.6,1.4-0.8,2.1
				l-0.5,1.8c-0.3,0.8-0.5,1.6-0.7,2.4c-0.3,0.9-0.5,1.9-0.9,2.9c-0.6,1.6-1.1,3.1-1.6,4.6l-1.2,3.6c-0.5,1.4-1,2.9-1.6,4.3
				c-0.2,0.6-0.5,1.1-0.8,1.7c-0.3,0.6-0.6,1.1-0.8,1.7l-0.6,1.7c-0.2,0.5-0.5,1.1-0.7,1.6c-0.4,1.1-0.9,2.2-1.5,3.3
				c-0.5,0.9-0.9,1.8-1.3,2.6c-0.1,0.3-0.3,0.5-0.4,0.8l-4.3,8.2c-0.3,0.4-0.6,0.9-0.8,1.3c-0.4,0.6-0.8,1.2-1.2,1.9l-0.9,1.6
				c-0.3,0.5-0.6,1-0.8,1.5c-0.6,1.1-1.1,2.1-1.9,3.1c-0.7,0.9-1.2,1.8-1.8,2.7l-0.1,0.1l0,0l-0.5,0.8l-1,1.5l0,0
				c-0.4,0.6-0.8,1.3-1.3,1.9l-0.5,0.8c-0.7,1-1.3,2-2.1,2.9l-0.6,0.8c-0.6,0.7-1.1,1.4-1.7,2.2l-1.7,2.6c-0.8,1.1-1.5,2.2-2.4,3.3
				c-1.2,1.4-2.2,2.6-3,3.8l0,0l-2.2,2.9c-0.9,1.2-1.8,2.4-2.8,3.5c-0.3,0.4-0.7,0.7-1,1.1c-0.5,0.6-1.1,1.1-1.5,1.7l-1.1,1.5
				c-0.4,0.5-0.8,1-1.1,1.5c-0.7,0.9-1.4,1.8-2.2,2.7c-0.8,0.9-1.5,1.7-2.2,2.5l0,0l-1.1,1.4l-0.7,0.8l0,0l-2,2.5
				c-0.8,1-1.6,1.9-2.4,2.8c-0.3,0.4-0.7,0.7-1.1,1.1c-0.5,0.5-1.1,1.1-1.6,1.6c-0.2,0.3-0.5,0.7-0.8,1l-0.4,0.5
				c-0.4,0.5-0.8,1-1.2,1.5c-0.7,0.9-1.4,1.8-2.2,2.7c-1.1,1.2-2,2.3-3,3.4l-0.3,0.3c0,0,0,0,0,0.1l-0.8,1l0,0c-0.5,0.6-1,1.3-1.6,2
				l-0.7,0.8c-0.7,0.9-1.5,1.9-2.2,2.8c-0.3,0.4-0.7,0.8-1.1,1.2c-0.5,0.6-1,1.1-1.5,1.7l-0.8,1.1l0,0c0.5-1.5,0.8-3,1.2-4.5
				c0.1-0.3,0.2-0.7,0.2-1l0.2,0c0.8-0.1,1.4-0.7,2.9-3.4c0.7-1.6,1.4-3.4,1.5-5c0.1-0.7-0.3-1.9-1.3-2.2c0-0.1,0-0.1,0-0.2
				c0.1-0.3,0.2-0.6,0.3-0.9c0.1,0,0.3,0.1,0.4,0.1c1.5,0,2.4-1.2,2.7-1.6l0.2-0.3c1.7-2.3,3.4-4.6,4.7-7.5c0.1-0.3,0.3-0.7,0.5-1
				c0.6-1.2,1.7-3.1,0.2-4.4c-0.6-0.5-1.1-0.6-1.5-0.6c-1.4,0-2.1,1.3-2.7,2.3c-0.1,0.2-0.2,0.4-0.3,0.5c0.1-0.2,0.1-0.3,0.2-0.5
				c0.5-1.3,0.8-2.2,1.2-3.1l0,0l0.7-1.8l0.3-0.8l0,0l0.3-0.6c0.2-0.6,0.6-1.5,0.9-2.5c0.4-1.2,0.9-2.5,1.2-3.3l1.5-3.3
				c0.6-1.3,1-2.5,1.5-3.8c0.4-1.1,0.8-2.1,1.3-3.2c0.5-1.3,1-2.2,1.5-3l0,0l0.6-1.2c0.1-0.1,0.1-0.3,0.2-0.4l0.5-1l0,0
				c0.1-0.2,0.2-0.4,0.3-0.7c0.4-1,1.8-4.2,2.4-5.6l1.7-3.2c0.6-1.2,1.2-2.4,1.7-3.6c0.5-1.1,0.9-2.2,1.5-3.2c0.6-1.2,1.1-2.1,1.6-3
				l0,0l0.7-1.2c0.1-0.1,0.1-0.2,0.2-0.3l0.6-1l0,0c0.1-0.2,0.2-0.4,0.3-0.7c0.2-0.4,0.5-1,0.8-1.6c0.6-1.3,1.4-3,1.9-3.9l1.9-3.1
				c0.8-1.3,1.5-2.7,2.2-4.1c0.4-0.9,0.9-1.8,1.4-2.7c0.7-1.2,1.3-2.1,1.8-2.9l0,0l0.8-1.3l0.7-1.1l0,0l0.4-0.6
				c0.3-0.6,0.8-1.4,1.2-2.3c0.6-1.2,1.3-2.4,1.7-3.1l2-3c0.7-1.1,1.4-2.2,2-3.3l1.9-3.3c0.7-1.2,1.2-2,1.8-2.9l0,0l0.7-1l0.9-1.4
				l0,0c0,0,0-0.1,0.1-0.1c0.2-0.2,0.3-0.5,0.4-0.7c0.2-0.3,1.3-2.1,1.3-3.1c0-0.5,0-1.2-0.5-1.7l-0.7-0.5l-0.6,0
				c-0.3,0-0.7,0-1.9,1.1c-0.1,0.1-0.6,0.5-1.4,1.8c-0.2,0.4-0.4,0.7-0.7,1l-0.6,0.8l-0.1,0.1c0,0,0,0,0,0l-0.9,1.2l0,0
				c-0.4,0.6-0.9,1.3-1.3,1.9l-2.6,3.9c-0.3,0.5-0.6,0.9-0.9,1.3c-0.4,0.6-0.9,1.2-1.3,1.8l-1,1.6c-0.5,0.8-0.9,1.5-1.4,2.3
				c-0.5,0.8-0.9,1.6-1.5,2.5c-0.7,1-1.3,2-1.9,3l0,0l-0.5,0.9c-0.1,0.1-0.1,0.2-0.2,0.3l-0.8,1.3l0,0l-3.5,6.1
				c-0.3,0.5-0.6,0.9-0.9,1.4c-0.4,0.6-0.8,1.3-1.2,1.9l-3.5,6.6c-0.6,1.1-1.2,2.1-1.7,3.1l0,0l-0.7,1.4l-0.6,1.1l0,0l-3.2,6.2
				c-0.2,0.5-0.5,0.9-0.8,1.4c-0.4,0.7-0.7,1.3-1.1,2l-0.8,1.7c-0.3,0.6-0.6,1.2-0.8,1.9c-0.4,1-0.9,2-1.5,3.1
				c-0.6,1.1-1.1,2.2-1.6,3.2l0,0l-0.4,1l-0.7,1.6l0,0l-0.6,1.4l-2.7,5.9c-0.4,0.8-0.8,1.7-1.2,2.6l-0.6,1.8
				c-0.3,0.6-0.5,1.3-0.7,1.9c-0.4,1-0.8,2.1-1.3,3.2l-0.2,0.4c-0.4,1-0.8,1.9-1.2,2.8l0,0l-3.3,9.2c-0.2,0.5-0.4,1-0.6,1.4
				c-0.3,0.7-0.6,1.4-0.9,2.2l-0.5,1.8c-0.2,0.6-0.4,1.3-0.6,1.9c-0.3,1.1-0.6,2.1-1,3.3c-0.4,1.2-0.8,2.2-1.2,3.3l0,0l-0.4,1.2
				c0,0,0,0.1,0,0.1l-0.2,0.7c0.2-1.5,0.4-3,0.3-4.6c0-0.2,0-0.5,0-0.8c0-1,0.1-3.4-2.3-3.6c-2.3,0-2.4,2.4-2.4,3.2
				c0,0.3,0,0.6-0.1,0.7c-1,3.5-1.1,6.8-0.4,9.8l0.3,1.4l1.4-0.3c0.8-0.2,1.4-0.6,1.8-1.2c-0.1,0.5-0.3,1-0.4,1.5
				c-0.2-0.1-0.5-0.2-0.7-0.2l-0.4,0.1c-0.4,0.1-1.5,0.5-1.9,1.3c-1,2.1-0.9,5.3,0.1,6.9c0.1,0.2,0.2,0.3,0.4,0.5c0,0.1,0,0.1,0,0.2
				c-0.2,1.1-0.4,2.2-0.8,3.3c-0.1,0.5-0.3,0.9-0.4,1.4c-0.1-0.9-0.2-1.7-0.3-2.5c-0.1-1.1-0.3-2.1-0.3-3.3
				C140.4,281.9,140.4,280.9,140.5,279.8L140.5,279.8z M88.6,357.1c-0.3-0.2-0.6-0.4-0.9-0.7c-0.4-0.3-0.8-0.6-1.3-0.9
				c-0.8-0.6-1.4-1.2-1.8-1.6c-0.4-0.4-0.6-0.8-0.9-1.3c-0.2-0.3-0.4-0.6-0.7-1.1c-0.3-0.5-0.6-1-0.9-1.4l-0.8-1.4
				c-0.5-0.9-1-1.9-1.3-3c-0.2-0.7-0.3-1.3-0.4-2l-0.1-0.3c-0.1-0.3-0.1-0.7-0.1-1l0,0l-0.2-1.2c-0.1-0.6-0.1-1.2-0.1-2.2l-0.2-3.3
				c-0.1-1.2-0.1-2.4,0-3.2c0-0.7,0.1-1.3,0.2-2c0.1-0.5,0.1-1,0.2-1.4l0.4-4.7c0.1-1.4,0.3-2.9,0.5-4c0.2-1.4,0.5-2.4,0.8-3.5
				c0.1-0.5,0.3-1,0.4-1.5l0-0.1c0.2-0.7,0.4-1.4,0.6-2.4c0.2-0.9,0.5-2.3,0.8-3.7c-0.1,2.3-0.1,2.7-0.1,4.5l0,1.5
				c0,0.7,0.1,1.6,0.8,2.3c-0.1,0.1-0.1,0.1-0.2,0.2c-0.3,0.4-0.5,1.5-0.5,1.7l0,1.2l-0.1,0l0,1.2c0,0.1,0,0.2,0,0.3l-0.1,1.4l0.1,0
				c0,0.3,0,0.6,0,0.9c0.2,1.5,1,2.4,2,2.4l0.6-0.1c0.8-0.3,1.6-0.7,1.9-1.5c0.3-0.7,0.3-1.6,0.3-2.7l0-0.4l0-0.6l0-2.5
				c0,0,0-1.1-0.5-1.7c0,0-0.1-0.1-0.1-0.1c0.5-0.7,0.6-1.5,0.7-2c0.2-1.4,0.1-2.7,0-4l-0.1-1c0-0.7-0.1-1.1,0.1-1.7l0.1-0.3
				c0.4-1.8,0.7-3.3,0.5-5.2l-0.3-0.8l-0.6-0.4c-0.2-0.2-0.6-0.4-1-0.6c0.6-0.1,1-0.6,1.2-0.9c0-0.1,0.1-0.2,0.2-0.3
				c1.1-1.2,1.1-2.9,1-4.3l-0.1-0.4c-0.2-0.5-0.5-0.9-0.8-1.2c0.4-1.1,0.8-1.9,1.2-2.7c0,0,0-0.1,0.1-0.1l0,0l0-0.1l0,3.5l0,0l0,0.6
				l0,2.4l0.1,0c0,0.2,0,0.4,0.1,0.6l0.1,0.6c0.1,1,0.4,2.6,0.7,4.1l0.8,3.8l0.7,4.6c0.3,1.7,0.7,3.2,1.1,4.8c0.4,1.4,0.7,2.9,1,4.3
				c0.4,2.1,0.4,3.5,0.5,5.1l0,0.6l0,0.1c0,0.4,0,0.8,0.1,1.2l0,0.5l0,0c0,0.3,0,0.7,0.1,1c0.1,0.9,0.2,2.4,0.3,3.8
				c0.1,1.6,0.1,3,0.1,3.8c-0.1,1.1-0.2,2.1-0.3,3.2l-0.2,1.3c-0.1,1.2-0.2,2.3-0.3,3.5c-0.2,2-0.3,4-0.7,5.9
				c-0.3,1.8-0.7,3-1.1,4.2l0,0l-0.3,0.9c0,0.1,0,0.1-0.1,0.2l-0.2-0.2l-0.2,1.6l-0.1,0.2l0,0l0,0l-0.1,0.3l-0.1,0.2l-0.7,0l0,0
				c-0.1,0-0.2,0-0.3,0l-0.1,0L88.6,357.1L88.6,357.1L88.6,357.1z M148,781.4c-0.5,0-1,0.1-1.8,0.1c-1,0-2,0-2.7-0.1
				c-0.6-0.1-1.2-0.3-1.9-0.5c-0.4-0.1-0.8-0.3-1.1-0.3l-0.6,1.3l0,0l0.2-1.4c-0.7-0.3-1.3-0.5-1.9-0.7l-1.8-0.7
				c-1-0.4-2.1-0.9-3.1-1.7c-0.7-0.4-1.2-1-1.8-1.5l-0.3-0.2c-0.4-0.3-0.7-0.7-1-1l-4.5-4.8c-0.8-0.9-1.5-1.8-1.9-2.3
				c-0.4-0.5-0.7-1-1-1.6c-0.2-0.4-0.5-0.8-0.7-1.1l-0.2-0.4c-0.7-1.1-1.4-2.2-2.2-3.3c-0.8-1-1.4-2.2-2-3.1c-0.7-1.2-1-2.1-1.4-3
				c-0.1-0.4-0.3-0.8-0.5-1.2l-0.1-0.1c-0.2-0.6-0.5-1.3-0.8-2.1l-0.6-1.3c-0.4-0.8-0.8-1.8-1.2-2.7l1.7,2.3
				c0.6,0.8,0.9,1.2,2.3,2.9c0.4,0.4,1,1,1.9,1.1c0,0,0,0,0,0c0,0.7,0.6,1.8,0.7,1.8l0.6,0.8l0,0.1l0.8,0.9c0,0,0,0,0,0l1,1.2l0-0.1
				c0.2,0.2,0.4,0.5,0.6,0.6c0.2,0.2,1,0.9,1.9,0.9c0.6,0,1.1-0.3,1.5-0.8c0.5-0.7,0.9-1.5,0.7-2.4c-0.2-0.8-0.8-1.4-1.4-2.2
				l-0.5-0.6l-1.6-1.9c0,0-0.7-0.8-1.5-0.9l0,0c0-0.8-0.4-1.4-0.6-1.8c-0.7-1.2-1.6-2.1-2.5-3l-0.7-0.7c-0.4-0.4-0.7-0.7-0.9-1.1
				l-0.1-0.3c-0.7-1.5-1.3-2.8-2.7-4.1l-0.8-0.4l-0.7,0.1c-0.2,0-0.5,0-0.8,0.1c0.1-0.3,0.2-0.6,0.2-1l0-0.3
				c0.2-1.6-0.8-2.9-1.8-3.9l-0.4-0.3c-0.5-0.2-0.9-0.3-1.4-0.4c-0.3-0.9-0.5-1.7-0.6-2.5c0,0,0,0,0-0.1l0,0l-0.1-0.5l2.3,2.6l0,0
				l0.8,0.9l1.1,1.3l0.1-0.1c0.3,0.3,0.5,0.5,0.8,0.8c0.7,0.6,1.9,1.6,3.1,2.5l3,2.3c0.4,0.4,0.9,0.7,1.3,1.1c0.6,0.5,1.1,1,1.7,1.4
				l0.4,0.3c1.2,0.9,2.4,1.8,3.6,2.6c1.2,0.8,2.4,1.7,3.6,2.6c1.6,1.3,2.5,2.2,3.5,3.3l1.5,1.6l0,0l3.2,3.3c1,1.1,1.8,2.1,2.3,2.6
				c0.6,0.8,1.1,1.7,1.6,2.5l0.7,1c0.5,0.8,1,1.6,1.6,2.3c1.3,1.9,2.7,4,3.9,6.1c1.5,2.4,2.2,3.9,3.1,5.8l0,0l-0.2,0l1.1,1.7
				l0.1,0.2l0,0.5l-0.5,0.6c0,0-0.1,0.1-0.1,0.1l-0.1,0.1l-2.3-0.1l0.1,0.1C148.7,781.4,148.3,781.4,148,781.4z M577.6,934.8
				L577.6,934.8L577.6,934.8L577.6,934.8z M507.1,970.3L507.1,970.3l1.5-0.3l1.4-0.2l0,0l1-0.2c0.9-0.2,2.4-0.5,3.8-0.7
				c1.4-0.2,2.9-0.4,3.8-0.5c1.1-0.1,2.2-0.1,3.3-0.1l1.3,0c1.2,0,2.4,0,3.6-0.1c1.9-0.1,3.9-0.1,5.8,0c2.3,0.2,3.4,0.4,4.9,0.7
				l-0.1,0.2l1.7,0.2l0.2,0l0,0l0.1,0l0.2,0.1l0.1,0.7c0,0.1,0,0.1,0,0.2l0,0.1l-1,1.5l0.1,0c-0.2,0.3-0.3,0.6-0.5,0.9
				c-0.2,0.4-0.4,0.8-0.7,1.3c-0.5,0.8-0.9,1.5-1.2,1.9c0,0-0.1,0.1-0.1,0.1c-2.5,0.1-5,0.2-7.5,0.3c0.7-0.3,1.4-0.6,2-1l1-0.7
				c0.1,0,0.2,0.1,0.4,0.1c0.3,0.1,0.7,0.1,1,0.1c1.4,0,3.3-0.5,4.1-1.8c0.5-0.8,0.5-1.7,0.1-2.5l-0.2-0.3c-0.6-0.7-1.7-0.8-3.1-0.5
				c-0.6,0.1-2.2,0.5-3.2,1.4c-0.3,0.3-0.5,0.8-0.6,1.3c-0.5-0.3-1.1-0.5-1.8-0.5c0,0,0,0,0,0c-1.8,0.1-3.9,0.2-5.9,1.1
				c-0.1,0.1-0.3,0.1-0.5,0.2c-0.7,0.2-1.6,0.5-2,1.4c-0.1,0.1-0.1,0.3-0.1,0.4c-0.7-0.7-1.7-0.8-2.1-0.8c-1.6,0-4.5,0.6-6.2,1.5
				c-0.4,0.2-0.7,0.6-0.9,1.1c-0.8,0-1.5,0-2.3,0c-0.1-0.1-0.3-0.1-0.4-0.2c-0.6-0.1-1.6-0.1-2.6,0.1l0,0l-0.2,0c-0.1,0-0.1,0-0.2,0
				l-0.3,0l-0.4,0c-6.2,0-12.4-0.2-18.6-0.4l4.5-1.3c1-0.2,1.9-0.5,2.8-0.7l0.5-0.1c1.7-0.5,3.4-1.1,5.1-1.6
				c1.3-0.4,2.6-0.9,3.9-1.3C504.3,970.8,505.7,970.6,507.1,970.3L507.1,970.3z M277.6,737.6c69.6,83.4,170.1,134.2,276.8,148.9
				c-1,1.1-1.8,2.6-2.4,4.4c-0.4,1.4-0.6,2.8-0.4,4.3l-0.1,0c0,0,0.3,1.5,0.3,1.5l0.3,1.3l0.1,0c0.3,0.9,0.6,1.8,1.1,2.6
				c0.7,1.3,1.6,2.6,3,4.1l0.3,0.3c0.8,0.8,1.8,1.7,2.9,2.4c0.6,0.4,1.3,0.6,2,0.9c1.7,0.6,3.6,1,5.7,1.2c0.4,0,0.7,0,1.1,0
				c0.9,0,1.8-0.1,2.7-0.3l0.1,0.1l0.6-0.2l1.2-0.4l0.7-0.2l0-0.1c0.1,0,0.1,0,0.2-0.1c0.3-0.1,0.6-0.2,1.1-0.5
				c0.2-0.1,0.4-0.2,0.5-0.3c0.7,0.6,1.6,1.2,2.4,1.8c0.5,0.3,0.9,0.6,1.2,0.9l0.6,0.5c0.5,0.4,1.1,0.8,1.6,1.2l0.3,0.2
				c1.4,1.1,3,1.7,4.5,2.4c0.5,0.2,1.1,0.5,1.6,0.7c1,0.4,1.7,0.8,2.5,1.2l0,0.1l1.5,0.6c0,0,1.1,0.5,1.2,0.5
				c0.3,0.1,0.5,0.2,0.7,0.3c0.8,0.3,2.1,0.6,3.4,0.9c0.8,0.2,1.6,0.4,2.2,0.6c0.4,0.1,0.7,0.2,1.1,0.4c0.6,0.2,1.2,0.4,1.8,0.6
				l0.4,0.1c1.6,0.5,3.3,0.7,4.9,0.9c0.8,0.1,1.6,0.2,2.4,0.3c1.1,0.2,2,0.3,2.8,0.5l1.7,0.3c0,0,0.1,0,0.1,0c0,0,1,0.2,1,0.2
				c0.4,0.1,0.7,0.1,1,0.2c0.8,0.1,2,0.2,3.2,0.2c1.1,0.1,2.1,0.1,2.8,0.2c0.2,0,0.4,0.1,0.6,0.1c0,0-0.1,0-0.1,0
				c-1,0.3-2,0.6-3,0.8c-1.2,0.3-2.1,0.4-3.1,0.6c0,0-1.7,0.3-1.7,0.3c0,0-1.2,0.2-1.2,0.2c-0.3,0.1-0.7,0.1-1.1,0.2l-3.2,0.8
				c-1.1,0.3-2.3,0.6-3,0.7c-0.6,0.1-1.1,0.1-1.7,0.2c-0.5,0.1-1.1,0.1-1.6,0.2l-0.4,0c-1.1,0.1-2.2,0.3-3.3,0.6l-1.6,0.3
				c-1,0.2-1.9,0.4-2.9,0.5c-1.3,0.2-2.2,0.2-3.2,0.3c0,0-1.6,0.1-1.6,0.1c0,0-1.3,0-1.3,0.1c-0.3,0-0.7,0-1,0.1
				c-0.5,0-1.1,0.1-1.8,0.2c-1.3,0.2-3,0.4-4,0.4l-5.9-0.1c-1.9,0-3.8,0-5.6,0.1c-0.9-0.1-1.7-0.3-2.6-0.4l-1.2-0.2
				c-1.1-0.2-2.3-0.4-3.4-0.6c-0.5-0.1-1-0.3-1.5-0.4c-0.7-0.2-1.5-0.4-2.2-0.6l-1.9-0.4c-1.7-0.4-3.5-0.8-5.3-1.3
				c0,0-3.1-0.9-3.1-0.9l-1.6-0.5c0,0-1.2-0.4-1.2-0.4l-2.5-0.7l-8.2-2.7l-2.5-0.8c-1.6-0.5-3-0.9-4.4-1.5c-1.5-0.6-3-1.2-4.3-1.7
				l-4.4-1.8c-1-0.4-2-0.8-3-1.3c-0.5-0.2-0.9-0.5-1.4-0.7c-0.6-0.3-1.2-0.7-1.9-1l-2.8-1.3c-1.1-0.5-2.2-1.1-3.3-1.7
				c0,0-2.5-1.5-2.4-1.5c0,0-1.4-0.8-1.4-0.8c-1-0.6-1.9-1.2-2.9-1.8l-0.4-0.3c-1-0.7-2.1-1.4-3.1-2.1c-0.5-0.3-0.9-0.7-1.4-1.1
				c-0.4-0.3-0.8-0.7-1.2-1l-2.4-1.7c-1-0.7-1.9-1.4-2.8-2.2l-1.6-1.5l0.4-0.7l-0.1,0c0.3-0.7,0.6-1.5,0.8-2.3
				c0.3-1.5,0.2-3-0.2-4.5c-0.2-1-0.7-2.4-1.6-3.6c-0.3-0.4-0.8-0.9-1.3-1.3c-1.3-1.2-2.6-2-4.1-2.8c-0.8-0.5-1.6-0.8-2.4-1.2
				c0,0-1.3-0.5-1.3-0.5c0,0-1.3-0.5-1.3-0.5c-0.5-0.2-1-0.4-1.6-0.5l-0.8-0.3c-0.9-0.3-1.9-0.6-3.1-0.8c-0.7-0.1-1.4-0.2-2.2-0.1
				c-0.8,0.1-1.7,0.3-2.4,0.7c-0.6,0.4-1.4,1-1.8,1.5c-0.9,1-1.3,2-1.5,2.7c-0.3,0.8-0.4,1.7-0.5,2.7c-0.1,1.1,0,2.3,0.3,3.4
				l-0.3,0.1c0,0,0.6,1.3,0.6,1.4l0.5,1.3l0.1,0l0.2,0.5l0.9,1.5c1,1.3,1.9,2.3,2.9,3.2c0.4,0.4,0.9,0.8,1.3,1.2
				c0.5,0.4,1,0.8,1.6,1.1c0.5,0.3,1.1,0.6,1.7,0.8c1.7,0.8,3.5,1.2,5,1.5c1.1,0.2,2.2,0.4,3.4,0.4l0,0.2l1.4-0.2l1.4-0.1l0-0.1
				c0.2,0,0.3,0,0.5-0.1l6.3,5.2c1.4,1.2,3,2.2,4.5,3.1c0.5,0.3,1,0.6,1.4,0.9c0,0,3.7,2.6,3.7,2.6c0,0,1.1,0.8,1.1,0.7
				c0.2,0.1,0.4,0.3,0.7,0.4c0.7,0.4,1.8,1,2.9,1.5c0.9,0.5,1.8,0.9,2.4,1.3l0.9,0.5c0.6,0.4,1.2,0.7,1.8,1l0.4,0.2
				c2.3,1.2,4.6,2.1,6.9,3c1.2,0.5,2,0.9,2.8,1.3l1.7,0.7c0,0,0.9,0.4,1,0.4c0.3,0.1,0.6,0.2,0.9,0.4l5.9,1.9l1.1,0.4
				c0.7,0.3,1.3,0.5,2,0.7l0.4,0.1c1.5,0.6,3.2,1,4.7,1.4c0.6,0.1,1.1,0.3,1.7,0.5c-0.3,0-0.6,0-0.9,0l-6.3,0c-0.5,0-1-0.1-1.5-0.1
				c-0.6-0.1-1.2-0.1-1.7-0.1l-0.4,0c-1.5-0.1-2.9,0-4.4,0c-0.9,0-1.7,0.1-2.6,0.1l-0.6,0c-1.4,0-2.3-0.1-3.3-0.2l-1.5-0.1
				c0,0-1.3-0.1-1.3,0l-1.1,0c-0.7,0-1.6,0-2.6,0.1c-0.9,0-1.9,0.1-2.6,0.1l-4.1-0.3c-1.4-0.1-2.8-0.1-4.2-0.1c-1.1,0-2.2,0-3.3,0
				c-1.6-0.1-2.7-0.2-3.9-0.3l-0.3,0l-0.5-0.1c-0.1,0-0.2,0-0.2,0c0,0-1.3-0.1-1.3-0.1c-0.2,0-0.4,0-0.7,0c-0.6,0-1.6,0-2.5-0.1
				c-1.3,0-2.7,0-3.5-0.1l-3.6-0.5c-1.4-0.2-2.8-0.2-4.2-0.3c-1.1-0.1-2.1-0.1-3.2-0.2c-0.1,0-0.1,0-0.2,0c-0.3-0.2-0.7-0.4-1.1-0.5
				c-0.1-0.1-0.2-0.1-0.3-0.2c0,0-0.2-0.2-0.2-0.2c0,0-1.3-0.8-1.3-0.9c0,0-1.1-0.7-1.1-0.7c-0.3-0.2-0.5-0.3-0.9-0.5
				c-0.5-0.3-1.1-0.6-1.8-1c-1.3-0.7-2.9-1.5-3.7-2l-3-2.1c-1.3-0.9-2.7-1.7-4.1-2.5c-0.8-0.5-1.7-1-2.5-1.5
				c-1.1-0.7-1.9-1.3-2.6-1.8c0,0-1.2-0.9-1.2-0.9c0,0-1.1-0.8-1.1-0.8c-0.3-0.2-0.5-0.3-0.8-0.5l-1.2-0.7c-1.4-0.8-3.1-1.9-4-2.5
				l-2.9-2.2c-1.4-1-2.8-1.9-4.2-2.8c-0.8-0.5-1.5-0.9-2.2-1.4c-1.1-0.7-1.9-1.3-2.6-1.9l-1.2-0.9c-0.1,0-0.1-0.1-0.2-0.2
				c0,0-0.9-0.7-0.9-0.6c-0.2-0.2-0.5-0.3-0.8-0.5c-0.5-0.3-1.3-0.8-2.2-1.4c-1.2-0.7-2.4-1.5-3.1-2c-0.4-0.3-0.7-0.5-1.1-0.8
				c-0.5-0.4-1-0.8-1.6-1.1l-0.4-0.3c-1.5-1.1-3.2-2-4.8-2.8c-0.8-0.5-1.7-0.9-2.6-1.4c-1.2-0.7-2-1.2-2.9-1.7
				c-0.1-0.1-0.2-0.1-0.3-0.2c0,0-1.3-0.8-1.3-0.8c0,0-1.2-0.7-1.2-0.7c-0.3-0.2-0.6-0.3-0.9-0.5c-0.8-0.4-2-1-3.3-1.6
				c-1.1-0.5-2.2-1-2.9-1.4l-3.4-1.9c-1.1-0.6-2.3-1.1-3.4-1.6l-4.2-1.7c-1.1-0.5-2-0.9-2.8-1.3c-0.2-0.1-0.4-0.2-0.5-0.3l-1.3-0.6
				c0,0-1.3-0.6-1.3-0.5l-0.9-0.4c-0.6-0.2-1.4-0.5-2.3-0.8l-7.5-2.8c-1.3-0.5-2.6-0.9-3.9-1.2l-1.5-0.4c-0.7-0.2-1.5-0.4-2.2-0.6
				c-1.7-0.5-2.8-0.9-4-1.3l-0.4-0.1c0,0-0.3-0.1-0.4-0.1c0,0-1.5-0.5-1.5-0.4c-0.3-0.1-0.5-0.1-0.8-0.2l-4.1-0.8
				c-0.8-0.1-1.6-0.3-2.1-0.4l-1-0.3c-0.7-0.2-1.5-0.4-2.2-0.6l-0.4-0.1c-1.4-0.3-2.7-0.5-3.9-0.7l-1.3-0.1
				c-0.8-0.1-1.7-0.2-2.5-0.3c-1.3-0.2-2.3-0.4-3.2-0.6c-0.1,0-0.2,0-0.3-0.1c0,0-1.2-0.2-1.2-0.2c0,0-1.6-0.3-1.6-0.2
				c-0.2,0-0.4,0-0.6-0.1c-0.6-0.1-1.5-0.1-2.4-0.2c-1.3-0.1-2.8-0.2-3.7-0.3c-0.5-0.1-0.9-0.2-1.4-0.2c-0.6-0.1-1.2-0.2-1.7-0.3
				l-0.4-0.1c-1.3-0.2-2.7-0.3-4-0.4c-1.1-0.1-2.3-0.2-3.4-0.3c-1.4-0.2-2.3-0.4-3.4-0.6l-1.2-0.2c-0.1,0-0.3-0.1-0.4-0.1
				c0,0-1.2-0.2-1.2-0.2c-0.2,0-0.4-0.1-0.6-0.1c-1.6-0.2-4.5-0.6-5.8-0.9c-4.6-1-9.4-3.7-13.5-6.2c-4.4-2.6-7.2-4.8-9.7-9.1
				c-4.4-7.2-10.5-12.6-15.7-19.1c-0.3-0.4-0.7-0.8-1-1.2c0,0-0.3-0.3-0.3-0.3c-4.2-5-8.1-9.5-11.3-15.4c-0.2-0.4-0.4-0.9-0.6-1.4
				c-0.3-0.6-0.6-1.3-0.9-1.9l-0.9-1.5c-0.3-0.6-0.6-1.1-1-1.7c-0.5-0.9-1.1-1.8-1.6-2.8c-0.5-1-1-1.9-1.4-2.8c0,0-0.7-1.2-0.7-1.3
				l-0.1-0.2l-1.6-3c-0.7-1.3-1.4-2.5-2-3.8c-0.2-0.5-0.4-1-0.6-1.5c-0.2-0.6-0.5-1.2-0.8-1.8l-0.8-1.5c-0.3-0.5-0.5-1-0.8-1.5
				c-0.5-1-1-1.9-1.5-3c-0.6-1.5-1.2-2.8-1.8-4.1l-1.4-3.3c-0.5-1.3-1-2.6-1.5-3.9c-0.2-0.5-0.3-1.1-0.5-1.6
				c-0.2-0.6-0.3-1.2-0.5-1.8l-0.6-1.6c-0.6-1.6-1-3-1.3-4.6l-0.3-1.4c0.6-0.6,1-1.2,1.4-1.8c2.2-3.7,3.8-7.7,3-11.9
				c-0.2-1.5-0.6-2.8-1-4.2l-0.4-1.3c-0.2-0.7-0.4-1.4-0.5-2c-0.1-0.4-0.2-0.8-0.3-1.3c-0.6-2.9-3-9.2-6.6-5.7
				c-0.8,0.8-1.6,1.7-2.6,3l-0.9,1c-1.1,1.3-2.1,2.6-2.9,3.8c0,0-0.5,0.8-0.5,0.8c0,0-1.2,1.8-1.1,1.8c-0.4,0.7-0.7,1.3-1,1.9
				c-0.8,1.6-1.4,3.1-1.7,4.7c-0.2,1.2-0.5,2.5-0.4,3.6c0,0.6,0.2,1.2,0.3,1.7c0.7,3.2,4.2,5.6,7.1,6.6c0,0,1,0.3,1.1,0.3
				c0.3,0.1,0.6,0.2,1,0.2c0.3,0,0.5,0,0.8,0.1c0.2,0.8,0.5,1.8,0.7,2.8c0.2,0.8,0.4,1.5,0.5,2l0.2,1c0.1,0.7,0.3,1.4,0.4,2l0.1,0.4
				c0.4,1.6,1,3.1,1.7,4.6c0.3,0.7,0.6,1.4,0.9,2.2c0.5,1.2,0.8,2,1,3l0.5,1.3c0,0.1,0.1,0.2,0.1,0.2c0,0,0.4,1.2,0.5,1.2
				c0.1,0.2,0.2,0.4,0.2,0.6c0.3,0.7,0.9,1.8,1.4,2.9c0.5,0.9,0.9,1.8,1.2,2.4c0.2,0.4,0.3,0.8,0.5,1.2c0.2,0.6,0.4,1.1,0.7,1.6
				l0.2,0.4c0.6,1.5,1.4,2.9,2.2,4.2c0.4,0.7,0.9,1.5,1.3,2.2c0.6,1.1,1,2,1.4,2.8l0.6,1.2c0,0.1,0.1,0.2,0.1,0.2
				c0,0,0.5,1.1,0.6,1.1c0.1,0.2,0.2,0.4,0.3,0.6c0.3,0.6,0.9,1.5,1.4,2.4c0.6,1,1.2,2,1.6,2.6l0.5,1.1c-0.1,0-0.1-0.1-0.2-0.1
				c-0.7-0.5-1.3-1-2-1.6c-0.9-0.8-1.6-1.4-2.2-2l-1-0.9c-0.1-0.1-0.1-0.1-0.2-0.2c0,0-0.9-0.9-1-0.8c-0.1-0.1-0.3-0.2-0.4-0.4
				c-0.5-0.4-1.3-1-2.4-1.8c-0.9-0.6-1.7-1.2-2.2-1.6c-0.4-0.3-0.7-0.6-1.1-1c-0.4-0.3-0.7-0.7-1.1-1l-0.3-0.3
				c-1.1-1-2.4-1.9-3.7-2.7c-0.7-0.5-1.4-0.9-2.1-1.5c-0.9-0.7-1.5-1.2-2.1-1.7c0,0-0.1-0.1-0.1-0.2l-1.2-0.9c0,0-1.1-0.9-1.1-0.8
				c-0.2-0.1-0.3-0.2-0.5-0.4c-0.5-0.4-1.2-0.8-2-1.4c-1-0.7-2.1-1.4-2.7-1.9c-0.4-0.3-0.8-0.6-1.1-1c-0.3-0.3-0.7-0.6-1-0.9
				l-0.3-0.3c-1-0.8-2-1.6-3.1-2.3c-0.8-0.6-1.7-1.2-2.5-1.8c0,0-0.2-0.2-0.2-0.2l-1.4-1.6c-1-1-1.9-2.2-2.5-3.1
				c-0.3-0.4-0.5-0.8-0.8-1.2c-0.4-0.6-0.7-1.1-1.1-1.7c-0.2-0.2-0.3-0.5-0.5-0.7l-0.3-0.5c-0.3-0.5-0.5-0.9-0.8-1.3
				c-0.5-0.9-1.1-1.7-1.5-2.6c0,0-1-2.6-0.9-2.6l-0.5-1.2c-0.4-0.8-0.7-1.7-0.9-2.7c-0.3-1.2-0.6-2.4-0.9-3.6
				c-0.1-0.5-0.2-1-0.2-1.6c0-0.5-0.1-1-0.2-1.5l-0.5-2.6c-0.2-1-0.4-2-0.4-3.2c0-1.5-0.1-2.7-0.2-4l-0.2-4.3c0-1-0.1-2-0.1-3.1
				c0-0.5,0-1,0.1-1.5c0-0.6,0.1-1.3,0.1-1.9l0-1.6c0-0.6,0-1.1,0-1.7c0-1,0-2,0.1-3c0,0,0.6-5.8,0.6-5.8c0.1-0.6,0.1-1.1,0.2-1.7
				l0.1-1c0.1-1,0.3-1.9,0.5-2.9c0.1-0.5,0.2-1.1,0.4-1.6c0.2-0.5,0.3-1.1,0.4-1.6l0.5-2.5c0.2-1.2,0.4-2.3,0.8-3.6l0.7-2.2
				c0,0,0.8-0.1,0.8-0.1c0.9-0.1,1.8-0.3,2.8-0.7c1.5-0.6,2.9-1.5,4.1-2.6c0.8-0.7,1.9-1.9,2.5-3.2c0.2-0.5,0.5-1.2,0.6-1.7
				c0.5-1.7,0.6-3.3,0.6-4.7c0-1,0-1.8-0.1-2.6c0,0-0.2-1.3-0.2-1.3c0,0-0.3-1.5-0.3-1.5c-0.1-0.4-0.2-0.9-0.3-1.3l-0.1-0.5
				c-0.2-1-0.5-2.1-1.1-3.2c-0.2-0.5-0.6-1.2-1.1-1.8c-0.6-0.6-1.3-1.1-2-1.4c-0.7-0.3-1.6-0.5-2.5-0.5c-1-0.1-2.1,0.1-3.3,0.4
				c-0.9,0.3-1.8,0.6-2.8,1.1c-1.2,0.6-2.2,1.4-3.1,2.3l-0.2-0.1l-0.8,1.1l-1,1.2c0,0,0.1,0.1,0.1,0.1l-1.1,1.8
				c-0.7,1.5-1.2,2.8-1.4,4c-0.2,0.6-0.3,1.1-0.4,1.6c-0.2,0.6-0.2,1.3-0.2,1.9c0,0.5,0,1.2,0.1,1.8c0.1,1.6,0.6,2.8,1.1,4.2
				l0.2,0.5c0.3,0.9,0.8,1.8,1.3,2.7l-0.2,0.1l1.1,1.2l0.8,1l0.1-0.1c0.1,0.1,0.1,0.2,0.2,0.2l-1.9,7.5c-0.4,1.6-0.6,3.2-0.8,4.8
				c-0.1,0.7-0.2,1.3-0.2,2c0,0-0.5,3-0.5,3l-0.2,1.2c0,0-0.3,1.6-0.2,1.6c0,0.1,0,0.2,0,0.3c-0.1,0.9-0.1,2.2-0.1,3.4
				c0,0.8,0,1.6,0,2.2c0,0.4-0.1,0.8-0.1,1.2c-0.1,0.6-0.1,1.2-0.1,1.7l0,0.4c-0.1,1.7,0,3.4,0.1,5.1c0,0.6,0.1,1.3,0.1,1.9
				c0.1,1.2,0.1,2.1,0,3c0,0,0,0.1,0,0.1c0,0,0,1.2,0,1.2c0,0,0,1.6,0.1,1.6c0,0.1,0,0.2,0,0.3c0.1,0.8,0.2,2.1,0.4,3.3
				c0.1,0.8,0.2,1.5,0.3,2l0.3,3.1c0.1,1.2,0.4,2.3,0.7,3.4c0.2,0.6,0.3,1.1,0.5,1.7c0.1,0.4,0.3,0.9,0.4,1.4c0,0.1,0,0.1,0.1,0.2
				l-0.6-1l-0.1,0c-0.1-0.1-0.1-0.2-0.2-0.3l-0.5-0.7c-0.8-1.1-1.9-2.7-2.5-3.5c-0.3-0.5-0.6-1.1-0.9-1.6l-0.5-1
				c-0.6-1.3-1.4-2.4-2.2-3.5c-0.5-0.7-1-1.4-1.4-2.1c-0.6-1-0.9-1.8-1.3-2.5l-0.6-1.2c0-0.1-0.1-0.1-0.1-0.2c0,0-0.6-1.1-0.6-1.1
				c-0.1-0.2-0.2-0.3-0.3-0.5l-0.8-1.3c-0.7-1.1-1.6-2.5-2.1-3.3l-1.4-2.8c-0.7-1.3-1.5-2.5-2.2-3.7c-0.5-0.7-0.9-1.4-1.3-2.1
				c-0.6-0.9-0.9-1.7-1.2-2.5c0,0-0.6-1.2-0.6-1.2c0,0-0.7-1.4-0.7-1.3c-0.1-0.2-0.1-0.3-0.2-0.5c-0.3-0.5-0.7-1.1-1.1-1.8
				c-0.6-1-1.4-2.1-1.7-2.8l-1.3-3c-0.6-1.2-1.2-2.3-1.9-3.4c-0.5-0.8-1-1.6-1.4-2.5c0,0,0-0.1,0-0.1c0-0.3,0-0.7,0-1
				c0-0.1,0-0.3,0-0.4c0,0,0.3-3.2,0.2-3.2c0-0.2,0-0.4,0-0.6c0-0.6,0-1.6,0-2.6c0-1.2-0.1-2.5,0-3.2c0-0.5,0.1-1,0.2-1.5
				c0.1-0.5,0.1-1,0.2-1.4l0-0.4c0.2-1.5,0.1-2.9,0.1-4.3c0-0.9,0-1.9,0-2.9c0.1-1.3,0.2-2.2,0.3-3.1c0,0,0.1-1.3,0.1-1.3
				c0,0,0.1-1.5,0.1-1.5c0-0.2,0-0.4,0-0.6c0-0.7,0-1.6,0-2.7c0-1.2,0-2.4,0-3.2c0-0.5,0.1-1,0.2-1.5c0.1-0.5,0.1-1,0.2-1.5l0-0.4
				c0.2-1.6,0.1-3.2,0-4.8c0-0.8-0.1-1.7-0.1-2.5c0-1.3,0.1-2.2,0.2-3.2l0.1-1.3c0-0.1,0-0.1,0-0.2c0,0,0.1-1.3,0-1.3
				c0-0.2,0-0.4,0-0.6c0-0.7-0.1-1.9-0.2-3c-0.1-1.1-0.1-2.2-0.2-2.9c0-0.4,0-0.9,0.1-1.3c0-0.6,0.1-1.2,0.1-1.8l0-0.4
				c0-1.7-0.2-3.3-0.4-4.9c-0.1-0.8-0.2-1.7-0.3-2.5c-0.1-1.2-0.1-2.1-0.1-2.9c0-0.1,0-0.2,0-0.3l-0.1-1.4c0,0-0.1-1.5-0.1-1.5
				c0-0.2,0-0.4-0.1-0.7c-0.1-0.8-0.3-2-0.5-3.2c-0.2-1-0.4-2.1-0.5-2.8l-0.4-3.6c-0.1-1.2-0.4-2.3-0.6-3.3l-1-3.9
				c-0.3-1.1-0.4-1.9-0.5-2.7c0-0.1,0-0.2,0-0.3c0,0-0.3-1.3-0.3-1.4c0,0-0.3-1.4-0.3-1.4c-0.1-0.2-0.1-0.4-0.2-0.6
				c-0.1-0.5-0.4-1.2-0.6-2l-2-7c-0.4-1.2-0.8-2.3-1.3-3.5c-0.2-0.4-0.4-0.9-0.6-1.3c-0.3-0.6-0.6-1.3-0.8-1.9
				c-0.6-1.4-0.9-2.4-1.2-3.4l-0.1-0.4c0,0-0.1-0.4-0.1-0.4l-0.5-1.4l-0.1,0c-0.1-0.2-0.2-0.4-0.3-0.7l-1.7-3.2
				c-0.4-0.7-0.8-1.5-1.1-1.9l-0.4-0.9c-0.3-0.7-0.6-1.3-0.9-1.9l-0.2-0.4c-0.6-1.2-1.3-2.3-1.9-3.2l-2-2.9c-0.7-1-1.2-1.8-1.6-2.6
				c0,0-0.7-1.2-0.8-1.2l-0.7-1.2l-0.1,0c-0.1-0.2-0.2-0.3-0.4-0.5c-0.4-0.6-1.2-1.6-1.9-2.5c-0.7-0.8-1.3-1.6-1.7-2.2
				c-0.2-0.4-0.5-0.7-0.7-1.1c-0.3-0.5-0.6-1-0.9-1.4l-0.2-0.3c-0.8-1.2-1.8-2.4-2.7-3.4c-0.6-0.7-1.2-1.4-1.8-2.2
				c-0.7-1-1.2-1.7-1.7-2.5l-0.8-1.2c0-0.1-0.1-0.1-0.1-0.2c0,0-0.7-1-0.7-1c-0.1-0.2-0.2-0.3-0.4-0.5c-0.3-0.5-0.9-1.1-1.4-1.8
				c-0.8-1-1.6-2.1-2.1-2.7l-1.8-2.9c-0.6-1-1.3-2-2-3l-0.2-0.3c-0.6-0.8-1.2-1.7-1.7-2.6c-2.3-3.8-3.9-6.6-3.5-11
				c1-11.7,3-23.4,4.3-35.1c0.1-0.6,0.1-1.5,0.2-2.5c0.1-1.4,0.2-3,0.3-3.9c0.1-0.5,0.2-1.1,0.3-1.6c0.1-0.5,0.2-1.1,0.3-1.6
				l0.1-0.4c0.3-1.7,0.5-3.4,0.6-5.1c0.1-0.9,0.1-1.8,0.3-2.7c0.1-0.7,0.2-1.2,0.3-1.7c0.1-0.3,0.3-0.6,0.4-1
				c0.1-0.4,0.3-0.7,0.4-1.1l0.3-0.7l0.7-1.4l1.2-2.5c0.6-1.3,1.3-2.7,1.9-4c0.3-0.5,0.5-1,0.8-1.4c0.4-0.6,0.7-1.2,1-1.8l0.8-1.7
				c0.3-0.6,0.6-1.1,0.8-1.7c0.5-1,0.9-2,1.5-3c0.8-1.3,1.6-2.6,2.4-3.9l1.9-3.3c0.8-1.3,1.5-2.5,2.3-3.7c0.3-0.5,0.6-0.9,1-1.3
				c0.4-0.5,0.8-1,1.2-1.6l1.3-2c0.8-1.3,1.6-2.5,2.6-3.6c1.1-1.2,2-2.4,2.9-3.5l2.2-2.7c0.9-1.1,1.8-2.1,2.7-3.1
				c0.4-0.4,0.8-0.8,1.2-1.1c0.4-0.4,0.9-0.8,1.3-1.2l2-2.1c0.8-0.9,1.7-1.7,2.6-2.5c0.4-0.3,0.7-0.6,1-0.8c0.7,0.3,1.4,0.5,2,0.6
				c1.4,0.3,2.7,0.4,4,0.4l1,0l1,0c0.5,0,1.1,0,1.8-0.3l1-0.4c0.4-0.2,0.8-0.4,1.1-0.6c0.6-0.3,1.2-0.9,1.8-1.3
				c0.5-0.4,0.9-0.8,1.3-1.2C160,523.4,200.8,645.7,277.6,737.6z M173.5,377.9c-0.4-0.2-0.8-0.4-1.2-0.5c-1.4-0.5-3-0.7-4.5-0.7
				l0-0.1l-1.4,0.2c0,0,0,0,0,0l-1.4,0.2l0,0.1c-1,0.2-1.9,0.5-2.8,0.9c-1.5,0.6-2.9,1.5-4.5,2.9l-0.4,0.3c-0.9,0.8-2,1.7-2.7,2.8
				c-0.4,0.5-0.8,1.2-1.2,2.1c-0.9,2-1.4,4-1.8,6.2c-0.3,1.4-0.4,2.9-0.3,4.4l-0.1,0l0.1,0.9l0.1,0.9l0.1,1.1l0.1,0
				c0,0.1,0.1,0.3,0.1,0.5c0.1,0.4,0.1,0.8,0.3,1.4c0.1,0.3,0.2,0.6,0.3,0.8c0,0.1,0.1,0.1,0.1,0.1c-0.6,0.6-1.4,1.3-2.1,2
				c-0.6,0.6-1.2,1.2-1.6,1.6l-0.8,0.7c-0.5,0.4-1,0.9-1.5,1.3l-0.3,0.3c-1.4,1.2-2.5,2.7-3.7,4.1c-0.4,0.5-0.8,0.9-1.2,1.4
				c-0.7,0.9-1.3,1.5-1.9,2.2l0,0l-1,1.1c0,0,0,0,0,0l-0.9,1l0,0c-0.2,0.2-0.3,0.4-0.5,0.6c-0.5,0.6-1.3,1.7-2,2.8
				c-0.6,0.8-1.1,1.6-1.5,2.1c-0.3,0.3-0.5,0.7-0.8,1c-0.4,0.5-0.8,1-1.1,1.4l-0.3,0.3c-1,1.3-1.8,2.8-2.6,4.2
				c-0.4,0.7-0.8,1.4-1.3,2.2c-0.6,1-1.1,1.8-1.6,2.5l0,0l-0.9,1.3c0,0.1-0.1,0.2-0.1,0.2l-0.5,0.8l0,0c-0.2,0.3-0.3,0.5-0.5,0.8
				c-0.4,0.7-1,1.9-1.6,3.1c-0.5,0.9-0.9,1.9-1.3,2.5c-0.1,0.3-0.3,0.5-0.4,0.8c0.1-1.1,0.2-2.2,0.5-3.3c0.2-1.3,0.4-2.2,0.7-3.1
				l0,0l0.4-1.5c0-0.1,0-0.1,0-0.2l0.2-1l0,0c0.1-0.3,0.1-0.6,0.2-1c0.1-0.7,0.2-1.8,0.4-2.9l0-0.4c0.1-1.3,0.3-2.3,0.4-3
				c0.1-0.5,0.3-1,0.4-1.5c0.1-0.5,0.3-1,0.4-1.5l0.1-0.4c0.4-1.6,0.6-3.3,0.8-4.9c0.1-0.9,0.2-1.8,0.4-2.8c0.2-1.3,0.4-2.2,0.7-3.1
				l0,0l0.4-1.5c0-0.1,0-0.2,0.1-0.3l0.3-1l0,0c0.1-0.3,0.1-0.6,0.2-0.9c0.1-0.7,0.2-1.6,0.4-2.6c0.2-1.3,0.4-2.7,0.5-3.5l0.8-3.5
				c0.5-2.2,0.8-4.4,1.1-6.5l0.1-1c0-0.1,0-0.1,0-0.2l1.1-3.7c0.3-1,0.6-2,0.9-3c0.2-0.5,0.4-1,0.6-1.5c0.3-0.7,0.6-1.4,0.8-2.2
				l0.6-1.8c0.2-0.6,0.4-1.2,0.6-1.7c0.4-1.1,0.7-2.3,1.2-3.5c0.4-1.1,0.8-2,1.2-3l0,0l3.9-9.1c0.4-0.9,0.9-1.7,1.3-2.5l1.2-2.5
				c0.3-0.5,0.5-1.1,0.8-1.6c0.5-1,1-2.1,1.6-3.1c0.6-1,1.1-1.8,1.5-2.7l0,0l0.8-1.4c0.4-0.7,0.8-1.3,1.2-2l1.2-2
				c0.6-1,1.2-1.9,1.8-2.8c0.3-0.4,0.6-0.8,0.9-1.2c0.4-0.6,0.8-1.1,1.2-1.7l1-1.6c1-1.4,1.9-2.7,3-4.1l1.9-2.3l0,0l0.9-1.2l0.9-1
				l0,0l1.4-1.7c0.9-1.1,1.9-2.1,2.8-3.1c0.4-0.4,0.8-0.8,1.3-1.2c0.4-0.4,0.9-0.8,1.3-1.2l1.9-2c0.9-0.9,1.7-1.8,2.7-2.7l1.8-1.5
				l0.6,0.5l0-0.1c0.7,0.4,1.5,0.8,2.4,1.1c1,0.3,2.1,0.5,3.2,0.5c0.5,0,1.1,0,1.6-0.1c1.1-0.1,2.6-0.4,3.9-1.2
				c0.4-0.2,0.8-0.5,1.2-0.9C181.5,336.5,176.7,357.1,173.5,377.9z M112.1,226.9C153,155,212.8,99.6,287.7,64.6
				c69.7-32.7,146.1-44.1,222.4-45.1c-29.4,6.3-57.6,14.8-85.5,27.8c-35,16.3-67.3,37.8-96.9,62.5c-59.1,49.3-104.9,114-132.4,185.7
				c-0.1-0.1-0.2-0.2-0.3-0.3c-0.9-1-2-1.5-2.7-1.8c-0.8-0.3-1.7-0.6-2.7-0.8c-3-0.6-5.9,0.1-8.6,1.5c-1.4,0.8-2.6,1.7-3.5,2.6
				c-0.5,0.4-0.9,0.8-1.3,1.2c-0.5,0.4-0.9,1-1.3,1.5c-0.3,0.4-0.7,1.1-1,1.6c-0.8,1.4-1.5,2.9-2,4.9c-0.4,1.2-0.6,2.4-0.7,3.4
				l-0.1,0l0,1.5c0,0-0.1,1.3,0,1.3c0,0.2,0,0.3,0,0.5l-6.1,5.7c-1.2,1.1-2.3,2.3-3.3,3.6c-0.5,0.6-1.1,1.2-1.6,1.8
				c0,0-2.1,2.3-2.1,2.3l-0.9,1.1c0,0-1,1.1-0.9,1.1c-0.2,0.2-0.3,0.3-0.5,0.6c-0.5,0.6-1.2,1.6-1.9,2.7c-0.6,0.9-1.2,1.7-1.6,2.3
				c-0.2,0.3-0.5,0.6-0.8,0.9c-0.4,0.5-0.9,1-1.2,1.5l-0.3,0.3c-1.1,1.5-2,3.1-3,4.7l-1,1.6c-0.7,1.1-1.2,1.9-1.8,2.7l-0.8,1.2
				c0,0.1-0.1,0.1-0.1,0.2c0,0-0.7,1-0.6,1c-0.1,0.3-0.3,0.5-0.4,0.8l-2,4.1l-2.5,4.5c-0.9,1.5-1.5,3.1-2.1,4.7
				c-0.2,0.6-0.5,1.2-0.7,1.8c0,0,0.1-0.5,0.1-0.5c0-0.3,0.1-0.5,0.1-0.8l0-0.4c0.1-1.5,0.4-4.3,0.6-5.6c0.1-0.5,0.2-0.9,0.3-1.4
				c0.1-0.6,0.3-1.2,0.4-1.7l0.1-0.4c0.3-1.4,0.4-2.8,0.5-4.2c0.1-1.1,0.1-2.2,0.3-3.3c0.2-1.3,0.4-2.3,0.6-3.2l0.2-1.3
				c0-0.1,0-0.1,0-0.2c0,0,0.3-1.2,0.2-1.3c0-0.2,0.1-0.5,0.1-0.7c0.1-0.6,0.2-1.5,0.2-2.5c0.1-1.3,0.2-2.7,0.4-3.5l0.8-3.5
				c0.3-1.6,0.5-3.2,0.6-4.8c0.1-0.9,0.2-1.8,0.3-2.7c0.2-1.3,0.4-2.2,0.7-3.1c0-0.1,0-0.1,0.1-0.2l0.3-1.3c0,0,0-0.1,0-0.1
				c0,0,0.3-1.4,0.3-1.4c0-0.2,0.1-0.4,0.1-0.7c0.1-0.7,0.2-1.7,0.4-2.8c0.1-1.2,0.3-2.5,0.4-3.2l0.9-3.5c0.4-1.5,0.6-3.1,0.8-4.6
				c0.1-0.9,0.3-1.9,0.4-2.8c0-0.1,0-0.1,0-0.2c0.2-0.3,0.4-0.6,0.6-1c0.1-0.1,0.2-0.2,0.2-0.3c0,0,0.2-0.3,0.3-0.3l1-1.1
				c0,0,0.9-1,0.9-1.1c0.2-0.2,0.4-0.5,0.6-0.7c0.4-0.6,1-1.4,1.6-2.3c0.7-1.1,1.5-2.2,2-2.9c0.4-0.5,0.9-1,1.3-1.5l1-1.2
				c1.1-1.3,2.1-2.6,3-3.9c0.5-0.8,1.1-1.5,1.7-2.2c0.9-1.1,1.5-1.8,2.2-2.6l0.7-0.8l0.2-0.2c0.5-0.5,0.9-1,1.5-1.7
				c0.5-0.6,1.1-1.4,1.7-2.3c0.8-1,1.6-2.1,2-2.6l2.5-2.7c1.1-1.2,2.1-2.6,3.1-3.9c0.5-0.7,1.1-1.4,1.6-2.1c0.9-1.1,1.6-1.9,2.4-2.6
				l0.4-0.5l0.4-0.4c0,0,0.1-0.1,0.1-0.1c0,0,0.9-0.9,0.8-1c0,0,0.1-0.1,0.1-0.1l0.4-0.5c0.5-0.6,1.3-1.6,2-2.6
				c0.7-0.9,1.4-1.8,1.8-2.3c0.3-0.3,0.6-0.7,0.9-1c0.4-0.5,0.9-0.9,1.2-1.4l0.3-0.3c1-1.2,2-2.5,2.9-3.7c0.6-0.8,1.2-1.6,1.8-2.4
				c0.7-1,1.4-1.7,2-2.3c0.1-0.1,0.1-0.1,0.2-0.2c0,0,0.9-1.1,0.9-1.1c0,0,0.9-1.1,0.9-1.1c0.2-0.2,0.3-0.4,0.5-0.6
				c0.4-0.6,1.1-1.5,1.7-2.4c0.7-1,1.4-2,1.9-2.7l2.3-2.8c0.7-0.8,1.3-1.7,1.8-2.6l2.5-3.8c0.7-1,1.2-1.7,1.7-2.3
				c0.1-0.1,0.2-0.3,0.3-0.4c0,0,0.8-1.1,0.8-1.1c0,0,0.8-1.2,0.8-1.2c0.2-0.2,0.3-0.4,0.5-0.7l5.2-8.4c0.7-1.1,1.2-2.2,2-3.7
				c0.5-1,1-2.1,1.6-3.1c0.8-1.5,1.4-2.5,2-3.6c0,0,1.2-2,1.1-2c0.1-0.2,0.2-0.5,0.4-0.7l1.5-3.6c0.3-0.8,0.7-1.6,0.9-2.2l0.5-0.9
				c0.4-0.7,0.7-1.4,1-2l0.2-0.4c0.6-1.3,1.1-2.6,1.4-3.8c0.4-1.2,0.8-2.4,1.2-3.6c0.4-1.3,0.8-2.2,1.2-3.1c0-0.1,0.1-0.2,0.1-0.2
				l0.4-1.2c0,0,0.6-1.5,0.5-1.5c0.1-0.2,0.1-0.4,0.2-0.6c0.2-0.7,0.5-1.9,0.8-3c0.3-1.2,0.6-2.3,0.9-3.1c0.2-0.5,0.3-0.9,0.5-1.4
				c0.2-0.6,0.5-1.1,0.6-1.7l0.2-0.4c0.6-1.6,1-3.2,1.4-4.7c0.2-0.9,0.5-1.8,0.7-2.7c0.4-1.4,0.8-2.4,1.2-3.4l0.4-1.1
				c0-0.1,0.1-0.3,0.1-0.4c0,0,0.4-1.2,0.4-1.2c0.1-0.2,0.1-0.4,0.2-0.6c0.2-0.6,0.5-1.5,0.7-2.5c0.4-1.3,0.8-2.7,1.1-3.5l1.4-3.4
				c0.5-1.2,1-2.5,1.4-3.7l0.1-0.4c0.3-1,0.7-2.1,1.1-3.1c0.6-1.4,1-2.4,1.5-3.3c0,0,0.5-1.1,0.5-1.1c0,0,0.7-1.5,0.7-1.5l0.3-0.6
				c0.1-0.3,0.3-0.7,0.5-1.1c0.2-0.5,0.5-1.2,0.8-1.9c0.5-1,1-2.1,1.3-2.8c0.3-0.6,0.6-1.1,1-1.6c0.3-0.4,0.5-0.8,0.7-1.1l0.2-0.4
				c0.4-0.6,0.7-1.2,1.1-1.9c0.3-0.5,0.6-1,0.9-1.6l0.2-0.4c0.6-1,1.2-2,1.7-2.9c0.8-1.2,1.5-2,2.2-2.8l0.9-1.1
				c0.2-0.2,0.4-0.5,0.7-0.8l0.8-1c0.2-0.2,1.5-2,1.6-3.3c0-0.2,0-0.7-0.1-1.1c0-0.2-0.1-0.3-0.2-0.5c-0.1-0.1-0.1-0.2-0.2-0.3
				c-0.1-0.1-0.1-0.1-0.2-0.1c-0.2-0.1-0.4-0.2-0.5-0.3c-0.1,0-0.1-0.1-0.2-0.1l-0.4,0c-0.4,0-1.1,0.2-2,0.7c-0.4,0.2-0.8,0.6-1.2,1
				c-0.1,0.1-0.2,0.3-0.4,0.4c-0.3,0.3-0.5,0.6-0.8,0.9l-0.7,0.7l-2.8,2.5c-0.8,0.7-1.6,1.4-2.5,2.1l-0.9,0.7
				c-0.6,0.5-1.2,0.9-1.9,1.4l-2.6,2c-1.4,1.2-2.7,2.2-4.2,3.2c0,0-2.7,1.8-2.7,1.7l-1.3,0.9c0,0-1.1,0.7-1.1,0.7
				c-0.6,0.5-1.3,0.9-2,1.3l-1.1,0.8c-0.9,0.6-1.7,1.2-2.6,1.7c-0.4,0.3-0.9,0.5-1.4,0.7c-0.7,0.3-1.3,0.7-1.9,1.1l-1.5,1
				c-0.6,0.4-1.3,0.8-1.9,1.3c-0.8,0.6-1.7,1.2-2.7,1.7c-1,0.6-1.9,1.1-2.8,1.6l-1.1,0.7c-0.1,0.1-0.2,0.1-0.3,0.2
				c0,0-1.1,0.7-1.1,0.7l-6,3.8c-0.4,0.3-0.9,0.5-1.3,0.7c-0.7,0.4-1.4,0.8-2,1.2l-1.5,1.1c-0.7,0.4-1.3,0.9-1.9,1.4
				c-0.8,0.6-1.7,1.2-2.6,1.8c-1,0.6-1.9,1.3-2.8,1.9l-1.2,0.9c0,0-1.1,0.8-1.1,0.8c-0.7,0.5-1.4,1.1-2.1,1.6l-3.8,3
				c-0.4,0.3-0.8,0.6-1.1,0.9c-0.7,0.5-1.4,1-2.1,1.8l-5.4,5.3c-0.9,0.9-1.8,1.7-2.6,2.5l-0.6,0.7c-0.1,0.1-0.3,0.3-0.4,0.4l-0.9,1
				l0.1,0.1l-4.9,5.8c-0.4,0.4-0.7,0.8-1.1,1.2c-0.5,0.6-1.1,1.2-1.6,1.8c-0.4,0.5-0.8,1.1-1.2,1.7c-0.5,0.7-0.9,1.4-1.4,2.1
				c-0.6,0.9-1.1,1.8-1.8,2.8c-0.8,1.1-1.5,2.1-2.2,3.1c0,0-0.8,1.2-0.8,1.2L159,182l0.1,0c-0.5,0.8-0.9,1.5-1.3,2.3l-0.5,0.9
				c-0.6,1.1-1.2,2.3-1.9,3.4c-0.2,0.4-0.5,0.8-0.8,1.2c-0.5,0.8-1,1.5-1.4,2.4l-0.8,1.8c-0.4,0.8-0.8,1.7-1.1,2.5
				c-0.4,0.9-0.8,1.9-1.3,2.8c-0.7,1.3-1.2,2.4-1.7,3.6l-0.5,1.2c0,0-0.6,1.5-0.6,1.5l-0.9,2.4c-0.6,1.5-1.2,3.1-1.7,4.7
				c-0.2,0.5-0.4,1-0.6,1.6c-0.3,0.7-0.6,1.5-0.9,2.3l-2.1,7.5c-0.4,1.3-0.7,2.5-1,3.7l-0.1,0.6c-0.1,0.2-0.1,0.4-0.2,0.6
				c0,0-0.4,1.5-0.3,1.5l-1.6,7.1c-0.1,0.5-0.3,1.1-0.4,1.6c-0.2,0.8-0.4,1.5-0.5,2.4l-0.3,1.9c-0.1,0.8-0.2,1.6-0.3,2.5
				c-0.1,1-0.2,2-0.4,3.1c-0.4,1.8-0.6,3.5-0.7,5.1c0,0-0.2,1.6-0.1,1.6c0,0.4-0.1,0.7-0.1,1.1l-0.1,2.2c-0.1,1.2-0.2,2.5-0.3,3.7
				c0,0.5-0.1,0.9-0.2,1.4c-0.1,0.8-0.3,1.7-0.3,2.6l0.1,1.9c0,0.7,0,1.4,0.1,2.1c0,1.1,0.1,2.2,0,3.4c-0.1,1.3-0.1,2.5-0.1,3.7
				l0,1.3c0,0,0.1,1.6,0.1,1.6c0,0.3,0,0.7,0.1,1l0.1,2.3c0.1,1.2,0.2,2.4,0.2,3.5c0,0.5,0,1,0,1.5c0,0.8,0,1.6,0.1,2.4l0.2,1.8
				c0.1,0.8,0.2,1.6,0.3,2.4c0.2,1,0.3,1.9,0.4,3c0.1,1.3,0.3,2.4,0.4,3.5l0.2,1.5l0.1,0.8c0,0.2,0,0.3,0,0.5c0,0.3,0,0.6,0.1,0.8
				c0.1,0.6,0.2,1.3,0.7,2c0,0.3-0.1,0.6-0.1,0.9c-0.1,0.9-0.2,1.8-0.4,2.7c-0.3,1.2-0.5,2.3-0.7,3.3l-0.1,0.7
				c0,0.2-0.1,0.4-0.1,0.7c0,0-0.2,1.4-0.2,1.4l-1.1,6.8c-0.1,0.5-0.2,1.1-0.3,1.6c-0.2,0.7-0.3,1.4-0.4,2.1l-0.9,7.1
				c-0.2,1.2-0.4,2.2-0.5,3.3l-1.3,9.6c-0.1,0.5-0.2,1.1-0.3,1.6c-0.2,0.7-0.3,1.4-0.4,2.1l-0.2,1.8c-0.1,0.7-0.2,1.3-0.2,2
				c-0.1,1.1-0.2,2.2-0.5,3.3c-0.2,1.1-0.4,2.2-0.5,3.3l-0.3,2c0,0-0.1,0.9-0.1,0.9l-0.5,3.2c-0.2,1.2-0.4,2.3-0.6,3.5l-0.2,0.7
				c-0.2,1-0.5,2-0.6,3.1l-0.2,1.8c-0.1,0.7-0.2,1.3-0.3,2c-0.1,1.1-0.3,2.2-0.5,3.4c-0.1,0.6-0.2,1.1-0.4,1.7
				c-0.1,0.5-0.2,1-0.4,1.5c0,0-0.2,1.6-0.2,1.6l-0.7,4.4c-0.2,1.2-0.4,2.4-0.7,3.7c-0.1,0.5-0.3,1-0.4,1.5
				c-0.2,0.7-0.4,1.4-0.5,2.2c-0.1,0.6-0.2,1.3-0.3,2l-0.1,0.9c-0.2,1.5-0.3,2.9-0.7,4.4c-0.4,1.7-0.7,3.2-1,4.8l-0.1,0.7l-0.7,4
				c-0.2,1.2-0.4,2.4-0.6,3.6c-0.1,0.6-0.3,1.1-0.4,1.7c-0.2,0.7-0.4,1.3-0.5,2l-0.3,1.9c-0.1,0.7-0.2,1.4-0.3,2.1
				c-0.2,1.1-0.3,2.2-0.6,3.4c-0.3,1.1-0.5,2.1-0.7,3.2l-0.3,1.7c0,0-0.2,1.2-0.2,1.2l-0.4,2.7c-0.3,1.5-0.5,3-0.8,4.4
				c-0.1,0.4-0.2,0.9-0.3,1.3c-0.2,0.8-0.4,1.7-0.5,2.6l-0.2,1.9c-0.1,0.4-0.1,0.8-0.1,1.2l-0.6-3.3c-0.3-1.4-0.5-2.8-0.6-3.6
				l-0.4-4.5c-0.2-1.6-0.5-3.3-0.8-4.7l-0.3-1.2c-0.3-1.1-0.5-2.1-0.7-3.3c-0.2-1.4-0.4-2.5-0.5-3.5c0-0.3-0.1-0.6-0.1-1
				c0,0-0.2-1.3-0.2-1.3l0-0.1c0,0,0-0.2,0-0.2c0,0-0.2-1.2-0.2-1.2c-0.1-0.4-0.1-0.8-0.2-1.2c-0.2-0.8-0.5-1.9-0.8-3.1
				c-0.4-1.5-0.8-3.2-1-4.2l-0.8-4.4c-0.4-2-0.9-4-1.5-5.9c-0.3-1.1-0.6-2.1-0.9-3.1c-0.4-1.7-0.6-3-0.9-4.2c0,0-0.1-0.3,0-0.3
				l-0.3-1.2c0,0,0-0.1,0-0.1c0,0-0.3-1.5-0.3-1.5c-0.1-0.3-0.2-0.7-0.3-1c-0.2-0.8-0.5-1.9-0.9-3.1c-0.4-1.5-1-3.2-1.1-4.2
				l-0.9-4.4c-0.4-2-1-3.9-1.5-5.8c-0.3-1.1-0.6-2.1-0.9-3.2c-0.3-1.3-0.5-2.3-0.7-3.3c-0.1-0.4-0.2-0.8-0.2-1.3l-0.8-3.6l0.6-0.6
				c0,0,0-0.1,0.1-0.1l0.1-0.3c0,0,1.1-2.6,1.1-2.6l0.1-0.3c0,0,0-0.1,0-0.1c0,0,0.1-0.3,0.1-0.3c0,0,0.5-2.1,0.5-2.1
				c0.3-1.2,0.7-2.5,0.9-3.7c0.4-1.9,0.7-3.8,1-5.7l0.2-1.2c0.2-1.4,0.5-2.9,0.6-4.4l0.2-2.6c0.1-1.6,0.1-3.2,0.1-4.8
				c0-0.9,0-1.7,0-2.7c0-1.9-0.1-3.6-0.2-5.3c0,0-0.1-1.2-0.1-1.2c0,0-0.1-1.7-0.2-1.7c-0.1-1.1-0.2-2.2-0.4-3.4
				c-0.2-1.6-0.5-3.1-0.8-4.7l-0.3-1.3c-0.2-0.8-0.3-1.5-0.4-2.3c-0.1-0.8-0.2-1.7-0.4-2.5l-0.5-2.3c-0.1-0.7-0.3-1.3-0.4-2
				c-0.3-1.5-0.7-3-0.9-4.6c-0.2-2.1-0.5-4-0.6-6c-0.1-1.6-0.2-3.1-0.2-4.7c-0.1-1.9,0-3.9,0.1-5.9c0-1,0.2-2,0.3-3
				c0.1-0.6,0.2-1.2,0.2-1.8c0,0,0.4-3.6,0.4-3.6c0.6-5.5,3.4-9.4-0.1-14.1l-1.6-0.4l-0.2,0C99.7,249.7,105.7,238.1,112.1,226.9z
				 M242.1,900.4c-75.5-49.2-132-123.5-166.3-206.2C19.2,558,29.5,399.9,91.3,267.1c0,0.1,0,0.2-0.1,0.4l-0.1,0.4
				c-0.3,1.1-0.6,2.1-1,3.1l-2.2,5.8c-0.3,0.8-0.6,1.6-0.8,2.4c-0.4,1.1-0.7,2.1-1.2,3.3c-0.5,1.2-1,2.4-1.4,3.5l-0.6,1.5
				c0,0-0.4,1.1-0.4,1.1l-1,2.7c-0.6,1.6-1.2,3.3-1.8,4.9c-0.2,0.5-0.4,1-0.6,1.6c-0.3,0.8-0.7,1.6-1,2.5l-0.6,2
				c-0.3,0.9-0.5,1.8-0.8,2.7c-0.3,1.1-0.6,2.2-1,3.4c-0.5,1.4-0.8,2.7-1.2,4l-0.3,1.4c0,0-0.3,1.4-0.3,1.4l-0.6,3.1
				c-0.1,0.7-0.2,1.4-0.3,2.1c-0.2,1.1-0.4,2.1-0.5,3.2c-0.1,0.4-0.1,0.9-0.2,1.3c-0.2,1.1-0.3,2.1-0.4,3.2l-0.1,8.5
				c-0.1,1,0,2.1,0,3c0,0.6,0.1,1.1,0.1,1.7c0,0,0.1,1.2,0.1,1.2c0,0,0.2,1.6,0.3,1.6c0.2,0.9,0.4,1.9,0.6,2.9l0.8,2.7l0.4,0.9
				c0.2,0.5,0.4,1,0.6,1.5l0.9,2c0.3,0.6,0.7,1.3,1.1,1.8c0.3,0.4,0.7,0.8,1.1,1.3l0.3,0.3c0.8,0.9,1.6,1.6,2.5,2.3
				c0.5,0.4,1,0.8,1.5,1.4c0.9,0.8,1.8,1.5,2.6,2.2l2,1.4c0.3,0.2,0.6,0.5,1.1,0.7c0.4,0.2,0.8,0.4,1.4,0.5l0.1,0.3
				c0,0,0.4,2.3,0.5,2.3l1.7,8.5c0.1,0.7,0.3,1.3,0.4,2c0.2,0.9,0.3,1.7,0.5,2.6l0.5,2.2c0.2,1.2,0.5,2.3,0.8,3.4
				c0.3,1,0.5,2,0.8,3.1c0,0,1,4.5,1,4.5l0.3,1.3c0,0,0.3,1.5,0.3,1.5l0.6,2.8c0.2,1,0.4,1.9,0.7,2.9c0.2,0.9,0.4,1.7,0.6,2.6
				c0.2,0.7,0.3,1.4,0.4,2.1c0.1,0.8,0.3,1.6,0.4,2.4l3.3,15.5c0.2,1.1,0.4,2.1,0.6,3.3l1,5.5c0.1,0.7,0.2,1.3,0.2,2
				c0.1,0.8,0.2,1.7,0.3,2.5l0.4,2.3c0.4,2.2,0.7,4.2,1,6.5c0,0,0.5,4.2,0.5,4.2l0.2,1.6l0,0.4c0.2,1.3,0.3,2.6,0.4,4
				c0.2,1.4,0.2,2.7,0.3,4.1l0.1,1.4c0.1,0.7,0.1,1.4,0.1,2.1c0,0.8,0,1.5,0.1,2.3l0.2,2.8c0.1,1.9,0.2,3.7,0.1,5.7
				c-0.1,1.3-0.2,2.5-0.2,3.6c0,0.1,0,0.3,0,0.4c-0.1,0.6-0.2,1.2-0.3,1.8l-0.2,2.3c0,0-0.1,0.6-0.1,0.6l-0.4,3.9
				c-0.1,1.2-0.2,2.5-0.4,3.7c-0.1,0.5-0.2,1.1-0.3,1.6c-0.1,0.8-0.3,1.5-0.4,2.3c-0.1,0.6-0.1,1.4-0.1,2.1c0,0.7-0.1,1.4-0.1,2.1
				c0,1.2-0.1,2.3-0.2,3.5c-0.1,1.1-0.2,2.2-0.4,3.3c0,0-0.1,1.8-0.1,1.8c0,0-0.1,1.1-0.1,1.1c0,0.1,0,0.2,0,0.3
				c-0.2-0.7-0.5-1.3-0.7-1.9c-0.3-1.2-0.5-2-0.5-2.9l-0.3-1.4c0-0.2-0.1-0.5-0.1-0.8l-0.2-1.3c0-0.2-0.4-2.3-1.5-3.2
				c-0.2-0.2-0.5-0.4-0.8-0.5c-0.2-0.1-0.5-0.2-0.8-0.2c0,0-0.6,0.1-0.7,0.1l-0.3,0.1c-0.2,0.1-0.7,0.4-1.3,2
				c-0.1,0.2-0.2,0.8,0,2.1c0,0.3,0.1,0.7,0.1,1l0,0.9l0,1.2c0,0.8,0,1.5,0,2.3c0,1,0,1.9-0.1,2.9l-0.1,1.1c0,0.6-0.1,1.2-0.2,1.8
				c-0.1,0.5-0.1,1-0.2,1.6l-0.1,1.7c-0.1,1.6-0.2,3.1-0.5,4.8c0,0-0.4,2.9-0.5,2.9l-0.2,1.3c0,0-0.2,1.6-0.2,1.6
				c-0.1,0.6-0.2,1.3-0.3,1.9c-0.1,0.6-0.2,1.2-0.3,1.8c-0.1,0.8-0.2,1.6-0.4,2.3c-0.1,0.5-0.2,0.9-0.3,1.4
				c-0.2,0.7-0.4,1.3-0.5,2.1l-0.3,1.7c-0.1,0.7-0.2,1.4-0.3,2c-0.1,0.9-0.3,1.9-0.5,2.9c-0.3,1.1-0.5,2-0.7,3l-0.3,1.7
				c0,0-0.2,1.1-0.2,1.1l-1.1,6.3c-0.1,0.4-0.2,0.8-0.3,1.3c-0.2,0.7-0.4,1.5-0.5,2.3l-0.2,1.7c-0.1,0.7-0.2,1.5-0.2,2.2
				c-0.1,0.9-0.2,1.9-0.4,2.9c-0.2,1.1-0.3,2.2-0.5,3.1l-0.2,1.7c0,0-0.1,1.1-0.1,1.1c-0.1,0.7-0.1,1.5-0.2,2.2l-0.2,4.4
				c0,0.5-0.1,1-0.1,1.5c-0.1,0.7-0.1,1.4-0.1,2.2l0.1,1.8c0,0.6,0,1.3,0.1,1.9l0.2,3.4c0,1.1,0.1,2.2,0.2,3.2l0.1,0.7
				c0,0.3,0,0.5,0.1,0.8l0.1,1.4l0.1,0l0.9,6.5c0.1,0.5,0.1,1,0.2,1.5c0.1,0.7,0.1,1.4,0.3,2.4l0.4,1.6c0.2,0.8,0.4,1.5,0.6,2.2
				c0.3,0.9,0.5,1.8,0.7,2.7c0.2,1.1,0.5,2.1,0.7,3.2c0,0,0.4,1.4,0.4,1.4l0.4,1.4l0.1,0c0.1,0.3,0.2,0.6,0.3,0.9l0.7,2
				c0.4,1.1,0.7,2.1,1.1,3.2c0.1,0.4,0.2,0.7,0.3,1.1c0.2,0.8,0.4,1.6,0.8,2.6l0.7,1.4c0.3,0.6,0.5,1.2,0.8,1.8
				c0.4,0.9,0.9,1.8,1.2,2.8c0.3,1.1,0.8,2,1.1,2.9l0.6,1.2c0,0,0.6,1.3,0.6,1.3l2.8,5.6c0.2,0.4,0.4,0.9,0.6,1.3
				c0.3,0.7,0.5,1.3,0.9,2l0.9,1.5c0.4,0.6,0.7,1.2,1.1,1.8c0.5,0.8,1,1.6,1.4,2.5c0.5,1,1,1.9,1.5,2.7l0.8,1.3c0,0,0.7,1.1,0.7,1.1
				l1.1,1.8c0.3,0.5,0.7,1,1,1.5c0.5,0.7,0.9,1.4,1.3,2.1c0.3,0.4,0.5,0.8,0.7,1.3c0.3,0.6,0.7,1.3,1.1,1.9l1,1.4
				c0.4,0.6,0.9,1.2,1.4,1.8c0.6,0.7,1.2,1.4,1.7,2.3c0.6,0.9,1.2,1.8,1.8,2.6c0,0,0.8,1.1,0.8,1.1c0,0,0.9,1.2,0.9,1.1
				c0.2,0.3,0.4,0.5,0.6,0.8l1.3,1.6c0.7,0.9,1.4,1.7,2.1,2.6c0.3,0.4,0.5,0.8,0.8,1.1c0.4,0.6,0.8,1.2,1.4,1.9l1.2,1.3
				c0.4,0.5,0.9,0.9,1.3,1.4c0.7,0.7,1.4,1.4,2.1,2.3c0.7,0.9,1.4,1.7,2,2.4l1,1c0,0,0,0,0.1,0.1c0,0,1,1,1,1l2.2,2.2
				c0.8,0.8,1.5,1.5,2.3,2.3c0.3,0.3,0.6,0.7,0.9,1c0.5,0.6,1,1.1,1.5,1.6c0.3,0.2,0.6,0.5,1,0.8l0.4,0.3c0.5,0.4,1,0.8,1.5,1.2
				c0.8,0.6,1.5,1.2,2.3,2c0.7,0.7,1.5,1.4,2.3,2.1l1.9,1.5c0.1,0.1,0.2,0.2,0.4,0.3c0.2,0.2,0.4,0.4,0.6,0.6c0.4,0.4,0.9,0.7,1.7,1
				c0.5,0.9,1,1.8,1.5,2.7c0.5,0.9,0.9,1.8,1.3,2.6l1.2,2.1c0,0,0,0.1,0.1,0.1c0,0,0.2,0.3,0.2,0.3c0.3,0.6,0.6,1.2,1,1.8
				c0.7,1.1,1.4,2.3,2,3.5c0.2,0.4,0.4,0.8,0.6,1.2c0.3,0.6,0.6,1.3,0.9,1.9l0.9,1.4c0.3,0.5,0.6,0.9,0.8,1.3
				c0.6,0.9,1.1,1.7,1.6,2.7c0.4,0.9,0.9,1.8,1.4,2.6l0.3,0.5c0,0.1,0.1,0.1,0.1,0.2l1,1.8l3,5.1c0.2,0.4,0.4,0.8,0.6,1.2
				c0.3,0.6,0.5,1.2,0.9,1.8l0.9,1.4c0.4,0.5,0.7,1,1.1,1.6c0.6,0.7,1.1,1.4,1.5,2.3c0.4,0.7,0.7,1.3,1.2,2c0,0,0.3,0.5,0.3,0.5
				l0.6,0.8c0,0,1.1,1.5,1.1,1.5l1,1.4c0.5,0.8,1,1.4,1.5,2c0.3,0.4,0.7,0.8,1,1.3c0.3,0.3,0.5,0.7,0.7,1c0.4,0.6,0.8,1.2,1.4,1.8
				l7.2,7l0.6,0.6c0,0,0.1,0.1,0.1,0.1l1,1l0.1-0.1c0.3,0.3,0.6,0.5,0.9,0.8l1.3,1c0.9,0.7,1.8,1.4,2.7,2.2c0.3,0.3,0.7,0.6,1,0.9
				c0.5,0.5,1.1,1,1.7,1.5l1.4,1c0.5,0.4,1,0.7,1.5,1c0.9,0.6,1.7,1.2,2.6,1.9c0.8,0.7,1.6,1.3,2.4,1.9c0,0,1.2,0.9,1.2,0.9l3.5,2.6
				c0.9,0.7,1.8,1.3,2.7,2c0.4,0.3,0.8,0.7,1.2,1c0.5,0.4,0.9,0.9,1.5,1.3l1.4,1c0.5,0.4,1,0.7,1.5,1.1c0.9,0.6,1.7,1.1,2.4,1.8
				c0.8,0.7,1.5,1.4,2.2,2c0,0,1.1,0.9,1.1,0.9c0,0,1.1,0.9,1.1,0.9l1.5,1.2c1,0.9,2.1,1.8,3.1,2.7c0.4,0.3,0.7,0.7,1,1
				c0.5,0.5,0.9,1,1.4,1.4l1.3,1c0.4,0.4,0.8,0.7,1.2,1.1c-0.7-0.3-1.8-0.7-3.1-1.1c-1-0.3-2.1-0.7-2.8-0.9l-3.5-1.4
				c-1.3-0.5-2.7-0.8-3.9-1.1l-3.9-0.9c-1.2-0.3-2.1-0.5-2.9-0.8c-0.2-0.1-0.4-0.1-0.6-0.2l-1.9-0.5c0,0-0.1,0-0.1,0
				c0,0-0.7-0.2-0.7-0.2c-0.3-0.1-0.6-0.2-0.9-0.2c-1-0.2-2.5-0.4-3.9-0.6c-1.1-0.2-2.1-0.3-2.8-0.4c-0.6-0.1-1.2-0.3-1.8-0.4
				c-0.6-0.2-1.2-0.3-1.8-0.4l-0.5-0.1c-1.6-0.4-3.2-0.6-4.4-0.7l-4.6-0.7c-2-0.4-3.3-0.7-4.7-1.1l-1.2-0.3l-1.6-0.5l0,0.1l-1.2-0.3
				c-0.5-0.1-1-0.2-1.6-0.4c-0.8-0.2-1.7-0.3-2.5-0.6c-1.6-0.5-3.3-1-4.3-1.4l-0.7-0.3c-1.3-0.5-2.5-0.9-3.7-1.5l-0.6-0.3
				c-1.3-0.6-2.7-1.2-4.1-1.8c-2.1-0.9-4.3-1.8-6.3-3c-2.7-1.5-4.3-2.5-6-3.6l-1-0.7c0,0-0.9-0.6-0.9-0.6l-1.1-0.7l-0.2-1.4
				c0,0-1.2-2.7-1.2-2.7l-0.4-0.7l-0.8-1.5c0,0,0,0,0-0.1c0,0-0.5-1-0.6-1c-0.7-1.3-1.4-2.7-2.2-4c-0.8-1.3-1.4-2.4-2.1-3.6
				c-0.4-0.7-0.8-1.4-1.2-2.1l-0.8-1.4c-0.6-1.1-1.2-2.2-2-3.3l-1.4-1.9c-0.9-1.2-1.8-2.3-2.8-3.5c-0.5-0.6-1-1.2-1.6-1.9
				c-1-1.2-2-2.4-3.1-3.6c0,0-0.9-0.9-1-0.9c0,0-1.1-1-1.1-1c-0.7-0.6-1.3-1.2-2-1.8l-0.4-0.3c-1.1-1-2.3-1.9-3.5-2.8l-0.9-0.7
				c-0.5-0.4-0.9-0.8-1.4-1.1c-0.7-0.6-1.4-1.2-2.2-1.8l-1.8-1.3c-0.5-0.4-1-0.8-1.6-1.1c-1.2-0.9-2.3-1.7-3.5-2.7
				c-1.5-1.4-2.8-2.6-4-3.9c-1-1-2-2-3.1-3.2c-1.1-1.2-2.2-2.5-3.4-4.1c-0.4-0.6-0.8-1.2-1.2-1.9c-0.4-0.6-0.8-1.3-1.2-1.9
				c0,0-1.7-2.5-1.8-2.7c-1.6-2.4-2.1-5.6-4-7.8c-1.3-1.6-4.3-3-6-1.2c-2.3,2.5,1.6,6.9,2.3,9.2l0.6,2.2l1.1,3.2
				c0.2,0.6,0.4,1.1,0.6,1.6c0.4,1.1,0.8,2.2,1.1,3.4c0.3,1.2,0.6,2.2,0.8,3.3l0.5,1.5c0,0,0.4,1.3,0.4,1.3l1,3.3
				c0.4,1.2,0.7,2.4,1.1,3.7c0.1,0.5,0.2,0.9,0.4,1.4c0.2,0.8,0.4,1.7,0.7,2.5c0.2,0.5,0.5,1.3,0.7,1.9l2.1,5.4
				c0.4,1.3,0.9,2.4,1.3,3.6l0.7,1.4c0,0,0.5,1.2,0.6,1.1c0.4,0.8,0.8,1.7,1.3,2.5c0.3,0.6,0.7,1.2,1,1.7c0.5,0.9,1,1.8,1.5,2.7
				c0.3,0.4,0.5,0.9,0.7,1.4c0.4,0.8,0.8,1.6,1.4,2.4l5,6.2c0.6,0.8,1.1,1.4,1.9,2.3c0.5,0.5,0.9,1,1.4,1.5c0,0,0.8,0.8,0.8,0.9
				c0,0,1.2,1.2,1.2,1.2c0.9,0.8,1.7,1.5,2.6,2.3l2.5,1.8l1,0.6c0.6,0.4,1.3,0.7,1.9,1.1l2.4,1.2c0.8,0.3,1.6,0.7,2.4,0.9
				c0.5,0.2,1.1,0.3,1.7,0.4l0.7,0.1c1.2,0.2,2.2,0.3,3.1,0.3l0.6,0c0.8,0,1.6,0.1,2.5,0.2c1,0.1,2,0.1,2.9,0.1c0.5,0,1,0,1.5,0
				l2.4-0.2c0.4,0,0.9,0,1.4-0.2c0.5-0.1,1.1-0.2,1.7-0.7c0,0,0.3,0.2,0.2,0.2l0.5,0.3l2,1.4l0-0.1c0.8,0.5,1.6,1,2.5,1.5l1.1,0.7
				c2.4,1.4,4.4,2.6,6.5,3.5c0.6,0.3,1.2,0.6,1.8,0.9c1.2,0.6,2.4,1.2,3.5,1.7c0.6,0.3,1.3,0.5,2,0.8l0.9,0.3
				c2.6,0.9,5.2,1.8,7.9,2.6c2.3,0.7,4.4,1.3,6.4,1.8c0,0,1.6,0.4,1.6,0.4c0.6,0.1,1.1,0.2,1.6,0.3c0.5,0.1,1,0.2,1.6,0.3l5.7,1.2
				c0.7,0.1,1.3,0.3,2,0.4c0.8,0.2,1.5,0.4,2.3,0.5l2.1,0.3c0.9,0.2,1.8,0.3,2.6,0.4c1.1,0.1,2.1,0.3,3.2,0.6
				c1.3,0.3,2.5,0.6,3.7,0.9l1.3,0.3c0,0,1.5,0.3,1.5,0.3c0.8,0.2,1.6,0.3,2.4,0.5c1.5,0.3,3,0.8,4.5,1.2c0.5,0.2,1.1,0.4,1.6,0.6
				c0.7,0.3,1.3,0.5,2,0.7l2.8,0.8c1.4,0.4,2.7,0.8,4.1,1.4c0,0,3.2,1.4,3.2,1.4l1.2,0.5l0.1,0c1.1,0.5,2.1,0.9,3.2,1.5
				c1.3,0.6,2.6,1.3,3.9,2.1c0.5,0.3,1,0.6,1.4,1c0.5,0.4,1.1,0.8,1.6,1.1l2,1.2c1.3,0.8,2.6,1.6,3.7,2.6c0.6,0.5,1.1,1,1.6,1.5
				c0.3,0.3,0.6,0.5,0.8,0.8c0.4,0.4,0.7,0.8,1.1,1.2l3.7,4c0.7,0.8,1.5,1.6,2.2,2.4c0.3,0.4,0.6,0.8,0.9,1.1c0.4,0.5,0.7,1,1.2,1.5
				l1.1,1.2c0.4,0.4,0.8,0.9,1.2,1.3c0.7,0.7,1.3,1.4,1.9,2.2c0.5,0.7,1,1.3,1.5,1.9c-0.1,0-0.2-0.1-0.2-0.1l-0.4-0.2
				c-0.6-0.4-1.2-0.8-1.8-1.1c-0.5-0.3-1-0.6-1.5-0.9l-3.2-2.1c-1-0.8-1.6-1.4-2.3-2.2c-0.1-0.1-0.1-0.1-0.1-0.2l-1-1
				c-0.2-0.2-0.4-0.4-0.7-0.7l-0.9-1c-0.1-0.1-1.8-1.8-3-2c-1.4-0.3-2.2,0.1-2.6,1.1c-0.1,0.3-0.3,0.7,0.4,2.4
				c0.1,0.2,0.3,0.8,1.3,1.7c0.3,0.3,0.5,0.6,0.7,0.9l1.5,1.9l4.2,5.6c0.5,0.6,0.9,1.3,1.4,1.9l0.8,1.2l2.3,2.8c0.8,1,1.7,1.9,2.5,3
				c0,0,2,2.6,2,2.6c0,0,1,1.3,1,1.3c0,0,0.8,1,0.8,1c0.2,0.2,0.4,0.4,0.5,0.6c0.4,0.4,0.7,0.8,1.1,1.3l1,1.1c0.7,0.8,1.4,1.6,2,2.5
				c0.3,0.4,0.6,0.8,0.9,1.2c0.5,0.7,0.9,1.3,1.5,2l1.3,1.4c0.5,0.5,1,1,1.4,1.6c0.8,0.8,1.5,1.6,2.3,2.6l0.3,0.4
				c0.6,0.8,1.2,1.5,1.8,2.2l7.2,7.5c0.3,0.3,0.6,0.7,0.9,1c0.6,0.7,1.1,1.4,1.8,1.9l1.5,1.3c0.6,0.6,1.2,1.1,1.8,1.6
				c0.8,0.7,1.6,1.4,2.4,2.2c0.8,0.8,1.7,1.6,2.5,2.4l1.7,1.4c0.9,0.7,1.8,1.5,2.8,2.2l3.9,3c0.4,0.3,0.7,0.6,1.1,0.8
				c0.7,0.6,1.4,1.1,2.2,1.7l6.6,4.2c1.1,0.7,2.1,1.3,3.1,1.9l1.4,0.8c0,0,1.1,0.6,1.1,0.6l2.4,1.3l4.4,2.2c0.5,0.2,1,0.5,1.5,0.8
				c0.7,0.4,1.4,0.8,2.1,1.1l1.9,0.8c0.8,0.3,1.6,0.6,2.3,0.9c1,0.4,2,0.7,3.1,1.2c1.2,0.5,2.3,1,3.4,1.5l1.3,0.5
				c0,0,1.3,0.5,1.4,0.5c0.4,0.1,0.7,0.2,1.1,0.4l5.9,2c0.4,0.2,0.8,0.3,1.3,0.5c0.8,0.3,1.6,0.7,2.8,1l1.6,0.4
				c0.7,0.2,1.4,0.3,2.1,0.5c1.1,0.2,2.2,0.5,3.3,0.9c1.3,0.4,2.4,0.7,3.6,1l1.2,0.3c0,0,1.6,0.4,1.6,0.3l6.8,1.5
				c0.5,0.1,1,0.2,1.5,0.4c0.7,0.2,1.5,0.4,2.2,0.5l1.8,0.3c0.8,0.1,1.5,0.2,2.2,0.4c1,0.1,2,0.3,3,0.5c1.2,0.2,2.4,0.5,3.6,0.7
				l0.8,0.1c0.2,0,0.3,0.1,0.5,0.1c0,0,1.6,0.3,1.6,0.2l7.1,1c0.5,0.1,1.1,0.2,1.6,0.3c0.8,0.2,1.6,0.3,2.4,0.4l2,0.1
				c0.8,0.1,1.7,0.1,2.5,0.1c1,0,2.1,0,3.2,0.2c1.3,0.2,2.6,0.3,3.9,0.3c0,0,1.2,0.1,1.3,0.1c0,0,1.6,0.1,1.6,0c0.3,0,0.7,0,1,0l6,0
				c0.5,0,1.1,0,1.6,0.1c0.7,0,1.3,0.1,1.9,0.1l2.4-0.2c0.7-0.1,1.4-0.1,2.1-0.2c1.1-0.1,2.2-0.2,3.4-0.2c1.4,0,2.6-0.1,3.8-0.2
				l1.1-0.1c0,0,0.1,0,0.1,0l0.3,0l8-1c0.5-0.1,1-0.1,1.5-0.1c0.8-0.1,1.6-0.1,2.4-0.3l1.8-0.4c0.7-0.1,1.4-0.3,2.1-0.5
				c1-0.2,2-0.5,3.2-0.7c1.3-0.2,2.5-0.4,3.5-0.7c0,0,1.2-0.3,1.2-0.3l1-0.2c0.2,0,0.4-0.1,0.6-0.1c0.3,0,0.6-0.1,0.8-0.2
				c2.9-0.8,6-0.6,9-0.3l1.4,0.1c0,0,1.4,0.1,1.4,0.1l2.3,0.1c1.5,0,3,0.1,4.6,0.2c0.5,0,1.1,0.1,1.6,0.1c0.7,0.1,1.4,0.1,2.2,0.2
				l1.8,0l0.9,0c0.5,0,1,0,1.5,0c1,0,2,0,3,0c1.2,0.1,2.3,0.1,3.4,0.2l9.7,0.1c0.5,0,1.1,0.1,1.6,0.1c0.7,0.1,1.4,0.1,2.1,0.1l1.8,0
				l0.7,0c0.5,0,1,0,1.6,0c1,0,2.1-0.1,3.2,0c1.2,0.1,2.3,0.2,3.3,0.2l9.8,0.6c0.5,0,1,0.1,1.5,0.2c0.7,0.1,1.5,0.2,2.2,0.2l1.8,0.1
				c0.9,0.1,1.7,0.1,2.6,0.1c0.9,0,1.9,0.1,2.9,0.2l1.3,0.1c0.7,0.1,1.3,0.1,1.9,0.2l5.3,0.3c0.8,0.1,1.6,0.1,2.4,0.1
				c0.7,0,1.5,0,2.2,0.1c0.5,0,1,0.1,1.5,0.1c0.8,0.1,1.5,0.2,2.4,0.2c0.4,0,0.9,0,1.4-0.1l1.3-0.1c1.5-0.1,3-0.2,4.6-0.2h0.4
				c1.2,0,2.3-0.1,3.3-0.2c0,0,1.7-0.2,1.8-0.2c0.4,0,0.8-0.1,1.2-0.1c0.9-0.1,1.8-0.2,2.7-0.3l4.8-0.7c0.5-0.1,1-0.1,1.5-0.1
				c0.9-0.1,1.7-0.1,2.5-0.3l1.9-0.4c0.7-0.1,1.5-0.3,2.2-0.5c1.1-0.3,2.2-0.5,3.5-0.7c1.1-0.2,2.2-0.4,3.2-0.5l1.8-0.4
				c0,0,1.1-0.2,1.1-0.2l7.4-1.6c0.5-0.1,1-0.2,1.5-0.3c0.8-0.1,1.5-0.2,2.3-0.4l1.9-0.5c0.3-0.1,0.6-0.2,0.9-0.2l-2.7,1.5
				c-1.2,0.8-2.5,1.5-3.3,2c-0.9,0.5-1.8,1-2.8,1.5l-1.2,0.6c-1.5,0.8-2.9,1.6-4.4,2.5c-1.3,0.9-2.6,1.7-4.1,2.5
				c-1.4,0.8-2.5,1.3-3.5,1.8c-0.3,0.2-0.6,0.3-0.9,0.5l-3.8,1.9c-0.8,0.4-2,1-3.1,1.7c-1.5,0.9-3.3,1.8-4.4,2.3l-14.4,6.3
				c-2,0.7-3.4,1.2-4.9,1.7c0,0-0.5,0.2-0.5,0.2l-1,0.4c0,0-1.6,0.5-1.6,0.5c-0.4,0.1-0.7,0.2-1.1,0.4c-0.8,0.3-2,0.7-3.3,1.1
				c-1.6,0.6-3.5,1.3-4.5,1.5l-4.6,1.2c-2.1,0.6-4.1,1.3-6,1.9c-1,0.3-1.9,0.7-2.9,1c-1.3,0.4-2.2,0.7-3.1,0.9
				c-0.4,0.1-0.7,0.2-1.1,0.3l-3.3,1.1l-0.5-0.5c0,0-2.9-1-2.9-1c0,0-0.4-0.1-0.4-0.1c0,0-0.3-0.1-0.3-0.1c0,0-2.1-0.4-2.1-0.3
				c-1.1-0.2-2.2-0.3-3.4-0.4c-1.9-0.2-3.9-0.3-5.8-0.3l-0.5,0c-0.6,0-1.1,0-1.7-0.1c-0.9,0-1.8-0.1-2.7-0.1l-3.3,0.2
				c-1.3,0.1-2.6,0.2-3.9,0.4c-1.1,0.1-2.3,0.3-3.6,0.4c-1.8,0.2-3.6,0.5-5.3,0.8c0,0-1.1,0.2-1.2,0.2c0,0-1.7,0.4-1.7,0.4
				c-1.1,0.2-2.2,0.5-3.3,0.8l-5.8,1.6c-0.6,0.2-1.2,0.3-1.8,0.5c-1,0.2-2,0.5-3,0.8l-2.2,0.7c-0.7,0.2-1.3,0.4-2,0.6
				c-1.5,0.5-2.9,0.9-4.6,1.3c-1.8,0.4-3.5,0.7-5.1,1l-0.7,0.1l-0.1,0c-1.6,0.3-3.1,0.5-4.8,0.7c-2,0.2-4,0.3-5.9,0.4l-0.5,0
				c-0.8,0-1.7,0-2.5-0.1c-0.7,0-1.3-0.1-2-0.1l-3.5,0c-2.1-0.1-4-0.1-6.2-0.5c-2-0.3-7.9-2.8-8.1,0.2
				C371.5,964.3,302.3,939.6,242.1,900.4z M810.2,870.3c-26.1,26.4-58.3,45.3-91.7,61.1c-54.7,25.9-114.3,40-174.6,44.2
				c0.4-0.5,0.7-1,1-1.5l0,0l1.2-2c0.2-0.3,0.4-0.6,0.6-1.1c0.2-0.4,0.4-0.8,0.4-1.4l2.2-0.6l0.2-0.1l0,0l9.5-2.6
				c1.1-0.3,2.2-0.5,3.3-0.9l2.3-0.7c1.1-0.3,2.2-0.7,3.4-1.1c1.1-0.4,2.3-0.8,3.6-1.1l0.4-0.1c1.7-0.5,3.3-1,4.9-1.5l0,0l0.5-0.2
				c0.2-0.1,0.4-0.1,0.7-0.2l1.6-0.6l0,0l10.7-4c1.3-0.5,2.7-1,4-1.6l5.9-2.9c1.1-0.6,2.1-1.2,3.3-1.7l1.3-0.6
				c1.2-0.6,2.3-1.1,3.4-1.7l0,0l6.4-3.6c1.5-0.8,3-1.6,4.4-2.5c0.6-0.3,1.3-0.7,1.9-1c0.8-0.4,1.6-0.8,2.4-1.2l2.1-1.2
				c0.6-0.4,1.2-0.7,1.8-1.1c1.3-0.8,2.6-1.6,4-2.3c1.4-0.7,2.7-1.3,3.9-2l0,0l1.4-0.8l1.1-0.6l0,0c0.9-0.5,1.8-1,2.8-1.5
				c1.6-0.9,3.2-1.7,4.9-2.4c0.6-0.3,1.2-0.5,1.8-0.7c0.8-0.3,1.5-0.6,2.2-0.9l2.5-1.2c1.7-0.8,3.3-1.5,5.1-2.1l3.7-1.2
				c0.5-0.1,1.1-0.2,1.6-0.4l0,0l1.9-0.5l1-0.3v0l3.5-0.9c1.1-0.3,2.3-0.6,3.4-0.8c0.5-0.1,1-0.2,1.5-0.3c0.7-0.1,1.5-0.2,2.2-0.4
				l1.8-0.5c0.7-0.2,1.3-0.4,1.9-0.6c1-0.3,2.1-0.6,3.2-0.9c1-0.2,2-0.4,2.9-0.7l0,0l2-0.5l0.7-0.2c0.2,0,0.3-0.1,0.5-0.1
				c0.3-0.1,0.6-0.1,1.1-0.2c0.6-0.2,1.3-0.3,2.1-1.1c1.1-1,1.9-2.7,1.2-4c-0.3-0.6-0.9-1.1-1.6-1.3c-0.2-0.1-0.4-0.1-0.6-0.2
				l-0.5,0c-0.6,0-1.1,0.2-1.7,0.4c-0.1,0-0.3,0.1-0.4,0.1l-0.1,0l0,0l-1.7,0.3c0,0,0,0,0,0l-1.2,0.2l0,0c-0.3,0.1-0.6,0.1-1,0.2
				c-0.7,0.2-1.6,0.5-2.6,0.8c-1.2,0.4-2.5,0.8-3.3,0.9c-0.5,0.1-1,0.2-1.5,0.3c-0.5,0.1-1,0.2-1.5,0.3l-0.4,0.1
				c-1.5,0.3-3,0.8-4.4,1.2c-1,0.3-1.9,0.6-2.9,0.8c-1.2,0.3-2.1,0.5-2.9,0.6l0,0l-1.6,0.3c0,0-0.1,0-0.1,0l-1.2,0.2l0,0
				c-0.3,0.1-0.6,0.2-1,0.2c-0.6,0.2-1.5,0.4-2.5,0.7c-1.3,0.4-2.6,0.8-3.5,1c-0.5,0.1-1,0.2-1.6,0.3c-0.5,0.1-1.1,0.2-1.5,0.3
				l-0.4,0.1c-1.7,0.3-3.3,0.8-4.9,1.3c-0.8,0.3-1.7,0.5-2.5,0.8c-0.6,0.2-1.2,0.3-1.7,0.4c-0.1,0-0.3,0-0.4,0l-0.5,0
				c-0.2,0-0.4,0-0.6,0l-2.7-0.1l0,0l-2.8-0.1c-1.4-0.1-2.8-0.1-4.2-0.2c-0.5,0-1.1-0.1-1.6-0.2c-0.7-0.1-1.3-0.2-2-0.2l-1.8-0.1
				c-0.6,0-1.2-0.1-1.8-0.1c-1.1-0.1-2.3-0.1-3.4-0.3c-1-0.1-1.9-0.3-2.8-0.4l0,0l-1.8-0.2c-1.1-0.1-2.3-0.3-3.5-0.5
				c-1.4-0.2-2.9-0.5-4.2-0.8c-0.5-0.1-1-0.3-1.6-0.4c-0.6-0.2-1.2-0.3-1.8-0.5l-2.6-0.5c-1.3-0.3-2.6-0.6-3.8-1l-2.5-0.9l0,0
				l-1.4-0.5l-0.1-0.1c-1-0.3-1.9-0.7-3-1.2c-1.2-0.5-2.4-1.1-3.5-1.7c-0.5-0.2-0.9-0.5-1.4-0.8c-0.4-0.3-0.9-0.6-1.3-0.8l-1.9-1.1
				c-1.1-0.7-2.1-1.3-3-2.1l-0.9-0.8c0.1-0.7,0.1-1.4,0-2c-0.1-1.2-0.3-2.2-0.6-3.3l-0.3-1.2c0,0,0-0.1,0-0.1l-0.3-0.9
				c-0.1-0.4-0.3-0.9-0.6-1.5l-0.6-0.9c-0.2-0.3-0.4-0.6-0.7-0.9c-0.4-0.4-0.9-1-1.3-1.4c-0.7-0.6-1.3-1.2-2-1.7
				c-0.4-0.4-0.9-0.7-1.3-1.1c96.4,9.8,206.2-12.1,283.7-73.9C841.6,834.4,827,853.3,810.2,870.3z"/>
		</g>
		<g>
			<path d="M218.4,151.4c0.8,0,1.2-0.6,1.5-0.9c0.1-0.1,0.2-0.3,0.4-0.4c1.1-1.1,1.8-3,2.5-5.6c0.3-2.1-0.1-2.9-0.5-3.3
				c-0.3-0.4-0.8-0.6-1.2-0.6l-0.7,0.1l-0.4,0.3c-1,0.7-1.8,2.2-2.8,5.1c-0.3,1-0.6,1.7-0.6,2.3c-0.1,0.6,0.1,1.1,0.2,1.5
				C217.1,151.2,217.9,151.4,218.4,151.4z"/>
		</g>
		<g>
			<path d="M206.8,172c-0.3,0.9-0.7,1.8-0.6,2.7c0.1,0.4,0.2,0.8,0.4,1c-0.5,0.2-0.9,0.5-1.2,0.8c-0.3,0.3-1.1,1.5-1.2,1.8l-1,2.1
				l-0.1,0l-0.8,1.8l-0.4,0.8l0,0l-2.6,6c-0.5,1.1-1,2.1-1.7,3.4c-1.9,3.7-4.3,8.1-6.8,12.4c-2.2,3.9-4.7,7.7-7.6,11.7l-0.7,0.9
				c-0.7,1-1.5,1.9-2,3c-0.8,1.6-1.9,2.9-3.1,4.2c-0.4,0.4-0.7,0.9-1.1,1.3l-0.1-0.1l-1.1,1.4l-0.7,0.9l0,0
				c-0.5,0.7-1.1,1.4-1.6,2.1c-0.9,1.3-1.2,2.4-1,3.1l0.3,0.8l0.6,0.3c0.5,0.2,1.1,0.5,1.7,0.5c0.4,0,0.8-0.1,1.2-0.3
				c0.8-0.5,1.6-1.6,2.6-2.8l0.9-1.2l5.5-7l5-6.9c0.4-0.5,0.7-1,1-1.5c0.2-0.3,0.3-0.5,0.5-0.8l4.1-6.7c0.3-0.6,0.6-1.1,1-1.7
				c0.9-1.4,1.6-2.7,2.2-3.9l0.4-0.8c0.5-0.9,0.9-1.9,1.3-2.8l1.6-3.5c0.5-1.2,1.2-2.5,1.9-3.9c0.4-0.7,1-2.2,1.5-3.4l2.4-5.8l1-2.1
				c0.1-0.2,0.5-1.2,0.5-1.8c0-0.5-0.1-1-0.3-1.4c0.2,0,0.3-0.1,0.5-0.2c0.8-0.4,1.4-1.4,1.9-2.5c0.9-1.8,1.6-3.8,2.2-5.6l0.7-2.1
				c0.3-1,0.6-1.8,1.1-2.7c1.4-2.7,2.4-4.8,3.2-7.9l0.1-0.4l-0.1-0.4c0-0.1-0.1-0.2-0.1-0.4c-0.1-0.5-0.2-1.2-0.8-1.7l-0.6-0.4h-0.5
				c-1.3,0-2.1,1.3-3,2.8c-0.9,2.6-1.9,5.1-2.9,7.7l-0.8,1.9c-1.1,2.6-1.3,3.1-2.8,6.8L206.8,172z M208.3,175.3L208.3,175.3
				l-0.4,0.4c0,0,0,0,0,0L208.3,175.3z"/>
		</g>
		<g>
			<path d="M171.4,237.3c-0.9-0.4-2-0.4-2.7,0.2c-2.4,1.9-6.7,6.9-6.6,9.9c0,0.9,0.4,1.6,1.1,2.1l0.5,0.3h0.4c2.4,0,6.8-7.2,7.9-9.6
				C172.4,239.3,172.5,237.8,171.4,237.3z"/>
		</g>
		<g>
			<path d="M184.6,173.6h0.6c0.4,0,0.7-0.2,1-0.3c0.1,0,0.2-0.1,0.3-0.2c1.5-0.5,2.7-2.1,3.7-3.5l0.2-0.3c0.8-1.6,1-2.6,0.5-3.4
				c-0.3-0.5-0.9-0.9-1.7-0.8c-1.2,0.1-2.6,1.2-4.2,3c-0.6,0.7-1,1.3-1.2,1.7c-0.3,0.5-0.3,1.1-0.2,1.5c0,0.3-0.1,1,0.4,1.6
				L184.6,173.6z"/>
		</g>
		<g>
			<path d="M145.2,260.1L145.2,260.1c1.4,0,2.2-1.4,2.7-4.5c0.2-1,0.4-2.1,0.5-3.1c0.1-1.1,0.2-2.2,0.1-3c-0.1-0.9-0.6-2.1-2-2.1
				c0,0,0,0,0,0c-0.8,0.1-1.7,0.5-2.2,1.3c-0.4,0.8-0.9,1.9-1.2,3c-0.4,1.4-0.6,2.4-0.6,3.3c-0.2,2,0.1,3.4,0.9,4.2
				C143.9,259.8,144.5,260.1,145.2,260.1z"/>
		</g>
		<g>
			<path d="M146.1,245.1h0.7l0.1,0c0.6,0,1.9-0.1,2.5-1.1c0.5-0.7,0.8-1.8,1.1-2.8l0.2-0.6l0,0l0.3-1.1l0.1-0.2
				c0.5-1.6,1-3.1,1.5-4.7l0.7-2.2c0.6-2,1.4-4.2,2.5-6.7c0.2-0.4,0.3-0.9,0.5-1.3c0.1-0.3,0.2-0.6,0.3-0.8c1.2-3.4,2.1-5.4,3.1-7.6
				c1.2-2.5,2.1-4.4,3-6.4c0.7-1.6,1.6-3.7,3-6.1c0.3-0.5,0.8-1.4,1.2-2.2c0.3-0.5,0.6-1.1,0.8-1.5l0.5-1l1.8-2.7l0,0l1-1.5
				c0.1-0.2,0.6-1.1,0.6-1.7c0-0.3-0.1-0.6-0.1-0.9l0.1,0c1-0.1,1.7-0.9,2.4-1.7c1-1.2,1.8-2.4,2.6-3.7c0.3-0.5,0.7-1.1,1-1.6
				l0.3-0.5c0.5-0.8,0.9-1.4,1.5-2.1c0.5-0.5,0.9-1,1.3-1.4c1.2-1.2,2.3-2.3,3.4-4l0.2-0.4l0-0.4c0-0.1,0-0.2,0-0.4
				c0-0.5,0.1-1.1-0.2-1.7c-0.3-0.6-1-1-1.7-1c-0.8,0-1.6,0.5-2.5,1.2l-2.5,3c-0.5,0.7-1,1.3-1.6,2l-3.1,4c-0.5,0.6-0.9,1.2-1.5,2.1
				l-1.1,1.6c-0.5,0.7-1.1,1.6-1.1,2.6c0,0.3,0.1,0.5,0.2,0.8c-0.3,0-0.7,0.1-1,0.3c-0.5,0.3-1.3,1.2-1.5,1.5l-1,1.5l-0.1,0
				l-0.9,1.4l-0.7,1l0.1,0l-1.2,1.9c-0.7,1.2-1.2,2.1-1.7,3.1c-0.5,0.9-1,1.9-1.6,3c-0.9,1.5-1.7,3-2.4,4.6l-2,3.9l-2.1,5
				c-0.5,1.2-1,2.5-1.5,3.7c-0.7,1.9-1.5,3.9-2.3,5.8c-0.5,1.3-1,2.8-1.2,4.2c-0.1,1.4-0.7,2.8-1.2,4.2c-0.2,0.5-0.4,1.1-0.6,1.7
				l-0.1,0l-0.4,1.2v0l0,0l-0.1,0.3c-0.3,1-0.6,2.1-0.7,3.2c-0.1,0.9-0.2,2.2,0.4,2.9L146.1,245.1z"/>
		</g>
		<g>
			<path d="M89.1,355.5c0.3,0,0.7-0.1,1-0.2l0.3-0.2c0.5-0.4,0.8-1,0.9-1.8c0.2-1.4-0.1-3.6-1.1-4.9c-0.3-0.4-0.8-0.6-1.3-0.7
				c0.4-0.5,0.7-1.1,0.8-1.8c0.2-2.3,0.1-4.3-0.5-6c0-0.1-0.1-0.3-0.1-0.5c-0.1-0.6-0.4-1.9-1.5-2.3c0.2-0.2,0.5-0.4,0.7-0.8
				c0.7-1.6,0.3-5.6-0.6-7.6c-0.3-0.6-1-1.2-1.8-1.2l-0.6,0.1c-0.3,0.1-1.3,0.6-1.6,1.6c-0.5,2-0.7,5.6,0.6,7.3
				c0.3,0.4,0.8,0.7,1.3,0.8c-0.7,0.4-1.3,1.3-1,2.9c0,0.1,0.1,0.3,0.1,0.4c-0.1,1.9-0.1,4.8,1.2,7.3l0.6,1.1
				c-0.1,0.1-0.1,0.2-0.2,0.3c-0.4,1.5-0.4,3.7,0.6,5C87.6,355.1,88.3,355.5,89.1,355.5C89.1,355.5,89.1,355.5,89.1,355.5z"/>
		</g>
		<g>
			<path d="M108.6,558.9c0.4,0.4,1,0.6,1.4,0.7c0.3,0.1,0.6,0.2,1,0.2l0.8,0l0.4-0.5c0.5-0.6,0.3-1.3,0.2-1.7c0-0.1-0.1-0.3-0.1-0.5
				c-0.2-1.6-1.3-3.2-2.8-5.1c-1.6-1.5-2.4-1.5-2.7-1.5c-0.9,0-1.6,0.7-1.7,1.6c-0.1,1.3,0.5,2.8,2.1,5.1
				C107.8,558,108.2,558.6,108.6,558.9z"/>
		</g>
		<g>
			<path d="M111.4,561.3c-0.5,1-0.1,2.1,0.3,3.3l0.1,0.3c1.4,2.1,2.7,4.2,4,6.4l4.4,7.5l0.2,0.4c0.5,0.7,1,1.6,1.8,2
				c0.3,0.2,0.6,0.2,0.9,0.2c-0.1,0.3-0.2,0.7-0.2,1.1c0,0.5,0.5,1.8,0.6,2l0.8,1.7l0,0l0.8,1.5l0.5,1l0,0l1.1,2.1
				c0.6,1.3,1.1,2.3,1.7,3.2c0.5,1,0.9,1.9,1.4,3.1l0.8,2.1c1.3,3.4,2.6,6.7,3.6,10c1.5,4.7,2.4,8.6,3,12.4l0.1,1
				c0.1,1.1,0.3,2.3,0.7,3.4c0.6,1.7,0.7,3.5,0.7,5.3c0,0.3,0,0.7,0.1,1.1l-0.1,0l0.2,1.6l0.1,1.2l0,0c0.1,0.8,0.1,1.5,0.3,2.3
				c0.2,1.1,0.7,3,2.3,3l0.5-0.1c0.6-0.2,1.9-0.6,2.3-1.8c0.2-0.9,0.2-2.2,0-3.7l-0.1-1.5l0-0.2c0-0.1,0-0.2,0-0.3l-0.1-1.2l0,0
				c-0.2-2-0.4-4.1-0.7-6.6l-1.3-7.9c-0.1-0.6-0.3-1.1-0.4-1.6c-0.1-0.3-0.2-0.5-0.2-0.8l-2.5-8.7c-0.5-1.6-0.9-2.8-1.4-3.9
				l-0.3-0.8c-0.4-0.9-0.7-1.8-1.1-2.6l-1.5-3.3c-0.5-1.1-1.1-2.3-1.7-3.6c-0.3-0.7-1.1-2.1-1.6-3.1l-2.6-5l0,0l-1-1.9
				c0-0.1-0.6-1.1-1.1-1.4c-0.4-0.3-0.7-0.4-1.1-0.5c0-0.1,0.1-0.1,0.1-0.2c0.2-0.9-0.2-1.9-0.6-3c-1-2.1-2.3-4-3.6-5.9l-0.4-0.6
				c-0.5-0.8-1-1.4-1.4-2.2c-1.2-2.6-2.2-4.5-4-6.8l-0.3-0.3l-0.4-0.1c-0.1,0-0.2-0.1-0.4-0.2c-0.4-0.2-0.9-0.4-1.4-0.4l-0.4,0
				C112.2,560.5,111.7,560.8,111.4,561.3z"/>
		</g>
		<g>
			<path d="M142.8,643.2c-0.8,0.2-1.7,0.9-1.9,1.9c-0.7,3.1-0.7,8.5,1.1,10.7c0.7,0.9,1.6,1.1,2.2,1.1l0.4,0c0.5-0.1,1-0.4,1.3-0.9
				c1.1-1.8,0.4-8.2-0.7-11.2c-0.2-0.6-1-1.7-2-1.7L142.8,643.2z"/>
		</g>
		<g>
			<path d="M103.6,595.5c0.2,0.2,0.7,0.6,1.4,0.6c0.8,0,1.3-0.5,1.6-1.3c0-0.1,0.1-0.2,0.1-0.3c0.7-1.4,0.4-3.3,0-4.9l-0.1-0.3
				c-0.7-1.6-1.5-2.3-2.5-2.3c-0.5,0-1,0.2-1.4,0.7c-0.8,1-1,2.5-0.7,4.8c0.1,0.8,0.3,1.5,0.5,2C102.8,595,103.3,595.3,103.6,595.5z
				"/>
		</g>
		<g>
			<path d="M135.9,670.5c-0.5-0.8-1.1-1.6-1.7-2.3c-0.7-0.9-1.3-1.6-1.9-2.1c-0.4-0.4-1.1-0.6-1.6-0.6l-0.7,0l-0.4,0.4
				c-0.6,0.5-1.1,1.5-0.9,2.4c0.2,0.9,0.5,1.8,1,2.8c0.5,1,1.1,1.9,1.6,2.6c1.2,1.5,2.4,2.3,3.6,2.3c0.6,0,1.2-0.2,1.7-0.6
				C138,674.3,137,672.2,135.9,670.5z"/>
		</g>
		<g>
			<path d="M128.4,659.2L128.4,659.2L128.4,659.2l-0.6-1.1l-0.1-0.2c-0.7-1.3-1.3-2.6-1.9-3.9l-0.9-1.9c-0.9-1.9-1.8-3.9-2.6-5.8
				c-0.2-0.4-0.4-0.8-0.6-1.2c-0.1-0.2-0.2-0.4-0.3-0.6c-1.4-2.8-2.1-4.7-2.8-6.6c-0.9-2.3-1.6-4-2.3-5.8c-0.8-1.9-1.5-3.5-2.1-5.6
				c-0.1-0.5-0.5-1.4-0.8-2.2c-0.2-0.5-0.4-1-0.5-1.3c-0.1-0.2-0.2-0.4-0.3-0.7c-0.1-0.2-0.1-0.3-0.2-0.3l-0.7-3l0,0l-0.3-1.4
				c-0.1-0.2-0.4-1.2-0.9-1.6c-0.2-0.1-0.4-0.2-0.5-0.3c0.5-0.8,0.5-1.7,0.4-2.6c-0.1-1.4-0.5-2.7-0.9-4c-0.2-0.5-0.3-1.1-0.4-1.6
				l-0.1-0.4c-0.2-0.8-0.4-1.5-0.4-2.2l0-1.1c-0.1-1.9-0.1-3.4-0.7-5.4l-0.2-0.5l-0.4-0.3c-0.1-0.1-0.2-0.1-0.2-0.2
				c-0.3-0.3-0.8-0.7-1.5-0.8l-0.3,0c-2,0-2.3,2.4-2.4,3.2l0,0.2l1.7,10c0.1,0.7,0.2,1.3,0.5,2.3l0.4,1.7c0.2,0.7,0.5,1.8,1.3,2.4
				c0.1,0.1,0.3,0.2,0.4,0.2c-0.1,0.2-0.2,0.4-0.3,0.6c-0.2,0.5-0.1,1.7,0,2l0.3,1.4l-0.1,0l0.4,1.6l0.3,1.2l0.1,0l0.5,1.8
				c0.3,0.9,0.6,1.7,0.9,2.5c0.4,1,0.7,2,1.1,3.3c0.4,1.5,0.9,2.9,1.4,4.3l3.2,8c0.5,1.1,0.9,2.2,1.4,3.2c0.8,1.6,1.5,3.3,2.2,5
				c0.5,1.2,1,2.4,1.9,3.5c0.8,1,1.3,2.1,1.8,3.3c0.2,0.4,0.3,0.8,0.5,1.3l0,0l0.7,1.2c0,0,0,0,0,0l0.7,1.2l0,0
				c0.3,0.5,0.6,1,0.9,1.5c0.4,0.6,1.3,1.7,2.4,1.7l0.7-0.1l0.4-0.3c0.5-0.4,1.5-1.3,1.4-2.4C129.5,661.3,129,660.3,128.4,659.2z
				 M108.5,615.3L108.5,615.3L108.5,615.3L108.5,615.3L108.5,615.3z"/>
		</g>
		<g>
			<path d="M143.7,772.6l-0.4,0c-0.4,0-0.8,0.1-1.2,0.4c0.1-0.7-0.1-1.5-0.5-2.1c-1.1-1.6-2.5-3.5-4.5-4.7c-0.1-0.1-0.2-0.2-0.4-0.3
				c-0.5-0.4-1.1-0.9-1.9-0.9c-0.2,0-0.4,0.1-0.5,0.1c0.1-0.3,0.1-0.6,0-1c-0.4-1.7-3.2-4.3-5.1-5.1c-0.3-0.2-0.7-0.2-0.9-0.2
				c-0.7,0-1.3,0.3-1.6,0.8c-0.2,0.4-0.8,1.4-0.4,2.3c0.8,2,3.2,5.1,5.5,5.1h0c0.3,0,0.6-0.1,0.8-0.2c-0.1,0.3-0.1,0.6-0.1,0.9
				c0.1,0.9,0.8,1.4,1.2,1.8c0.1,0.1,0.3,0.2,0.3,0.3c1.5,2,3.3,4.2,5.9,5.3l1.3,0.5c0,0.2,0.1,0.3,0.1,0.5c0.9,1.9,3.1,3.9,5,3.9
				c1,0,1.9-0.6,2.4-1.8C149.1,776,145.5,773,143.7,772.6z"/>
		</g>
		<g>
			<path d="M314.3,871.9c-0.1-0.1-0.3-0.2-0.5-0.3c-1.4-0.8-3.5-1.2-5.4-1.5l-0.4-0.1l-0.1,0c-2,0-3,0.4-3.4,1.4
				c-0.2,0.5-0.2,1.3,0.5,1.9c1.2,1.1,3.6,1.7,5.5,2c0.7,0.1,1.6,0.2,2.3,0.2l0.1,0c0.6,0,1.1-0.3,1.4-0.5c0.8-0.3,1.3-0.8,1.3-1.5
				C315.6,872.5,314.7,872.1,314.3,871.9z"/>
		</g>
		<g>
			<path d="M328.2,878.7c3.6,0.7,4.3,0.8,6.6,1.2l3.2,0.6c0.6,0.1,1.2,0.2,1.7,0.2c0.4,0,0.7,0,1-0.1c0.4-0.1,0.7-0.4,1-0.6
				c0.3,0.5,0.8,0.9,1,1c0.5,0.4,2.1,0.8,2.1,0.8l2.3,0.5l0,0l1.5,0.3l1.3,0.3l0,0l2.5,0.5c1.5,0.4,2.8,0.6,3.9,0.8
				c1.2,0.3,2.3,0.5,3.7,0.9l3.6,1.1c3.3,1,6.8,2,10.1,3.1c5.3,1.8,9.5,3.6,13.3,5.4l1,0.5c1.1,0.6,2.2,1.2,3.4,1.5
				c2,0.6,3.6,1.7,5.4,2.8c0.3,0.2,0.7,0.4,1,0.6l0,0l1.4,0.8l1.1,0.6l0,0c0.8,0.5,1.6,0.9,2.5,1.3c0.5,0.2,1.7,0.7,2.5,0.7
				c0.9,0,1.5-0.6,1.7-1.1c0.2-0.5,0.7-1.9-0.3-2.9c-0.7-0.7-1.9-1.4-3.2-2.2l-1.5-0.8l-0.2-0.1c0,0,0,0-0.1,0l-1.1-0.6l0,0
				c-2.2-1.2-4.4-2.5-6.7-3.6l-8-3.9c-0.5-0.3-1.1-0.5-1.7-0.7c-0.3-0.1-0.6-0.2-0.9-0.3l-9.5-3.5c-1.7-0.6-3.1-1.1-4.4-1.4
				l-0.8-0.2c-1-0.3-2.1-0.6-3-0.8l-3.8-0.9c-1.3-0.3-2.7-0.6-4.3-1.1l-9.8-2l0,0l-2.3-0.5c-0.2,0-1-0.1-1.4-0.1l-0.4,0
				c-0.5,0.1-0.9,0.3-1.3,0.6c-0.1-0.2-0.2-0.3-0.3-0.5c-0.5-0.6-1.4-0.9-2.8-1.3c-1.8-0.5-3.7-0.7-5.5-1c-0.6-0.1-1.3-0.2-1.9-0.3
				l-0.8-0.1c-1-0.1-1.9-0.3-2.9-0.5c-2.8-0.8-5.1-1.3-8.2-1.7l-0.4,0l-0.4,0.2c-0.1,0.1-0.2,0.1-0.3,0.1c-0.5,0.2-1.2,0.4-1.6,1.1
				c-0.2,0.5-0.3,1-0.1,1.5c0.4,1,1.5,1.5,3.2,2.1l2.5,0.4C324.5,878.1,326.3,878.4,328.2,878.7z"/>
		</g>
		<g>
			<path d="M421,912.4c1.5,0,2.2-0.8,2.4-1.3l0.3-0.8l-0.2-0.6c-0.8-2-7.3-5.4-10.3-6.4c-0.3-0.1-0.7-0.2-1.1-0.2
				c-1.2,0-1.6,0.7-1.8,1.1c-0.3,0.7-0.3,1.9,0.5,2.6C412.8,908.7,417.8,912.4,421,912.4z"/>
		</g>
		<g>
			<path d="M344,899.2c-0.8-1.3-2.7-2.2-4.6-3c-0.5-0.1-1.2-0.3-1.9-0.3c-0.8,0-1.4,0.3-1.8,0.8l-0.4,0.9l0.3,0.7
				c0.4,1.1,1.6,2.1,3.9,3.3c0.8,0.4,1.4,0.7,1.9,0.9l0.6,0.1c0.3,0,0.6-0.1,0.9-0.1c0.3,0,1.3-0.1,1.7-1c0.4-0.9-0.2-1.6-0.4-1.8
				C344.1,899.4,344,899.3,344,899.2z"/>
		</g>
		<g>
			<path d="M431.1,925.2c-1-0.1-2.1-0.2-3.1-0.2c-1.1,0-2.1,0-3,0.1c-0.5,0.1-1.3,0.4-1.6,0.9l-0.4,0.6l0.1,0.6
				c0.2,0.7,0.6,1.6,1.5,2c0.9,0.4,2,0.7,3.1,1c1.2,0.2,2.3,0.4,3.4,0.4l0.2,0c2,0,3.3-0.4,4-1.2c0.4-0.5,0.6-1.2,0.6-1.8
				C435.6,926.1,433.9,925.6,431.1,925.2z"/>
		</g>
		<g>
			<path d="M419.4,924.6c-0.8-0.4-1.9-0.7-3.2-0.9l-0.3-0.1v0l-0.1,0l-1.4-0.3c-1.5-0.3-3.1-0.7-4.6-1.1l-2.2-0.6
				c-2.3-0.5-4.5-1.1-6.8-1.8c-0.4-0.1-0.9-0.2-1.3-0.3c-0.3-0.1-0.5-0.1-0.8-0.2c-3.2-0.7-5.2-1.3-7.7-2c-2.5-0.8-4.6-1.4-6.7-1.9
				c-2.2-0.5-4.2-1.1-6.4-2c-0.5-0.2-1.5-0.5-2.4-0.8c-0.6-0.2-1.1-0.3-1.5-0.5l-4.1-1.5l0,0l-1.7-0.7c-0.3-0.1-1.2-0.3-1.7-0.3
				c-0.3,0-0.6,0.1-0.9,0.3c0,0,0,0,0-0.1c-0.3-0.9-1.2-1.4-2.2-1.9c-1.3-0.7-2.7-1.2-4-1.7c-0.6-0.2-1.2-0.5-1.9-0.7l-0.5-0.2
				c-0.9-0.4-1.6-0.6-2.3-1.1l-1-0.6c-1.7-1.1-3.2-2-5.3-2.7l-0.4-0.1l-0.4,0.1c-0.1,0-0.2,0-0.4,0.1c-0.5,0.1-1.1,0.1-1.6,0.5
				c-0.5,0.4-0.7,0.9-0.7,1.5c0,1.1,0.9,1.9,1.8,2.6l10.3,5c0.6,0.3,1.3,0.6,2.3,1l1.7,0.7c0.7,0.2,1.5,0.6,2.2,0.6l0.4,0
				c0.3-0.1,0.5-0.2,0.7-0.3c0.1,0.3,0.2,0.6,0.5,0.9c0.3,0.4,1.4,1,1.7,1.2l1.6,0.7l0,0.1l1.6,0.6l1,0.5l0-0.1l2.1,0.8
				c1,0.4,1.9,0.6,2.7,0.9c1.2,0.4,2.3,0.7,3.6,1.2c1.6,0.6,3.2,1.1,4.8,1.6l12.8,3.6c1.9,0.5,3.8,1,5.7,1.5
				c1.3,0.4,2.7,0.8,4.1,0.8c1.4,0,2.8,0.4,4.3,0.9c0.6,0.2,1.2,0.3,1.8,0.5l0,0.1l1.3,0.2l0,0l1.5,0.3l0-0.1c0.7,0.1,1.3,0.2,2,0.3
				c0.2,0,0.4,0,0.7,0c1.1,0,1.8-0.2,2.3-0.8l0.5-0.7l-0.1-0.7C420.5,926.3,420.3,925.1,419.4,924.6z"/>
		</g>
	</g>
	<path d="M697.6,350.8c0.3-4.9-1.5-9.7-2.9-14.6c-3.3-11.8-6.9-23.4-10.8-34.7c-3.9-11.3-8.1-22.4-12.4-33.2
		c-2.2-5.6-8.6-26.6-12-29.9c-4.9-4.9-9.6,0.5-14.6,3.6c-15.7,9.9-31.7,20.1-48,30.7c-9.9,6.4-19.9,13-29.9,19.8
		c-8.9,6-21.7,11.5-25.6,22.1c-5.4,14.8-8,30.5-12,45.4c-8.3,30.3-17.1,60.6-27.6,90.6c-1.9,5.4-3.8,10.8-5.8,16.2
		c-9,24.2-16.4,48.7-23.1,73.2c-3.4,12.4-6.6,24.8-9.7,37.2c-1.6,6.4-3.2,12.7-4.8,19.1c-0.9,3.8-3.3,8-3.1,11.8
		c0.2,4.9,6,8,9.2,11.3c8.6,9.1,16.4,19.3,23.1,30.5c4,6.7,7,14,10.5,21.2c2.3,4.7,4.5,9.7,7.7,14c4.4,5.9,6.5,5.8,13,3.1
		c12.2-5,24.3-9.8,35.7-15.5c6.7-3.6,38.3-13.4,40.3-19.3c17.4-49.9,34.9-99.8,52.3-149.7c9.1-26.1,18.7-52,27.7-78.2
		c4.5-13,8.8-26,12.9-39.2c2-6.6,4-13.2,5.9-19.8c1.4-4.8,3.2-9.4,3.9-14.5C697.5,351.5,697.6,351.1,697.6,350.8z M617.3,476.1
		c-14.7,50.4-29.4,100.7-44,151.2c-27.1-7.3-52.8-18.6-80.3-24.9c19.9-99.6,58-197.9,90.6-295.4c12.6,3.1,26.1,2.4,38.9,4.7
		c14.3,2.5,27.9,8.2,40.5,16C644.7,375.6,631.8,426.4,617.3,476.1z M587.2,303.2c-0.1-0.3-0.2-0.5-0.4-0.7
		c12.6-11.4,25.2-22.5,37.7-33.4c9.9-8.6,21.5-16.6,30.1-26.4c6.8,25.9,6.7,53.2,9.4,80.4c-11.4-6.9-23.4-11.9-36.2-14.9
		C614.7,305,600.5,305.9,587.2,303.2z M618.1,268.9c-12.4,10.9-24.9,22-37.4,33.4c-0.1,0.1-0.2,0.2-0.2,0.2
		c-6.2,1.3-12.4,2.3-18.7,3.3c-3,0.5-6.1,0.9-9.1,1.4c30.6-21.1,60.8-40.2,89.9-58.4C634.7,255.8,625.8,262.2,618.1,268.9z
		 M500.4,467.3c19.2-51.1,32.7-103,46.1-154.8c3.5,0.3,9.1-1.4,11.5-1.7c6.9-1,13.9-2.1,20.7-3.4c-32.4,97-70.2,194.8-90.1,293.7
		c-0.2,0.1-0.4,0.3-0.5,0.5c-9.1,0.4-18.3,1.8-27.4,3.3C472.3,558.7,483.3,512.9,500.4,467.3z M571.3,631.4
		c-13.9,21.2-37.3,35.7-57.3,52.2c-2.2-5.2-2.7-10.6-3.8-16.2c-1.5-7.6-3.6-14.9-6-22.1c-4.3-12.9-9.6-25-11.4-38.3
		C519.8,613.3,544.9,624,571.3,631.4z M668.6,326.1c-2.4-23.2-2.7-46.4-6.4-68.9c11.7,27.5,22.4,56.6,30.6,87.4
		C684.8,338.3,676.7,332.2,668.6,326.1z M489.6,644.1c-8-13.2-17.7-24.9-28.5-34.9c9-1.4,18.1-2.8,27-3.2c1.4,13,6,24.9,10.5,37.3
		c3,8.2,5.4,16.6,7.2,25.3c0.9,3.9,1.3,7.6,2.2,11.2C500.5,668.7,496.1,655,489.6,644.1z M552.5,668.3c-8.8,4.7-18.2,8.6-27.7,12.5
		c18.2-14.2,37.5-27.5,49.9-46.2c5.1,5.4,9.6,11.3,13.9,17.6C576.9,657.6,564.4,662,552.5,668.3z M591.5,649.2
		c0.4-1.1-6.7-9.3-7.6-10.4c-2.8-3.6-6.7-5.6-6.3-10.5c0.6-7.2,4.4-15.1,6.4-21.9c4.1-14.3,8.3-28.6,12.5-42.9
		c8.3-28.6,16.6-57.1,25-85.7c14.4-49.4,27.2-99.9,45.3-147.6c8.9,6.7,17.8,13.5,26.7,20.4c-13.4,50.3-31.9,98.3-48.8,146.7
		C626.9,547.9,609.3,598.6,591.5,649.2z"/>
</g>
</svg>
